ply
format ascii 1.0
comment Generated by InterDigital model processor
element vertex 370
property float x
property float y
property float z
property float nx
property float ny
property float nz
end_header
0.111111164 -0.333333313 -0.927905679 0.0938343033 -0.289005131 -0.952717841 
0.111111164 -0.555555582 -0.820533514 0.086533241 -0.469628543 -0.878613174 
0.111111164 -0.822404981 -0.555555582 0.184683338 -0.771506429 -0.608826697 
0.333333373 -0.111111104 -0.927468598 0.288904279 -0.0975509286 -0.952375054 
0.111111164 0.932904422 -0.333333313 0.0846376643 0.9565503 -0.279012531 
0.333333373 -0.333333313 -0.875255108 0.277896553 -0.289002448 -0.916106582 
0.286569893 -0.555555582 -0.777777791 0.256280124 -0.469626606 -0.844849825 
0.111111164 0.822404981 -0.555555582 0.184688494 0.771506131 -0.608825445 
0.333333373 -0.555555582 -0.760092378 0.416179627 -0.46962738 -0.778617084 
0.271635175 0.777777791 -0.555555582 0.299910307 0.771504164 -0.561101615 
0.271634638 -0.777777791 -0.555555582 0.299914926 -0.771503925 -0.56109941 
0.333333373 0.526233971 -0.777777791 0.416177124 0.469624549 -0.778620183 
0.525066257 0.333333373 -0.777777791 0.607321441 0.28900227 -0.740025878 
0.555555582 0.269261777 -0.777777791 0.607321441 0.28900227 -0.740025878 
0.555555582 0.333333373 -0.75275588 0.607321441 0.28900227 -0.740025878 
0.111111164 0.984523416 -0.111111104 0.0624802262 0.995138228 -0.076131545 
0.111111164 -0.984523296 -0.111111104 0.0624795631 -0.995138228 -0.0761333182 
0.603826225 -0.111111104 -0.777777791 0.631366491 -0.0975477472 -0.769324958 
0.555555582 -0.111111104 -0.817392349 0.631366491 -0.0975477472 -0.769324958 
0.525066257 -0.333333313 -0.777777791 0.607323766 -0.28900218 -0.740023971 
0.555555582 -0.269261479 -0.777777791 0.607323766 -0.28900218 -0.740023971 
0.555555582 -0.333333313 -0.752755761 0.607323766 -0.28900218 -0.740023971 
0.555555582 -0.555555582 -0.61452353 0.560083985 -0.469626546 -0.682463765 
0.61452353 -0.555555582 -0.555555582 0.682463527 -0.469627291 -0.560083747 
0.555555582 -0.611372232 -0.555555582 0.598704398 -0.632562339 -0.491342992 
0.817392766 0.111111164 -0.555555582 0.769324064 0.0975516886 -0.631366909 
0.777777791 0.111111164 -0.603826642 0.769324064 0.0975516886 -0.631366909 
0.760091901 -0.555555582 -0.333333313 0.778617084 -0.469629914 -0.416176707 
0.777777791 -0.526233554 -0.333333313 0.778617084 -0.469629914 -0.416176707 
0.522577167 0.777777791 -0.333333313 0.561097383 0.771505356 -0.299915165 
0.555555582 0.753793359 -0.333333313 0.561097383 0.771505356 -0.299915165 
0.522576988 -0.777777791 -0.333333313 0.56109947 -0.771505177 -0.299911916 
0.555555582 -0.75379324 -0.333333313 0.56109947 -0.771505177 -0.299911916 
0.777777791 -0.555555582 -0.28656885 0.844847322 -0.469631612 -0.256279439 
0.555555582 0.822404981 -0.111111104 0.608827472 0.771505833 -0.18468301 
0.927469075 0.111111164 -0.333333313 0.952377319 0.0975491107 -0.288897008 
0.927469134 -0.111111104 -0.333333313 0.952377081 -0.0975491181 -0.288898051 
0.333333373 0.932904541 -0.111111104 0.279011041 0.956550658 -0.0846384689 
0.875255942 -0.333333313 -0.333333313 0.916105628 -0.289003819 -0.277897894 
0.978113055 0.111111164 -0.111111104 0.990438402 0.0975475609 -0.0975511894 
0.927906513 -0.333333313 -0.111111104 0.952718735 -0.28900218 -0.0938340798 
0.820533812 -0.555555582 -0.111111104 0.878612816 -0.469628066 -0.0865392536 
0.610050797 0.777777791 -0.111111104 0.633158505 0.771505892 -0.0623615943 
0.777777791 -0.607659101 -0.111111104 0.770781219 -0.63256079 -0.0759164616 
0.777777791 0.607659161 -0.111111104 0.770780921 0.632560849 -0.0759183317 
0.820533872 -0.555555582 0.111111164 0.878611326 -0.469630808 0.0865385756 
0.777777791 0.60765928 0.111111164 0.770780981 0.632560849 0.0759178549 
0.610050797 -0.777777791 0.111111164 0.633158803 -0.771505773 0.0623596758 
0.927906394 -0.333333313 0.111111164 0.952719092 -0.28900069 0.0938341171 
0.333333373 0.932904601 0.111111164 0.279011518 0.956550539 0.0846373811 
0.777777791 -0.555555582 0.286569834 0.844848275 -0.469629645 0.256279707 
0.555555582 0.822405219 0.111111164 0.608827174 0.771505713 0.184684306 
0.555555582 -0.822405159 0.111111164 0.608826995 -0.771505713 0.1846852 
0.875256002 0.333333373 0.333333373 0.916106224 0.288999349 0.277900577 
0.555555582 0.777777791 0.271635473 0.56109792 0.771505773 0.299913019 
0.522577524 -0.777777791 0.333333373 0.56109947 -0.771505237 0.299911916 
0.555555582 -0.753793538 0.333333373 0.56109947 -0.771505237 0.299911916 
0.777777791 0.526234269 0.333333373 0.77861464 0.469629735 0.416181713 
0.760092378 -0.555555582 0.333333373 0.778617084 -0.46962738 0.416179627 
0.817393064 0.111111164 0.555555582 0.769321799 0.0975549072 0.631369233 
0.777777791 0.111111164 0.603826702 0.769321799 0.0975549072 0.631369233 
0.111111164 0.984523416 0.111111164 0.0761320889 0.995138168 0.0624806732 
0.111111164 -0.984523356 0.111111164 0.0761318356 -0.995138228 0.0624804422 
0.817393124 -0.111111104 0.555555582 0.769324362 -0.0975549594 0.631366014 
0.777777791 -0.111111104 0.603827178 0.769324362 -0.0975549594 0.631366014 
0.752756 -0.333333313 0.555555582 0.740026593 -0.289002299 0.607320547 
0.777777791 -0.269261926 0.555555582 0.740026593 -0.289002299 0.607320547 
0.777777791 -0.333333313 0.525066257 0.740026593 -0.289002299 0.607320547 
0.61452353 -0.555555582 0.555555582 0.682463527 -0.469627321 0.560083747 
0.555555582 -0.611372232 0.555555582 0.491345674 -0.632562518 0.598702013 
0.333333373 -0.876457751 0.333333373 0.300176531 -0.880973279 0.365759581 
0.525066257 0.333333373 0.777777791 0.607321441 0.28900224 0.740025878 
0.555555582 0.269261777 0.777777791 0.607321441 0.28900224 0.740025878 
0.555555582 0.333333373 0.75275588 0.607321441 0.28900224 0.740025878 
0.111111164 -0.984523356 0.111111164 0.0624792837 -0.995138228 0.0761330128 
0.603826761 -0.111111104 0.777777791 0.631366193 -0.0975516662 0.769324601 
0.555555582 -0.111111104 0.817392766 0.631366193 -0.0975516662 0.769324601 
0.555555582 -0.555555582 0.61452353 0.560083747 -0.469627291 0.682463527 
0.333333373 -0.52623415 0.777777791 0.416179508 -0.469627947 0.778616905 
0.333333373 -0.555555582 0.760092378 0.416179508 -0.469627947 0.778616905 
0.333333373 0.753793478 0.555555582 0.299912751 0.77150631 0.561097562 
0.333333373 0.777777791 0.522577286 0.299912751 0.77150631 0.561097562 
0.271635354 -0.777777791 0.555555582 0.299913943 -0.771505892 0.561097503 
0.333333373 0.111111164 0.927469313 0.288901716 0.0975491628 0.952375889 
0.333333373 -0.111111104 0.927469194 0.288899511 -0.0975491405 0.952376604 
0.111111164 0.932904601 0.333333373 0.0846373066 0.956550777 0.279011101 
0.333333373 -0.333333313 0.875255942 0.277897894 -0.289003819 0.916105628 
0.286569834 -0.555555582 0.777777791 0.256279588 -0.46963045 0.844847858 
0.111111164 -0.333333313 0.927906573 0.0938340724 -0.289002657 0.952718556 
0.111111164 -0.555555582 0.820533872 0.0865387246 -0.469628096 0.878612876 
0.111111164 -0.607659101 0.777777791 0.0759159178 -0.63256073 0.770781279 
0.111111164 0.607659221 0.777777791 0.0759178698 0.632560849 0.770780981 
0.111111164 0.111111164 0.978113174 0.0975460559 0.0975521058 0.990438461 
0.111111164 -0.111111104 0.978113234 0.0975469723 -0.0975521207 0.990438402 
-0.111111104 -0.333333313 0.927906394 -0.0938341171 -0.28900069 0.952719092 
-0.111111104 -0.555555582 0.820533872 -0.0865385756 -0.469630808 0.878611326 
-0.111111104 0.777777791 0.610051394 -0.0623613968 0.771503985 0.63316083 
-0.111111104 0.60765928 0.777777791 -0.0759178549 0.632560849 0.770780981 
-0.286569834 -0.555555582 0.777777791 -0.256279886 -0.469628483 0.844848931 
-0.111111104 -0.822404981 0.555555582 -0.184683338 -0.771506429 0.608826697 
-0.333333313 0.333333373 0.875255764 -0.277901947 0.288999468 0.916105807 
-0.333333313 -0.111111104 0.927469015 -0.28890413 -0.0975555331 0.952374578 
-0.111111104 0.932904601 0.333333373 -0.0846372694 0.956550717 0.27901122 
-0.333333313 -0.555555582 0.760092437 -0.416179627 -0.46962738 0.778617084 
-0.271635234 0.777777791 0.555555582 -0.299915016 0.771505773 0.561097026 
-0.333333313 -0.753793299 0.555555582 -0.299914211 -0.771505296 0.561098039 
-0.333333313 -0.777777791 0.522577047 -0.299914211 -0.771505296 0.561098039 
-0.333333313 0.52623421 0.777777791 -0.416180104 0.469627917 0.778616548 
-0.555555582 -0.555555582 0.61452353 -0.560083807 -0.469627112 0.682463527 
-0.555555582 0.611372232 0.555555582 -0.491343856 0.632562459 0.598703742 
-0.111111104 -0.984523356 0.111111164 -0.0624792837 -0.995138228 0.0761330128 
-0.603826761 -0.111111104 0.777777791 -0.631366193 -0.0975517035 0.769324601 
-0.555555582 -0.111111104 0.817392766 -0.631366193 -0.0975517035 0.769324601 
-0.525066257 -0.333333313 0.777777791 -0.607323229 -0.28900221 0.740024507 
-0.555555582 -0.269261569 0.777777791 -0.607323229 -0.28900221 0.740024507 
-0.555555582 -0.333333313 0.752755821 -0.607323229 -0.28900221 0.740024507 
-0.75275594 0.333333373 0.555555582 -0.740025878 0.28900224 0.607321441 
-0.777777791 0.269261777 0.555555582 -0.740025878 0.28900224 0.607321441 
-0.777777791 0.333333373 0.525066257 -0.740025878 0.28900224 0.607321441 
-0.111111104 0.984523416 0.111111164 -0.0761320889 0.995138228 0.0624806732 
-0.61452353 -0.555555582 0.555555582 -0.682463527 -0.469627291 0.560083747 
-0.555555582 -0.611372232 0.555555582 -0.598702013 -0.632562518 0.491345674 
-0.760091484 -0.555555582 0.333333373 -0.778618157 -0.469630033 0.41617471 
-0.777777791 -0.526232719 0.333333373 -0.778618157 -0.469630033 0.41617471 
-0.555555582 0.777777791 0.271635175 -0.561101675 0.771504223 0.299910337 
-0.522577286 -0.777777791 0.333333373 -0.561096966 -0.77150625 0.299913675 
-0.555555582 -0.753793478 0.333333373 -0.561096966 -0.77150625 0.299913675 
-0.927468538 0.111111164 0.333333373 -0.952377319 0.0975554585 0.288895458 
-0.927468777 -0.111111104 0.333333373 -0.952376068 -0.0975554958 0.288899332 
-0.333333313 0.932904363 0.111111164 -0.279012889 0.956550121 0.0846378207 
-0.875255108 -0.333333313 0.333333373 -0.916106403 -0.289002389 0.277896523 
-0.777777791 -0.555555582 0.286567181 -0.844848514 -0.469626397 0.25628525 
-0.555555582 0.822405219 0.111111164 -0.60882616 0.771505475 0.184688643 
-0.777777791 -0.607659101 0.111111164 -0.770781279 -0.63256073 0.0759159178 
-0.777777791 0.607658923 0.111111164 -0.770781577 0.632560611 0.0759131387 
-0.978112578 0.111111164 0.111111164 -0.990437865 0.0975521505 0.0975511447 
-0.92790556 -0.333333313 0.111111164 -0.952718556 -0.289002687 0.0938343853 
-0.820533514 -0.555555582 0.111111164 -0.878613174 -0.469628572 0.0865332708 
-0.978112638 -0.111111104 -0.111111104 -0.990437925 -0.0975521728 -0.0975521728 
-0.927905679 -0.333333313 -0.111111104 -0.952717841 -0.289005131 -0.0938343033 
-0.820533514 -0.555555582 -0.111111104 -0.87861383 -0.469626963 -0.0865338668 
-0.610050797 0.777777791 -0.111111104 -0.633158505 0.771505892 -0.0623616166 
-0.777777791 0.607658863 -0.111111104 -0.770781577 0.632560611 -0.0759135634 
-0.555555582 -0.822404981 -0.111111104 -0.608826995 -0.771505713 -0.1846852 
-0.875254869 0.333333373 -0.333333313 -0.916105866 0.289003819 -0.277896941 
-0.333333313 0.932904363 -0.111111104 -0.279012322 0.9565503 -0.0846387818 
-0.777777791 -0.555555582 -0.286566168 -0.844846666 -0.469629914 -0.256284744 
-0.760090888 -0.555555582 -0.333333313 -0.778614581 -0.469632775 -0.416178197 
-0.522577047 0.777777791 -0.333333313 -0.561099589 0.771505117 -0.299911708 
-0.555555582 0.75379318 -0.333333313 -0.561099589 0.771505117 -0.299911708 
-0.555555582 -0.777777791 -0.27163431 -0.561099589 -0.771505117 -0.299911886 
-0.777777791 0.526231885 -0.333333313 -0.77861762 0.469629973 -0.416175723 
-0.81739229 0.111111164 -0.555555582 -0.769322276 0.0975477025 -0.63136971 
-0.777777791 0.111111164 -0.603825748 -0.769322276 0.0975477025 -0.63136971 
-0.752755582 -0.333333313 -0.555555582 -0.740021825 -0.289002061 -0.607326388 
-0.777777791 -0.269261122 -0.555555582 -0.740021825 -0.289002061 -0.607326388 
-0.777777791 -0.333333313 -0.525066257 -0.740021825 -0.289002061 -0.607326388 
-0.614521682 -0.555555582 -0.555555582 -0.682462394 -0.469629675 -0.560083032 
-0.333333313 0.876457334 -0.333333313 -0.30017516 0.880971432 -0.365765125 
-0.555555582 -0.555555582 -0.614521742 -0.560082972 -0.469629765 -0.682462394 
-0.555555582 -0.61137116 -0.555555582 -0.491342008 -0.632557809 -0.59871006 
-0.333333313 -0.876457334 -0.333333313 -0.300172001 -0.880971253 -0.365768284 
-0.525064945 0.333333373 -0.777777791 -0.607323945 0.28900218 -0.740023851 
-0.555555582 0.269258827 -0.777777791 -0.607323945 0.28900218 -0.740023851 
-0.555555582 0.333333373 -0.752754688 -0.607323945 0.28900218 -0.740023851 
-0.603825033 0.111111164 -0.777777791 -0.631369412 0.0975516438 -0.769321918 
-0.555555582 0.111111164 -0.817391694 -0.631369412 0.0975516438 -0.769321918 
-0.111111104 0.984523296 -0.111111104 -0.0624793135 0.995138228 -0.0761329979 
-0.111111104 -0.984523356 -0.111111104 -0.0624795631 -0.995138228 -0.0761333182 
-0.333333313 -0.526231825 -0.777777791 -0.416178942 -0.469629824 -0.778615952 
-0.333333313 -0.555555582 -0.760090888 -0.416178942 -0.469629824 -0.778615952 
-0.271633804 0.777777791 -0.555555582 -0.299915493 0.771504879 -0.56109792 
-0.333333313 -0.753792465 -0.555555582 -0.299912065 -0.771505117 -0.56109947 
-0.333333313 -0.777777791 -0.522576094 -0.299912065 -0.771505117 -0.56109947 
-0.333333313 -0.333333313 -0.875254929 -0.277897894 -0.289003819 -0.916105628 
-0.286565512 -0.555555582 -0.777777791 -0.256279439 -0.469631612 -0.844847322 
-0.333333313 0.111111164 -0.927468359 -0.288901448 0.0975494534 -0.952376008 
-0.333333313 -0.111111104 -0.927468181 -0.288898051 -0.0975494087 -0.952377081 
-0.111111104 0.932904422 -0.333333313 -0.0846377015 0.95655036 -0.279012412 
-0.111111104 -0.111111104 -0.978112638 -0.097552672 -0.097552672 -0.990437806 
-0.111111104 -0.333333313 -0.92790556 -0.0938343853 -0.28900218 -0.952718675 
-0.111111104 -0.555555582 -0.820532799 -0.0865392387 -0.469628304 -0.878612697 
-0.111111104 -0.607657909 -0.777777791 -0.0759106353 -0.632557034 -0.770784736 
-0.111111104 -0.777777791 -0.610050797 -0.062360283 -0.771506011 -0.633158505 
0.111111164 0.333333373 -0.927906156 0.0938392133 0.289007455 -0.952716529 
0.111111164 0.111111164 -0.978112757 0.0975470245 0.0975470245 -0.990438879 
0.111111164 -0.111111104 -0.978113115 0.0975511968 -0.0975470692 -0.990438461 
0.111111164 0.777777791 -0.610050738 0.0623602197 0.771506011 -0.633158445 
0.111111164 -0.607658923 -0.777777791 0.0759131014 -0.632560551 -0.770781577 
0.111111164 0.607659101 -0.777777791 0.0759159401 0.63256073 -0.770781279 
0.111111164 -0.777777791 -0.610050678 0.0623565763 -0.771505892 -0.633159041 
0.111111164 0.555555582 -0.820533872 0.0865387917 0.469626814 -0.878613472 
0.286569834 0.555555582 -0.777777791 0.256280482 0.469624609 -0.844850838 
0.333333373 0.333333373 -0.875254869 0.277897894 0.289003819 -0.916105628 
0.111111164 -0.932904363 -0.333333313 0.0846376717 -0.95655036 -0.279012412 
0.333333373 0.111111164 -0.927468598 0.288904279 0.0975509286 -0.952375054 
0.333333373 -0.526234031 -0.777777791 0.416178703 -0.469626337 -0.778618217 
0.333333373 0.753793538 -0.555555582 0.299913645 0.77150625 -0.561096966 
0.333333373 0.777777791 -0.522577286 0.299913645 0.77150625 -0.561096966 
0.333333373 -0.753793299 -0.555555582 0.299909294 -0.771506071 -0.561099708 
0.333333373 -0.777777791 -0.522577167 0.299909294 -0.771506071 -0.561099708 
0.333333373 0.555555582 -0.760092378 0.416179627 0.46962738 -0.778617084 
0.555555582 0.555555582 -0.61452353 0.560083985 0.469626546 -0.682463765 
0.333333373 -0.876457512 -0.333333313 0.300174654 -0.880972207 -0.365763724 
0.603826165 0.111111164 -0.777777791 0.631366491 0.0975477472 -0.769324958 
0.555555582 0.111111164 -0.817392349 0.631366491 0.0975477472 -0.769324958 
0.333333373 0.876457512 -0.333333313 0.300177604 0.880972385 -0.365760922 
0.555555582 -0.611372232 -0.555555582 0.491343856 -0.632562459 -0.598703742 
0.555555582 0.611372232 -0.555555582 0.491345674 0.632562518 -0.598702013 
0.75275594 -0.333333313 -0.555555582 0.740025878 -0.28900224 -0.607321441 
0.777777791 -0.269261777 -0.555555582 0.740025878 -0.28900224 -0.607321441 
0.777777791 -0.333333313 -0.525066257 0.740025878 -0.28900224 -0.607321441 
0.555555582 0.611372232 -0.555555582 0.598704398 0.632562339 -0.491342992 
0.61452353 0.555555582 -0.555555582 0.682463527 0.469627291 -0.560083747 
0.752755761 0.333333373 -0.555555582 0.740024507 0.28900224 -0.60732317 
0.777777791 0.269261539 -0.555555582 0.740024507 0.28900224 -0.60732317 
0.777777791 0.333333373 -0.525066197 0.740024507 0.28900224 -0.60732317 
0.817392826 -0.111111104 -0.555555582 0.769324064 -0.0975516886 -0.631366909 
0.777777791 -0.111111104 -0.603826642 0.769324064 -0.0975516886 -0.631366909 
0.555555582 0.777777791 -0.271635115 0.561097562 0.771506906 -0.299910873 
0.555555582 -0.777777791 -0.271634638 0.561095953 -0.771506786 -0.29991442 
0.760091901 0.555555582 -0.333333313 0.778617084 0.469629914 -0.416176707 
0.777777791 0.526233554 -0.333333313 0.778617084 0.469629914 -0.416176707 
0.555555582 -0.822404981 -0.111111104 0.608827472 -0.771505833 -0.18468301 
0.777777791 0.555555582 -0.28656885 0.844847322 0.469631612 -0.256279439 
0.875255942 0.333333373 -0.333333313 0.916105628 0.289003819 -0.277897894 
0.333333373 -0.932904482 -0.111111104 0.279012442 -0.956550479 -0.0846349448 
0.927906513 0.333333373 -0.111111104 0.952718735 0.28900218 -0.0938340798 
0.978113055 -0.111111104 -0.111111104 0.990438402 -0.0975475609 -0.0975511894 
0.610050797 -0.777777791 -0.111111104 0.633158505 -0.771505892 -0.0623615943 
0.820533812 0.555555582 -0.111111104 0.878612816 0.469628066 -0.0865392536 
0.610050797 0.777777791 0.111111164 0.633158803 0.771505773 0.0623596758 
0.777777791 -0.60765928 0.111111164 0.770780981 -0.632560849 0.0759178549 
0.820533872 0.555555582 0.111111164 0.878611326 0.469630808 0.0865385756 
0.927906394 0.333333373 0.111111164 0.952719092 0.28900069 0.0938341171 
0.978112817 0.111111164 0.111111164 0.990438819 0.0975475162 0.097547017 
0.978113174 -0.111111104 0.111111164 0.990438402 -0.0975475609 0.0975506976 
0.333333373 -0.932904363 0.111111164 0.279012412 -0.95655036 0.0846376717 
0.927469075 0.111111164 0.333333373 0.952375233 0.0975540429 0.28890273 
0.927468836 -0.111111104 0.333333373 0.952376902 -0.0975539684 0.288896918 
0.875256062 -0.333333313 0.333333373 0.916106224 -0.288999349 0.277900577 
0.777777791 0.555555582 0.286569834 0.844848275 0.469629645 0.256279707 
0.522577524 0.777777791 0.333333373 0.56109947 0.771505237 0.299911916 
0.555555582 0.753793538 0.333333373 0.56109947 0.771505237 0.299911916 
0.555555582 -0.777777791 0.271635473 0.56109792 -0.771505773 0.299913019 
0.760092378 0.555555582 0.333333373 0.778617084 0.46962738 0.416179627 
0.777777791 -0.526234269 0.333333373 0.77861464 -0.469629735 0.416181713 
0.333333373 0.87645787 0.333333373 0.365763485 0.880972385 0.300174505 
0.555555582 -0.611372232 0.555555582 0.598703742 -0.632562459 0.491343856 
0.555555582 0.611372232 0.555555582 0.598702013 0.632562518 0.491345674 
0.61452353 0.555555582 0.555555582 0.682462573 0.469629705 0.560082972 
0.333333373 -0.876457691 0.333333373 0.365762949 -0.880973041 0.300173104 
0.752756 0.333333373 0.555555582 0.740026593 0.289002299 0.607320547 
0.777777791 0.269261897 0.555555582 0.740026593 0.289002299 0.607320547 
0.777777791 0.333333373 0.525066257 0.740026593 0.289002299 0.607320547 
0.555555582 0.611372232 0.555555582 0.491345674 0.632562518 0.598702013 
0.555555582 0.555555582 0.61452353 0.560083747 0.469627291 0.682463527 
0.603826761 0.111111164 0.777777791 0.631366193 0.0975516662 0.769324601 
0.555555582 0.111111164 0.817392766 0.631366193 0.0975516662 0.769324601 
0.525066257 -0.333333313 0.777777791 0.607321441 -0.28900224 0.740025878 
0.555555582 -0.269261777 0.777777791 0.607321441 -0.28900224 0.740025878 
0.555555582 -0.333333313 0.75275594 0.607321441 -0.28900224 0.740025878 
0.271635354 0.777777791 0.555555582 0.299913943 0.771505892 0.561097503 
0.333333373 -0.753793478 0.555555582 0.299912751 -0.77150631 0.561097562 
0.333333373 -0.777777791 0.522577286 0.299912751 -0.77150631 0.561097562 
0.333333373 0.52623415 0.777777791 0.416179508 0.469627947 0.778616905 
0.333333373 0.555555582 0.760092378 0.416179508 0.469627947 0.778616905 
0.111111164 -0.822404981 0.555555582 0.184684098 -0.771506369 0.608826518 
0.286569834 0.555555582 0.777777791 0.256279588 0.46963045 0.844847858 
0.333333373 0.333333373 0.875255883 0.277897894 0.289003819 0.916105628 
0.111111164 -0.932904601 0.333333373 0.0846373066 -0.956550777 0.279011101 
0.111111164 0.822405696 0.555555582 0.184689581 0.771504164 0.60882771 
0.111111164 0.777777791 0.610051394 0.0623604394 0.771503925 0.633160949 
0.111111164 -0.777777791 0.610050797 0.0623611212 -0.771506131 0.633158326 
0.111111164 0.555555582 0.820533872 0.0865387246 0.469628096 0.878612876 
0.111111164 0.333333373 0.927906513 0.0938340724 0.289002657 0.952718556 
-0.111111104 0.555555582 0.820533872 -0.0865385756 0.469630808 0.878611326 
-0.111111104 0.333333373 0.927906394 -0.0938341171 0.28900069 0.952719092 
-0.111111104 0.111111164 0.978113234 -0.0975469723 0.0975521207 0.990438402 
-0.111111104 -0.111111104 0.978113174 -0.0975460559 -0.0975521058 0.990438461 
-0.111111104 -0.60765928 0.777777791 -0.0759178549 -0.632560849 0.770780981 
-0.111111104 -0.777777791 0.610050797 -0.062361151 -0.771506131 0.633158326 
-0.333333313 -0.333333313 0.875255764 -0.277901947 -0.288999468 0.916105807 
-0.111111104 0.822405696 0.555555582 -0.184689596 0.771504164 0.608827651 
-0.286569893 0.555555582 0.777777791 -0.256279886 0.469628483 0.844848931 
-0.111111104 -0.932904601 0.333333373 -0.0846372694 -0.956550717 0.27901122 
-0.333333313 0.111111164 0.927469015 -0.28890413 0.0975555331 0.952374578 
-0.333333313 -0.52623421 0.777777791 -0.416180104 -0.469627917 0.778616548 
-0.333333313 0.75379324 0.555555582 -0.299914211 0.771505296 0.561098039 
-0.333333313 0.777777791 0.522577107 -0.299914211 0.771505296 0.561098039 
-0.271635234 -0.777777791 0.555555582 -0.299915016 -0.771505773 0.561097026 
-0.333333313 0.555555582 0.760092378 -0.416179627 0.46962738 0.778617084 
-0.333333313 0.876457751 0.333333373 -0.300176561 0.880973339 0.365759641 
-0.555555582 -0.611372232 0.555555582 -0.491343856 -0.632562459 0.598703742 
-0.555555582 0.555555582 0.61452353 -0.560083807 0.469627112 0.682463527 
-0.525066257 0.333333373 0.777777791 -0.607323229 0.28900221 0.740024507 
-0.555555582 0.269261539 0.777777791 -0.607323229 0.28900221 0.740024507 
-0.555555582 0.333333373 0.752755821 -0.607323229 0.28900221 0.740024507 
-0.603826761 0.111111164 0.777777791 -0.631366193 0.0975517035 0.769324601 
-0.555555582 0.111111164 0.817392766 -0.631366193 0.0975517035 0.769324601 
-0.817392766 0.111111164 0.555555582 -0.769324601 0.0975516662 0.631366193 
-0.777777791 0.111111164 0.603826761 -0.769324601 0.0975516662 0.631366193 
-0.817392766 -0.111111104 0.555555582 -0.769324064 -0.0975516886 0.631366909 
-0.777777791 -0.111111104 0.603826642 -0.769324064 -0.0975516886 0.631366909 
-0.75275594 -0.333333313 0.555555582 -0.740025878 -0.28900224 0.607321441 
-0.777777791 -0.269261777 0.555555582 -0.740025878 -0.28900224 0.607321441 
-0.777777791 -0.333333313 0.525066316 -0.740025878 -0.28900224 0.607321441 
-0.555555582 0.611372232 0.555555582 -0.598702013 0.632562518 0.491345674 
-0.61452353 0.555555582 0.555555582 -0.682463527 0.469627291 0.560083747 
-0.333333313 -0.876457512 0.333333373 -0.365763724 -0.880972207 0.300174683 
-0.522577524 0.777777791 0.333333373 -0.56109941 0.771505177 0.299911916 
-0.555555582 0.753793538 0.333333373 -0.56109941 0.771505177 0.299911916 
-0.555555582 -0.777777791 0.271635175 -0.561101675 -0.771504223 0.299910337 
-0.760091484 0.555555582 0.333333373 -0.778618157 0.469630033 0.41617471 
-0.777777791 0.526232719 0.333333373 -0.778618157 0.469630033 0.41617471 
-0.333333313 -0.932904363 0.111111164 -0.279012889 -0.956550121 0.0846378207 
-0.555555582 -0.822405159 0.111111164 -0.60882616 -0.771505475 0.184688643 
-0.777777791 0.555555582 0.286567181 -0.844848514 0.469626397 0.25628525 
-0.875255048 0.333333373 0.333333373 -0.916106403 0.289002389 0.277896523 
-0.610050857 -0.777777791 0.111111164 -0.633158624 -0.771505892 0.0623611473 
-0.820533514 0.555555582 0.111111164 -0.878613174 0.469628572 0.0865332708 
-0.92790556 0.333333373 0.111111164 -0.952718556 0.289002687 0.0938343853 
-0.978112578 -0.111111104 0.111111164 -0.990437865 -0.0975521505 0.0975511447 
-0.610050797 0.777777791 0.111111164 -0.633158803 0.771505773 0.0623597428 
-0.777777791 -0.607658863 -0.111111104 -0.770781577 -0.632560611 -0.0759135634 
-0.610050738 -0.777777791 -0.111111104 -0.633158505 -0.771505892 -0.0623616166 
-0.820533514 0.555555582 -0.111111104 -0.87861383 0.469626963 -0.0865338668 
-0.927905679 0.333333373 -0.111111104 -0.952717841 0.289005131 -0.0938343033 
-0.978112638 0.111111164 -0.111111104 -0.990437925 0.0975521728 -0.0975521728 
-0.777777791 0.555555582 -0.286566168 -0.844846666 0.469629914 -0.256284744 
-0.333333313 -0.932904303 -0.111111104 -0.279011995 -0.95655036 -0.0846387148 
-0.92746824 0.111111164 -0.333333313 -0.952376604 0.097549431 -0.288899511 
-0.927468359 -0.111111104 -0.333333313 -0.952376008 -0.0975494608 -0.288901448 
-0.875254869 -0.333333313 -0.333333313 -0.916105866 -0.289003819 -0.277896941 
-0.555555582 0.822404981 -0.111111104 -0.608826995 0.771505713 -0.1846852 
-0.777777791 -0.526231885 -0.333333313 -0.77861762 -0.469629973 -0.416175723 
-0.555555582 0.777777791 -0.27163431 -0.561099589 0.771505117 -0.299911886 
-0.522577047 -0.777777791 -0.333333313 -0.561099589 -0.771505117 -0.299911708 
-0.555555582 -0.75379318 -0.333333313 -0.561099589 -0.771505117 -0.299911708 
-0.760090888 0.555555582 -0.333333313 -0.778614581 0.469632775 -0.416178197 
-0.614521682 0.555555582 -0.555555582 -0.682462394 0.469629675 -0.560083032 
-0.333333313 -0.876457334 -0.333333313 -0.36576283 -0.880971551 -0.300177544 
-0.752755523 0.333333373 -0.555555582 -0.740021825 0.289002061 -0.607326388 
-0.777777791 0.269261122 -0.555555582 -0.740021825 0.289002061 -0.607326388 
-0.777777791 0.333333373 -0.525066257 -0.740021825 0.289002061 -0.607326388 
-0.81739229 -0.111111104 -0.555555582 -0.769322276 -0.0975477025 -0.63136971 
-0.777777791 -0.111111104 -0.603825748 -0.769322276 -0.0975477025 -0.63136971 
-0.333333313 0.876457334 -0.333333313 -0.365764767 0.880971491 -0.300175607 
-0.525065064 -0.333333313 -0.777777791 -0.607323945 -0.28900218 -0.740023851 
-0.555555582 -0.269258887 -0.777777791 -0.607323945 -0.28900218 -0.740023851 
-0.555555582 -0.333333313 -0.752754807 -0.607323945 -0.28900218 -0.740023851 
-0.555555582 0.6113711 -0.555555582 -0.491342008 0.632557809 -0.59871006 
-0.555555582 0.555555582 -0.614521682 -0.560082972 0.469629765 -0.682462394 
-0.603825033 -0.111111104 -0.777777791 -0.631369412 -0.0975516438 -0.769321918 
-0.555555582 -0.111111104 -0.817391634 -0.631369412 -0.0975516438 -0.769321918 
-0.333333313 0.526231766 -0.777777791 -0.416178942 0.469629824 -0.778615952 
-0.333333313 0.555555582 -0.760090828 -0.416178942 0.469629824 -0.778615952 
-0.333333313 0.753792644 -0.555555582 -0.299916267 0.771505356 -0.561096907 
-0.333333313 0.777777791 -0.522576213 -0.299916267 0.771505356 -0.561096907 
-0.27163282 -0.777777791 -0.555555582 -0.299914479 -0.771506608 -0.561096013 
-0.111111104 0.822404981 -0.555555582 -0.184685037 0.771506369 -0.608826339 
-0.111111104 -0.822404981 -0.555555582 -0.184688434 -0.771506131 -0.608825505 
-0.286565483 0.555555582 -0.777777791 -0.256279439 0.469631612 -0.844847322 
-0.333333313 0.333333373 -0.875254929 -0.277897894 0.289003819 -0.916105628 
-0.111111104 -0.932904363 -0.333333313 -0.0846388638 -0.956550181 -0.279012352 
-0.111111104 0.333333373 -0.927905917 -0.0938393772 0.289002299 -0.952718139 
-0.111111104 0.111111164 -0.978112638 -0.097552672 0.097552672 -0.990437806 
-0.111111104 0.777777791 -0.610050797 -0.062360283 0.771506011 -0.633158505 
-0.111111104 0.607658267 -0.777777791 -0.0759161934 0.632557333 -0.77078402 
-0.111111104 0.555555582 -0.820533097 -0.0865445361 0.469631493 -0.878610492 
