ply
format ascii 1.0
comment Generated by InterDigital model processor
element vertex 53
property float x
property float y
property float z
property float nx
property float ny
property float nz
property uchar red
property uchar green
property uchar blue
end_header
-5 -5 0 0 0 -1 255 0 0
-5 5 0 0 0 -1 0 255 0
0 0 0 0 0 -1 0 0 255
-3.37641072 0.925186872 0 0 0 -1 0 0 0
-3.24717855 -1.85037363 0 0 0 -1 0 0 0
-4.87076855 2.22443938 0 0 0 -1 0 0 0
-1.49435759 1.29925251 0 0 0 -1 0 0 0
-1.88205361 -0.374065638 0 0 0 -1 0 0 0
-4.74153757 -0.551121235 0 0 0 -1 0 0 0
-3.63487363 -3.52369189 0 0 0 -1 0 0 0
-2.98871517 2.59850502 0 0 0 -1 0 0 0
-4.61230516 -3.32668066 0 0 0 -1 0 0 0
-3.76410723 -0.748131275 0 0 0 -1 0 0 0
-2.85948277 -0.177054405 0 0 0 -1 0 0 0
-4.48307514 3.89775753 0 0 0 -1 0 0 0
5 5 0 0 0 -1 255 0 0
0.925186872 3.37641072 0 0 0 -1 0 0 0
-1.85037363 3.24717855 0 0 0 -1 0 0 0
2.22443938 4.87076855 0 0 0 -1 0 0 0
1.29925251 1.49435759 0 0 0 -1 0 0 0
-0.374065638 1.88205361 0 0 0 -1 0 0 0
-0.551121235 4.74153757 0 0 0 -1 0 0 0
-3.52369189 3.63487363 0 0 0 -1 0 0 0
2.59850502 2.98871517 0 0 0 -1 0 0 0
-3.32668066 4.61230516 0 0 0 -1 0 0 0
-0.748131275 3.76410723 0 0 0 -1 0 0 0
-0.177054405 2.85948277 0 0 0 -1 0 0 0
3.89775753 4.48307514 0 0 0 -1 0 0 0
5 -5 0 0 -0 -1 0 255 0
3.37641072 -0.925186872 0 0 -0 -1 0 0 0
3.24717855 1.85037363 0 0 -0 -1 0 0 0
4.87076855 -2.22443938 0 0 -0 -1 0 0 0
1.49435759 -1.29925251 0 0 -0 -1 0 0 0
1.88205361 0.374065638 0 0 -0 -1 0 0 0
4.74153757 0.551121235 0 0 -0 -1 0 0 0
3.63487363 3.52369189 0 0 -0 -1 0 0 0
2.98871517 -2.59850502 0 0 -0 -1 0 0 0
4.61230516 3.32668066 0 0 -0 -1 0 0 0
3.76410723 0.748131275 0 0 -0 -1 0 0 0
2.85948277 0.177054405 0 0 -0 -1 0 0 0
4.48307514 -3.89775753 0 0 -0 -1 0 0 0
-0.925186872 -3.37641072 0 0 0 -1 0 0 0
1.85037363 -3.24717855 0 0 0 -1 0 0 0
-2.22443938 -4.87076855 0 0 0 -1 0 0 0
-1.29925251 -1.49435759 0 0 0 -1 0 0 0
0.374065638 -1.88205361 0 0 0 -1 0 0 0
0.551121235 -4.74153757 0 0 0 -1 0 0 0
3.52369189 -3.63487363 0 0 0 -1 0 0 0
-2.59850502 -2.98871517 0 0 0 -1 0 0 0
3.32668066 -4.61230516 0 0 0 -1 0 0 0
0.748131275 -3.76410723 0 0 0 -1 0 0 0
0.177054405 -2.85948277 0 0 0 -1 0 0 0
-3.89775753 -4.48307514 0 0 0 -1 0 0 0
