ply
format ascii 1.0
comment Generated by InterDigital model processor
element vertex 116
property float x
property float y
property float z
property float nx
property float ny
property float nz
property uchar red
property uchar green
property uchar blue
end_header
-5 -5 0 0 0 -1 0 162 232
-5 -3.88888884 0 0 0 -1 53 132 188
-5 -2.77777767 0 0 0 -1 105 102 145
-5 -1.66666651 0 0 0 -1 158 73 101
-5 -0.555555344 0 0 0 -1 211 43 58
-5 0.55555582 0 0 0 -1 237 28 36
-5 1.66666698 0 0 0 -1 237 28 36
-5 2.77777815 0 0 0 -1 237 28 36
-5 3.88888931 0 0 0 -1 237 28 36
-5 5 0 0 0 -1 237 28 36
-3.88888884 -3.88888884 0 0 0 -1 87 156 194
-3.88888884 -2.77777767 0 0 0 -1 117 129 152
-3.88888884 -1.66666651 0 0 0 -1 147 102 109
-3.88888884 -0.555555344 0 0 0 -1 177 75 66
-3.88888884 0.55555582 0 0 0 -1 192 61 45
-3.88888884 1.66666698 0 0 0 -1 192 61 45
-3.88888884 2.77777815 0 0 0 -1 192 61 45
-3.88888884 3.88888931 0 0 0 -1 192 61 45
-2.77777767 -2.77777767 0 0 0 -1 128 155 158
-2.77777767 -1.66666651 0 0 0 -1 136 131 117
-2.77777767 -0.555555344 0 0 0 -1 143 106 75
-2.77777767 0.55555582 0 0 0 -1 147 94 54
-2.77777767 1.66666698 0 0 0 -1 147 94 54
-2.77777767 2.77777815 0 0 0 -1 147 94 54
-1.66666651 -1.66666651 0 0 0 -1 124 160 124
-1.66666651 -0.555555344 0 0 0 -1 109 138 83
-1.66666651 0.55555582 0 0 0 -1 102 127 63
-1.66666651 1.66666698 0 0 0 -1 102 127 63
-0.555555344 -0.555555344 0 0 0 -1 75 170 92
-0.555555344 0.55555582 0 0 0 -1 57 160 72
-5 5 0 0 0 -1 237 28 36
-3.88888884 3.88888931 0 0 0 -1 192 61 45
-3.88888884 5 0 0 0 -1 192 61 45
-2.77777767 2.77777815 0 0 0 -1 147 94 54
-2.77777767 3.88888931 0 0 0 -1 147 94 54
-2.77777767 5 0 0 0 -1 147 94 54
-1.66666651 1.66666698 0 0 0 -1 102 127 63
-1.66666651 2.77777815 0 0 0 -1 102 127 63
-1.66666651 3.88888931 0 0 0 -1 102 127 63
-1.66666651 5 0 0 0 -1 102 127 63
-0.555555344 0.55555582 0 0 0 -1 57 160 72
-0.555555344 1.66666698 0 0 0 -1 57 160 72
-0.555555344 2.77777815 0 0 0 -1 57 160 72
-0.555555344 3.88888931 0 0 0 -1 57 160 72
-0.555555344 5 0 0 0 -1 57 160 72
0.55555582 0.55555582 0 0 0 -1 34 177 76
0.55555582 1.66666698 0 0 0 -1 34 177 76
0.55555582 2.77777815 0 0 0 -1 34 177 76
0.55555582 3.88888931 0 0 0 -1 34 177 76
0.55555582 5 0 0 0 -1 34 177 76
1.66666698 1.66666698 0 0 0 -1 34 177 76
1.66666698 2.77777815 0 0 0 -1 34 177 76
1.66666698 3.88888931 0 0 0 -1 34 177 76
1.66666698 5 0 0 0 -1 34 177 76
2.77777815 2.77777815 0 0 0 -1 34 177 76
2.77777815 3.88888931 0 0 0 -1 34 177 76
2.77777815 5 0 0 0 -1 34 177 76
3.88888931 3.88888931 0 0 0 -1 34 177 76
3.88888931 5 0 0 0 -1 34 177 76
5 5 0 0 0 -1 34 177 76
0.55555582 -0.555555344 0 0 -0 -1 59 186 96
0.55555582 0.55555582 0 0 -0 -1 34 177 76
1.66666698 -1.66666651 0 0 -0 -1 108 203 136
1.66666698 -0.555555344 0 0 -0 -1 59 186 96
1.66666698 0.55555582 0 0 -0 -1 34 177 76
1.66666698 1.66666698 0 0 -0 -1 34 177 76
2.77777815 -2.77777767 0 0 -0 -1 157 220 175
2.77777815 -1.66666651 0 0 -0 -1 108 203 136
2.77777815 -0.555555344 0 0 -0 -1 59 186 96
2.77777815 0.55555582 0 0 -0 -1 34 177 76
2.77777815 1.66666698 0 0 -0 -1 34 177 76
2.77777815 2.77777815 0 0 -0 -1 34 177 76
3.88888931 -3.88888884 0 0 -0 -1 206 238 215
3.88888931 -2.77777767 0 0 -0 -1 157 220 175
3.88888931 -1.66666651 0 0 -0 -1 108 203 136
3.88888931 -0.555555344 0 0 -0 -1 59 186 96
3.88888931 0.55555582 0 0 -0 -1 34 177 76
3.88888931 1.66666698 0 0 -0 -1 34 177 76
3.88888931 2.77777815 0 0 -0 -1 34 177 76
3.88888931 3.88888931 0 0 -0 -1 34 177 76
5 -5 0 0 -0 -1 255 255 255
5 -3.88888884 0 0 -0 -1 206 238 215
5 -2.77777767 0 0 -0 -1 157 220 175
5 -1.66666651 0 0 -0 -1 108 203 136
5 -0.555555344 0 0 -0 -1 59 186 96
5 0.55555582 0 0 -0 -1 34 177 76
5 1.66666698 0 0 -0 -1 34 177 76
5 2.77777815 0 0 -0 -1 34 177 76
5 3.88888931 0 0 -0 -1 34 177 76
5 5 0 0 -0 -1 34 177 76
-5 -5 0 0 0 -1 0 162 232
-3.88888884 -5 0 0 0 -1 57 183 237
-3.88888884 -3.88888884 0 0 0 -1 87 156 194
-2.77777767 -5 0 0 0 -1 113 203 242
-2.77777767 -3.88888884 0 0 0 -1 121 179 200
-2.77777767 -2.77777767 0 0 0 -1 128 155 158
-1.66666651 -5 0 0 0 -1 170 224 247
-1.66666651 -3.88888884 0 0 0 -1 155 203 206
-1.66666651 -2.77777767 0 0 0 -1 140 181 165
-1.66666651 -1.66666651 0 0 0 -1 124 160 124
-0.555555344 -5 0 0 0 -1 227 245 252
-0.555555344 -3.88888884 0 0 0 -1 189 226 212
-0.555555344 -2.77777767 0 0 0 -1 151 207 172
-0.555555344 -1.66666651 0 0 0 -1 113 189 132
-0.555555344 -0.555555344 0 0 0 -1 75 170 92
0.55555582 -5 0 0 0 -1 255 255 255
0.55555582 -3.88888884 0 0 0 -1 206 238 215
0.55555582 -2.77777767 0 0 0 -1 157 220 175
0.55555582 -1.66666651 0 0 0 -1 108 203 136
1.66666698 -5 0 0 0 -1 255 255 255
1.66666698 -3.88888884 0 0 0 -1 206 238 215
1.66666698 -2.77777767 0 0 0 -1 157 220 175
2.77777815 -5 0 0 0 -1 255 255 255
2.77777815 -3.88888884 0 0 0 -1 206 238 215
3.88888931 -5 0 0 0 -1 255 255 255
5 -5 0 0 0 -1 255 255 255
