ply
format ascii 1.0
comment Generated by InterDigital model processor
element vertex 81
property float x
property float y
property float z
property float nx
property float ny
property float nz
property uchar red
property uchar green
property uchar blue
end_header
-5 -5 0 0 0 -1 0 162 232
-5 5 0 0 0 -1 237 28 36
0 0 0 0 0 -1 132 156 150
-5 0 0 0 0 -1 119 95 134
-2.5 2.5 0 0 0 -1 237 28 36
-2.5 -2.5 0 0 0 -1 0 162 232
-3.75 1.25 0 0 0 -1 178 62 85
-2.5 0 0 0 0 -1 119 95 134
-3.75 -1.25 0 0 0 -1 59 129 183
-3.75 0 0 0 0 -1 119 95 134
-2.5 1.25 0 0 0 -1 178 62 85
-2.5 -1.25 0 0 -0 -1 59 129 183
-5 -2.5 0 0 0 -1 0 162 232
-3.75 -3.75 0 0 0 -1 0 162 232
-3.75 -2.5 0 0 0 -1 0 162 232
-5 -3.75 0 0 0 -1 0 162 232
-5 -1.25 0 0 0 -1 59 129 183
-5 2.5 0 0 0 -1 237 28 36
-3.75 3.75 0 0 0 -1 237 28 36
-3.75 2.5 0 0 0 -1 237 28 36
-5 1.25 0 0 0 -1 178 62 85
-5 3.75 0 0 0 -1 237 28 36
-1.25 1.25 0 0 0 -1 156 95 94
-1.25 -1.25 0 0 0 -1 94 155 190
-1.25 0 0 0 -0 -1 125 125 142
5 5 0 0 0 -1 34 177 76
0 5 0 0 0 -1 136 103 56
2.5 2.5 0 0 0 -1 34 177 76
1.25 3.75 0 0 -0 -1 85 140 66
0 2.5 0 0 -0 -1 136 103 56
-1.25 3.75 0 0 -0 -1 186 65 46
0 3.75 0 -0 0 -1 136 103 56
1.25 2.5 0 0 -0 -1 85 140 66
-1.25 2.5 0 0 0 -1 186 65 46
-2.5 5 0 0 0 -1 237 28 36
-2.5 3.75 0 0 -0 -1 237 28 36
-3.75 5 0 0 0 -1 237 28 36
-1.25 5 0 0 0 -1 186 65 46
2.5 5 0 0 0 -1 34 177 76
3.75 3.75 0 0 0 -1 34 177 76
2.5 3.75 0 0 -0 -1 34 177 76
1.25 5 0 0 0 -1 85 140 66
3.75 5 0 0 0 -1 34 177 76
1.25 1.25 0 -0 0 -1 111 163 112
0 1.25 0 0 0 -1 134 129 103
5 -5 0 0 -0 -1 255 255 255
5 0 0 0 -0 -1 145 216 166
2.5 -2.5 0 0 -0 -1 255 255 255
3.75 -1.25 0 -0 0 -1 200 236 210
2.5 0 0 -0 0 -1 145 216 166
3.75 1.25 0 -0 0 -1 89 197 121
3.75 0 0 0 0 -1 145 216 166
2.5 -1.25 0 -0 0 -1 200 236 210
2.5 1.25 0 0 0 -1 89 197 121
5 2.5 0 0 -0 -1 34 177 76
3.75 2.5 0 -0 0 -1 34 177 76
5 3.75 0 0 -0 -1 34 177 76
5 1.25 0 0 -0 -1 89 197 121
5 -2.5 0 0 -0 -1 255 255 255
3.75 -3.75 0 0 -0 -1 255 255 255
3.75 -2.5 0 -0 0 -1 255 255 255
5 -1.25 0 0 -0 -1 200 236 210
5 -3.75 0 0 -0 -1 255 255 255
1.25 -1.25 0 0 0 -1 165 209 203
1.25 0 0 0 0 -1 138 186 158
0 -5 0 0 0 -1 128 209 244
-1.25 -3.75 0 0 0 -1 64 185 238
0 -2.5 0 0 0 -1 128 209 244
1.25 -3.75 0 0 0 -1 191 232 249
0 -3.75 0 0 0 -1 128 209 244
-1.25 -2.5 0 0 0 -1 64 185 238
1.25 -2.5 0 0 0 -1 191 232 249
2.5 -5 0 0 0 -1 255 255 255
2.5 -3.75 0 0 0 -1 255 255 255
3.75 -5 0 0 0 -1 255 255 255
1.25 -5 0 0 0 -1 191 232 249
-2.5 -5 0 0 0 -1 0 162 232
-2.5 -3.75 0 0 0 -1 0 162 232
-1.25 -5 0 0 0 -1 64 185 238
-3.75 -5 0 0 0 -1 0 162 232
0 -1.25 0 0 0 -1 130 182 197
