ply
format ascii 1.0
comment Generated by InterDigital model processor
element vertex 216
property float x
property float y
property float z
property float nx
property float ny
property float nz
property uchar red
property uchar green
property uchar blue
end_header
-5 -5 0 0 0 -1 0 162 232
-5 5 0 0 0 -1 237 28 36
0 0 0 0 0 -1 34 177 76
-5 0 0 0 0 -1 237 28 36
-2.5 2.5 0 0 0 -1 237 28 36
-2.5 -2.5 0 0 0 -1 0 162 232
-3.75 1.25 0 0 0 -1 237 28 36
-2.5 0 0 0 0 -1 237 28 36
-3.75 -1.25 0 0 0 -1 0 162 232
-3.125 0.625 0 0 0 -1 237 28 36
-3.125 -0.625 0 0 0 -1 0 162 232
-3.75 0 0 0 0 -1 237 28 36
-3.4375 -0.9375 0 -0 0 -1 0 162 232
-3.75 -0.625 0 -0 0 -1 0 162 232
-3.4375 -0.3125 0 -0 0 -1 0 162 232
-4.375 0.625 0 0 0 -1 237 28 36
-4.375 -0.625 0 0 0 -1 0 162 232
-4.0625 -0.9375 0 0 -0 -1 0 162 232
-4.0625 -0.3125 0 0 -0 -1 0 162 232
-3.125 1.875 0 0 0 -1 237 28 36
-2.5 1.25 0 0 0 -1 237 28 36
-2.5 -1.25 0 0 -0 -1 0 162 232
-3.125 -1.875 0 0 -0 -1 0 162 232
-2.5 -0.625 0 0 -0 -1 0 162 232
-2.8125 -0.9375 0 0 -0 -1 0 162 232
-2.8125 -0.3125 0 0 -0 -1 0 162 232
-5 -2.5 0 0 0 -1 0 162 232
-3.75 -3.75 0 0 0 -1 0 162 232
-4.375 -1.875 0 0 0 -1 0 162 232
-3.75 -2.5 0 0 0 -1 0 162 232
-4.375 -3.125 0 0 0 -1 0 162 232
-5 -3.75 0 0 0 -1 0 162 232
-4.375 -4.375 0 0 0 -1 0 162 232
-5 -1.25 0 0 0 -1 0 162 232
-5 -0.625 0 0 0 -1 0 162 232
-4.6875 -0.3125 0 0 0 -1 0 162 232
-4.6875 -0.9375 0 0 0 -1 0 162 232
-3.125 -3.125 0 0 0 -1 0 162 232
-5 2.5 0 0 0 -1 237 28 36
-3.75 3.75 0 0 0 -1 237 28 36
-4.375 3.125 0 0 0 -1 237 28 36
-3.75 2.5 0 0 0 -1 237 28 36
-4.375 1.875 0 0 0 -1 237 28 36
-5 1.25 0 0 0 -1 237 28 36
-5 3.75 0 0 0 -1 237 28 36
-4.375 4.375 0 0 0 -1 237 28 36
-3.125 3.125 0 0 0 -1 237 28 36
-1.25 1.25 0 0 0 -1 237 28 36
-1.25 -1.25 0 0 0 -1 0 162 232
-1.25 0 0 0 -0 -1 237 28 36
-1.875 -0.625 0 0 -0 -1 0 162 232
-1.875 0.625 0 0 -0 -1 237 28 36
-1.25 -0.625 0 0 -0 -1 0 162 232
-1.5625 -0.9375 0 0 -0 -1 0 162 232
-1.5625 -0.3125 0 0 -0 -1 0 162 232
-1.875 1.875 0 0 0 -1 237 28 36
-0.625 0.625 0 0 0 -1 237 28 36
-0.625 -0.625 0 0 0 -1 0 162 232
-0.9375 -0.9375 0 -0 0 -1 0 162 232
-0.9375 -0.3125 0 -0 0 -1 0 162 232
-1.875 -1.875 0 -0 0 -1 0 162 232
-2.1875 -0.3125 0 0 0 -1 0 162 232
-2.1875 -0.9375 0 0 0 -1 0 162 232
5 5 0 0 0 -1 34 177 76
0 5 0 0 0 -1 34 177 76
2.5 2.5 0 0 0 -1 34 177 76
1.25 3.75 0 0 -0 -1 34 177 76
0 2.5 0 0 -0 -1 34 177 76
-1.25 3.75 0 0 -0 -1 237 28 36
0.625 3.125 0 -0 0 -1 34 177 76
-0.625 3.125 0 -0 0 -1 237 28 36
0 3.75 0 -0 0 -1 34 177 76
-0.9375 3.4375 0 0 0 -1 237 28 36
-0.625 3.75 0 0 0 -1 237 28 36
-0.3125 3.4375 0 0 0 -1 237 28 36
0.625 4.375 0 0 -0 -1 34 177 76
-0.625 4.375 0 0 -0 -1 237 28 36
-0.9375 4.0625 0 0 0 -1 237 28 36
-0.3125 4.0625 0 0 0 -1 237 28 36
1.875 3.125 0 0 -0 -1 34 177 76
1.25 2.5 0 0 -0 -1 34 177 76
-1.25 2.5 0 0 0 -1 237 28 36
-1.875 3.125 0 0 0 -1 237 28 36
-0.625 2.5 0 0 0 -1 237 28 36
-0.9375 2.8125 0 0 0 -1 237 28 36
-0.3125 2.8125 0 0 0 -1 237 28 36
-2.5 5 0 0 0 -1 237 28 36
-1.875 4.375 0 0 -0 -1 237 28 36
-2.5 3.75 0 0 -0 -1 237 28 36
-3.125 4.375 0 0 -0 -1 237 28 36
-3.75 5 0 0 0 -1 237 28 36
-1.25 5 0 0 0 -1 237 28 36
-0.625 5 0 0 0 -1 237 28 36
-0.3125 4.6875 0 0 0 -1 237 28 36
-0.9375 4.6875 0 0 0 -1 237 28 36
2.5 5 0 0 0 -1 34 177 76
3.75 3.75 0 0 0 -1 34 177 76
3.125 4.375 0 0 -0 -1 34 177 76
2.5 3.75 0 0 -0 -1 34 177 76
1.875 4.375 0 0 -0 -1 34 177 76
1.25 5 0 0 0 -1 34 177 76
3.75 5 0 0 0 -1 34 177 76
4.375 4.375 0 0 0 -1 34 177 76
3.125 3.125 0 -0 0 -1 34 177 76
1.25 1.25 0 -0 0 -1 34 177 76
0 1.25 0 0 0 -1 34 177 76
-0.625 1.875 0 0 0 -1 237 28 36
0.625 1.875 0 0 0 -1 34 177 76
-0.625 1.25 0 0 0 -1 237 28 36
-0.9375 1.5625 0 0 0 -1 237 28 36
-0.3125 1.5625 0 0 0 -1 237 28 36
1.875 1.875 0 -0 0 -1 34 177 76
0.625 0.625 0 -0 0 -1 34 177 76
-0.9375 0.9375 0 0 0 -1 237 28 36
-0.3125 0.9375 0 0 0 -1 237 28 36
-0.3125 2.1875 0 0 0 -1 237 28 36
-0.9375 2.1875 0 0 0 -1 237 28 36
5 -5 0 0 -0 -1 255 255 255
5 0 0 0 -0 -1 34 177 76
2.5 -2.5 0 0 -0 -1 255 255 255
3.75 -1.25 0 -0 0 -1 255 255 255
2.5 0 0 -0 0 -1 34 177 76
3.75 1.25 0 -0 0 -1 34 177 76
3.125 -0.625 0 0 0 -1 255 255 255
3.125 0.625 0 0 0 -1 34 177 76
3.75 0 0 0 0 -1 34 177 76
3.4375 -0.9375 0 0 0 -1 255 255 255
3.4375 -0.3125 0 0 0 -1 255 255 255
3.75 -0.625 0 0 0 -1 255 255 255
4.375 -0.625 0 -0 0 -1 255 255 255
4.375 0.625 0 -0 0 -1 34 177 76
4.0625 -0.9375 0 -0 0 -1 255 255 255
4.0625 -0.3125 0 -0 0 -1 255 255 255
3.125 -1.875 0 -0 0 -1 255 255 255
2.5 -1.25 0 -0 0 -1 255 255 255
2.5 -0.625 0 0 0 -1 255 255 255
2.8125 -0.3125 0 0 0 -1 255 255 255
2.8125 -0.9375 0 0 0 -1 255 255 255
2.5 1.25 0 0 0 -1 34 177 76
3.125 1.875 0 0 0 -1 34 177 76
5 2.5 0 0 -0 -1 34 177 76
4.375 1.875 0 -0 0 -1 34 177 76
3.75 2.5 0 -0 0 -1 34 177 76
4.375 3.125 0 -0 0 -1 34 177 76
5 3.75 0 0 -0 -1 34 177 76
5 1.25 0 0 -0 -1 34 177 76
5 -2.5 0 0 -0 -1 255 255 255
3.75 -3.75 0 0 -0 -1 255 255 255
4.375 -3.125 0 -0 0 -1 255 255 255
3.75 -2.5 0 -0 0 -1 255 255 255
4.375 -1.875 0 -0 0 -1 255 255 255
5 -1.25 0 0 -0 -1 255 255 255
5 -0.625 0 0 -0 -1 255 255 255
4.6875 -0.9375 0 0 -0 -1 255 255 255
4.6875 -0.3125 0 0 -0 -1 255 255 255
5 -3.75 0 0 -0 -1 255 255 255
4.375 -4.375 0 0 -0 -1 255 255 255
3.125 -3.125 0 0 0 -1 255 255 255
1.25 -1.25 0 0 0 -1 255 255 255
1.25 0 0 0 0 -1 34 177 76
1.875 0.625 0 0 0 -1 34 177 76
1.875 -0.625 0 0 0 -1 255 255 255
1.25 -0.625 0 0 0 -1 255 255 255
1.5625 -0.3125 0 0 0 -1 255 255 255
1.5625 -0.9375 0 0 0 -1 255 255 255
1.875 -1.875 0 0 0 -1 255 255 255
2.1875 -0.3125 0 0 0 -1 255 255 255
2.1875 -0.9375 0 0 0 -1 255 255 255
0.625 -0.625 0 0 0 -1 255 255 255
0.9375 -0.9375 0 0 0 -1 255 255 255
0.9375 -0.3125 0 0 0 -1 255 255 255
0 -5 0 0 0 -1 255 255 255
-1.25 -3.75 0 0 0 -1 0 162 232
0 -2.5 0 0 0 -1 255 255 255
1.25 -3.75 0 0 0 -1 255 255 255
-0.625 -3.125 0 0 0 -1 0 162 232
0.625 -3.125 0 0 0 -1 255 255 255
0 -3.75 0 0 0 -1 255 255 255
-0.9375 -3.4375 0 0 0 -1 0 162 232
-0.3125 -3.4375 0 0 0 -1 0 162 232
-0.625 -3.75 0 0 0 -1 0 162 232
-0.625 -4.375 0 0 0 -1 0 162 232
0.625 -4.375 0 0 0 -1 255 255 255
-0.9375 -4.0625 0 0 0 -1 0 162 232
-0.3125 -4.0625 0 0 0 -1 0 162 232
-1.875 -3.125 0 0 0 -1 0 162 232
-1.25 -2.5 0 0 0 -1 0 162 232
-0.625 -2.5 0 0 0 -1 0 162 232
-0.3125 -2.8125 0 0 0 -1 0 162 232
-0.9375 -2.8125 0 0 0 -1 0 162 232
1.25 -2.5 0 0 0 -1 255 255 255
1.875 -3.125 0 0 0 -1 255 255 255
2.5 -5 0 0 0 -1 255 255 255
1.875 -4.375 0 0 0 -1 255 255 255
2.5 -3.75 0 0 0 -1 255 255 255
3.125 -4.375 0 0 0 -1 255 255 255
3.75 -5 0 0 0 -1 255 255 255
1.25 -5 0 0 0 -1 255 255 255
-2.5 -5 0 0 0 -1 0 162 232
-3.125 -4.375 0 0 0 -1 0 162 232
-2.5 -3.75 0 0 0 -1 0 162 232
-1.875 -4.375 0 0 0 -1 0 162 232
-1.25 -5 0 0 0 -1 0 162 232
-0.625 -5 0 0 0 -1 0 162 232
-0.9375 -4.6875 0 0 0 -1 0 162 232
-0.3125 -4.6875 0 0 0 -1 0 162 232
-3.75 -5 0 0 0 -1 0 162 232
0 -1.25 0 0 0 -1 255 255 255
0.625 -1.875 0 0 0 -1 255 255 255
-0.625 -1.875 0 0 0 -1 0 162 232
-0.625 -1.25 0 0 0 -1 0 162 232
-0.3125 -1.5625 0 0 0 -1 0 162 232
-0.9375 -1.5625 0 0 0 -1 0 162 232
-0.3125 -2.1875 0 0 -0 -1 0 162 232
-0.9375 -2.1875 0 0 -0 -1 0 162 232
-0.3125 -0.9375 0 0 0 -1 0 162 232
