ply
format ascii 1.0
comment Generated by InterDigital model processor
element vertex 370
property float x
property float y
property float z
property float nx
property float ny
property float nz
end_header
0.111111 -0.333333 -0.927906 0.0938343 -0.289005 -0.952718 
0.111111 -0.555556 -0.820534 0.0865332 -0.469629 -0.878613 
0.111111 -0.822405 -0.555556 0.184683 -0.771506 -0.608827 
0.333333 -0.111111 -0.927469 0.288904 -0.0975509 -0.952375 
0.111111 0.932904 -0.333333 0.0846377 0.95655 -0.279013 
0.333333 -0.333333 -0.875255 0.277897 -0.289002 -0.916107 
0.28657 -0.555556 -0.777778 0.25628 -0.469627 -0.84485 
0.111111 0.822405 -0.555556 0.184688 0.771506 -0.608825 
0.333333 -0.555556 -0.760092 0.41618 -0.469627 -0.778617 
0.271635 0.777778 -0.555556 0.29991 0.771504 -0.561102 
0.271635 -0.777778 -0.555556 0.299915 -0.771504 -0.561099 
0.333333 0.526234 -0.777778 0.416177 0.469625 -0.77862 
0.525066 0.333333 -0.777778 0.607321 0.289002 -0.740026 
0.555556 0.269262 -0.777778 0.607321 0.289002 -0.740026 
0.555556 0.333333 -0.752756 0.607321 0.289002 -0.740026 
0.111111 0.984523 -0.111111 0.0624802 0.995138 -0.0761315 
0.111111 -0.984523 -0.111111 0.0624796 -0.995138 -0.0761333 
0.603826 -0.111111 -0.777778 0.631366 -0.0975477 -0.769325 
0.555556 -0.111111 -0.817392 0.631366 -0.0975477 -0.769325 
0.525066 -0.333333 -0.777778 0.607324 -0.289002 -0.740024 
0.555556 -0.269261 -0.777778 0.607324 -0.289002 -0.740024 
0.555556 -0.333333 -0.752756 0.607324 -0.289002 -0.740024 
0.555556 -0.555556 -0.614524 0.560084 -0.469627 -0.682464 
0.614524 -0.555556 -0.555556 0.682464 -0.469627 -0.560084 
0.555556 -0.611372 -0.555556 0.598704 -0.632562 -0.491343 
0.817393 0.111111 -0.555556 0.769324 0.0975517 -0.631367 
0.777778 0.111111 -0.603827 0.769324 0.0975517 -0.631367 
0.760092 -0.555556 -0.333333 0.778617 -0.46963 -0.416177 
0.777778 -0.526234 -0.333333 0.778617 -0.46963 -0.416177 
0.522577 0.777778 -0.333333 0.561097 0.771505 -0.299915 
0.555556 0.753793 -0.333333 0.561097 0.771505 -0.299915 
0.522577 -0.777778 -0.333333 0.561099 -0.771505 -0.299912 
0.555556 -0.753793 -0.333333 0.561099 -0.771505 -0.299912 
0.777778 -0.555556 -0.286569 0.844847 -0.469632 -0.256279 
0.555556 0.822405 -0.111111 0.608827 0.771506 -0.184683 
0.927469 0.111111 -0.333333 0.952377 0.0975491 -0.288897 
0.927469 -0.111111 -0.333333 0.952377 -0.0975491 -0.288898 
0.333333 0.932905 -0.111111 0.279011 0.956551 -0.0846385 
0.875256 -0.333333 -0.333333 0.916106 -0.289004 -0.277898 
0.978113 0.111111 -0.111111 0.990438 0.0975476 -0.0975512 
0.927907 -0.333333 -0.111111 0.952719 -0.289002 -0.0938341 
0.820534 -0.555556 -0.111111 0.878613 -0.469628 -0.0865393 
0.610051 0.777778 -0.111111 0.633159 0.771506 -0.0623616 
0.777778 -0.607659 -0.111111 0.770781 -0.632561 -0.0759165 
0.777778 0.607659 -0.111111 0.770781 0.632561 -0.0759183 
0.820534 -0.555556 0.111111 0.878611 -0.469631 0.0865386 
0.777778 0.607659 0.111111 0.770781 0.632561 0.0759179 
0.610051 -0.777778 0.111111 0.633159 -0.771506 0.0623597 
0.927906 -0.333333 0.111111 0.952719 -0.289001 0.0938341 
0.333333 0.932905 0.111111 0.279012 0.956551 0.0846374 
0.777778 -0.555556 0.28657 0.844848 -0.46963 0.25628 
0.555556 0.822405 0.111111 0.608827 0.771506 0.184684 
0.555556 -0.822405 0.111111 0.608827 -0.771506 0.184685 
0.875256 0.333333 0.333333 0.916106 0.288999 0.277901 
0.555556 0.777778 0.271635 0.561098 0.771506 0.299913 
0.522578 -0.777778 0.333333 0.561099 -0.771505 0.299912 
0.555556 -0.753794 0.333333 0.561099 -0.771505 0.299912 
0.777778 0.526234 0.333333 0.778615 0.46963 0.416182 
0.760092 -0.555556 0.333333 0.778617 -0.469627 0.41618 
0.817393 0.111111 0.555556 0.769322 0.0975549 0.631369 
0.777778 0.111111 0.603827 0.769322 0.0975549 0.631369 
0.111111 0.984523 0.111111 0.0761321 0.995138 0.0624807 
0.111111 -0.984523 0.111111 0.0761318 -0.995138 0.0624804 
0.817393 -0.111111 0.555556 0.769324 -0.097555 0.631366 
0.777778 -0.111111 0.603827 0.769324 -0.097555 0.631366 
0.752756 -0.333333 0.555556 0.740027 -0.289002 0.607321 
0.777778 -0.269262 0.555556 0.740027 -0.289002 0.607321 
0.777778 -0.333333 0.525066 0.740027 -0.289002 0.607321 
0.614524 -0.555556 0.555556 0.682464 -0.469627 0.560084 
0.555556 -0.611372 0.555556 0.491346 -0.632563 0.598702 
0.333333 -0.876458 0.333333 0.300177 -0.880973 0.36576 
0.525066 0.333333 0.777778 0.607321 0.289002 0.740026 
0.555556 0.269262 0.777778 0.607321 0.289002 0.740026 
0.555556 0.333333 0.752756 0.607321 0.289002 0.740026 
0.111111 -0.984523 0.111111 0.0624793 -0.995138 0.076133 
0.603827 -0.111111 0.777778 0.631366 -0.0975517 0.769325 
0.555556 -0.111111 0.817393 0.631366 -0.0975517 0.769325 
0.555556 -0.555556 0.614524 0.560084 -0.469627 0.682464 
0.333333 -0.526234 0.777778 0.41618 -0.469628 0.778617 
0.333333 -0.555556 0.760092 0.41618 -0.469628 0.778617 
0.333333 0.753793 0.555556 0.299913 0.771506 0.561098 
0.333333 0.777778 0.522577 0.299913 0.771506 0.561098 
0.271635 -0.777778 0.555556 0.299914 -0.771506 0.561098 
0.333333 0.111111 0.927469 0.288902 0.0975492 0.952376 
0.333333 -0.111111 0.927469 0.2889 -0.0975491 0.952377 
0.111111 0.932905 0.333333 0.0846373 0.956551 0.279011 
0.333333 -0.333333 0.875256 0.277898 -0.289004 0.916106 
0.28657 -0.555556 0.777778 0.25628 -0.46963 0.844848 
0.111111 -0.333333 0.927907 0.0938341 -0.289003 0.952719 
0.111111 -0.555556 0.820534 0.0865387 -0.469628 0.878613 
0.111111 -0.607659 0.777778 0.0759159 -0.632561 0.770781 
0.111111 0.607659 0.777778 0.0759179 0.632561 0.770781 
0.111111 0.111111 0.978113 0.0975461 0.0975521 0.990438 
0.111111 -0.111111 0.978113 0.097547 -0.0975521 0.990438 
-0.111111 -0.333333 0.927906 -0.0938341 -0.289001 0.952719 
-0.111111 -0.555556 0.820534 -0.0865386 -0.469631 0.878611 
-0.111111 0.777778 0.610051 -0.0623614 0.771504 0.633161 
-0.111111 0.607659 0.777778 -0.0759179 0.632561 0.770781 
-0.28657 -0.555556 0.777778 -0.25628 -0.469628 0.844849 
-0.111111 -0.822405 0.555556 -0.184683 -0.771506 0.608827 
-0.333333 0.333333 0.875256 -0.277902 0.288999 0.916106 
-0.333333 -0.111111 0.927469 -0.288904 -0.0975555 0.952375 
-0.111111 0.932905 0.333333 -0.0846373 0.956551 0.279011 
-0.333333 -0.555556 0.760092 -0.41618 -0.469627 0.778617 
-0.271635 0.777778 0.555556 -0.299915 0.771506 0.561097 
-0.333333 -0.753793 0.555556 -0.299914 -0.771505 0.561098 
-0.333333 -0.777778 0.522577 -0.299914 -0.771505 0.561098 
-0.333333 0.526234 0.777778 -0.41618 0.469628 0.778617 
-0.555556 -0.555556 0.614524 -0.560084 -0.469627 0.682464 
-0.555556 0.611372 0.555556 -0.491344 0.632562 0.598704 
-0.111111 -0.984523 0.111111 -0.0624793 -0.995138 0.076133 
-0.603827 -0.111111 0.777778 -0.631366 -0.0975517 0.769325 
-0.555556 -0.111111 0.817393 -0.631366 -0.0975517 0.769325 
-0.525066 -0.333333 0.777778 -0.607323 -0.289002 0.740025 
-0.555556 -0.269262 0.777778 -0.607323 -0.289002 0.740025 
-0.555556 -0.333333 0.752756 -0.607323 -0.289002 0.740025 
-0.752756 0.333333 0.555556 -0.740026 0.289002 0.607321 
-0.777778 0.269262 0.555556 -0.740026 0.289002 0.607321 
-0.777778 0.333333 0.525066 -0.740026 0.289002 0.607321 
-0.111111 0.984523 0.111111 -0.0761321 0.995138 0.0624807 
-0.614524 -0.555556 0.555556 -0.682464 -0.469627 0.560084 
-0.555556 -0.611372 0.555556 -0.598702 -0.632563 0.491346 
-0.760091 -0.555556 0.333333 -0.778618 -0.46963 0.416175 
-0.777778 -0.526233 0.333333 -0.778618 -0.46963 0.416175 
-0.555556 0.777778 0.271635 -0.561102 0.771504 0.29991 
-0.522577 -0.777778 0.333333 -0.561097 -0.771506 0.299914 
-0.555556 -0.753793 0.333333 -0.561097 -0.771506 0.299914 
-0.927469 0.111111 0.333333 -0.952377 0.0975555 0.288895 
-0.927469 -0.111111 0.333333 -0.952376 -0.0975555 0.288899 
-0.333333 0.932904 0.111111 -0.279013 0.95655 0.0846378 
-0.875255 -0.333333 0.333333 -0.916106 -0.289002 0.277897 
-0.777778 -0.555556 0.286567 -0.844849 -0.469626 0.256285 
-0.555556 0.822405 0.111111 -0.608826 0.771505 0.184689 
-0.777778 -0.607659 0.111111 -0.770781 -0.632561 0.0759159 
-0.777778 0.607659 0.111111 -0.770782 0.632561 0.0759131 
-0.978113 0.111111 0.111111 -0.990438 0.0975522 0.0975511 
-0.927906 -0.333333 0.111111 -0.952719 -0.289003 0.0938344 
-0.820534 -0.555556 0.111111 -0.878613 -0.469629 0.0865333 
-0.978113 -0.111111 -0.111111 -0.990438 -0.0975522 -0.0975522 
-0.927906 -0.333333 -0.111111 -0.952718 -0.289005 -0.0938343 
-0.820534 -0.555556 -0.111111 -0.878614 -0.469627 -0.0865339 
-0.610051 0.777778 -0.111111 -0.633159 0.771506 -0.0623616 
-0.777778 0.607659 -0.111111 -0.770782 0.632561 -0.0759136 
-0.555556 -0.822405 -0.111111 -0.608827 -0.771506 -0.184685 
-0.875255 0.333333 -0.333333 -0.916106 0.289004 -0.277897 
-0.333333 0.932904 -0.111111 -0.279012 0.95655 -0.0846388 
-0.777778 -0.555556 -0.286566 -0.844847 -0.46963 -0.256285 
-0.760091 -0.555556 -0.333333 -0.778615 -0.469633 -0.416178 
-0.522577 0.777778 -0.333333 -0.5611 0.771505 -0.299912 
-0.555556 0.753793 -0.333333 -0.5611 0.771505 -0.299912 
-0.555556 -0.777778 -0.271634 -0.5611 -0.771505 -0.299912 
-0.777778 0.526232 -0.333333 -0.778618 0.46963 -0.416176 
-0.817392 0.111111 -0.555556 -0.769322 0.0975477 -0.63137 
-0.777778 0.111111 -0.603826 -0.769322 0.0975477 -0.63137 
-0.752756 -0.333333 -0.555556 -0.740022 -0.289002 -0.607326 
-0.777778 -0.269261 -0.555556 -0.740022 -0.289002 -0.607326 
-0.777778 -0.333333 -0.525066 -0.740022 -0.289002 -0.607326 
-0.614522 -0.555556 -0.555556 -0.682462 -0.46963 -0.560083 
-0.333333 0.876457 -0.333333 -0.300175 0.880971 -0.365765 
-0.555556 -0.555556 -0.614522 -0.560083 -0.46963 -0.682462 
-0.555556 -0.611371 -0.555556 -0.491342 -0.632558 -0.59871 
-0.333333 -0.876457 -0.333333 -0.300172 -0.880971 -0.365768 
-0.525065 0.333333 -0.777778 -0.607324 0.289002 -0.740024 
-0.555556 0.269259 -0.777778 -0.607324 0.289002 -0.740024 
-0.555556 0.333333 -0.752755 -0.607324 0.289002 -0.740024 
-0.603825 0.111111 -0.777778 -0.631369 0.0975516 -0.769322 
-0.555556 0.111111 -0.817392 -0.631369 0.0975516 -0.769322 
-0.111111 0.984523 -0.111111 -0.0624793 0.995138 -0.076133 
-0.111111 -0.984523 -0.111111 -0.0624796 -0.995138 -0.0761333 
-0.333333 -0.526232 -0.777778 -0.416179 -0.46963 -0.778616 
-0.333333 -0.555556 -0.760091 -0.416179 -0.46963 -0.778616 
-0.271634 0.777778 -0.555556 -0.299915 0.771505 -0.561098 
-0.333333 -0.753792 -0.555556 -0.299912 -0.771505 -0.561099 
-0.333333 -0.777778 -0.522576 -0.299912 -0.771505 -0.561099 
-0.333333 -0.333333 -0.875255 -0.277898 -0.289004 -0.916106 
-0.286566 -0.555556 -0.777778 -0.256279 -0.469632 -0.844847 
-0.333333 0.111111 -0.927468 -0.288901 0.0975495 -0.952376 
-0.333333 -0.111111 -0.927468 -0.288898 -0.0975494 -0.952377 
-0.111111 0.932904 -0.333333 -0.0846377 0.95655 -0.279012 
-0.111111 -0.111111 -0.978113 -0.0975527 -0.0975527 -0.990438 
-0.111111 -0.333333 -0.927906 -0.0938344 -0.289002 -0.952719 
-0.111111 -0.555556 -0.820533 -0.0865392 -0.469628 -0.878613 
-0.111111 -0.607658 -0.777778 -0.0759106 -0.632557 -0.770785 
-0.111111 -0.777778 -0.610051 -0.0623603 -0.771506 -0.633159 
0.111111 0.333333 -0.927906 0.0938392 0.289007 -0.952717 
0.111111 0.111111 -0.978113 0.097547 0.097547 -0.990439 
0.111111 -0.111111 -0.978113 0.0975512 -0.0975471 -0.990438 
0.111111 0.777778 -0.610051 0.0623602 0.771506 -0.633158 
0.111111 -0.607659 -0.777778 0.0759131 -0.632561 -0.770782 
0.111111 0.607659 -0.777778 0.0759159 0.632561 -0.770781 
0.111111 -0.777778 -0.610051 0.0623566 -0.771506 -0.633159 
0.111111 0.555556 -0.820534 0.0865388 0.469627 -0.878613 
0.28657 0.555556 -0.777778 0.25628 0.469625 -0.844851 
0.333333 0.333333 -0.875255 0.277898 0.289004 -0.916106 
0.111111 -0.932904 -0.333333 0.0846377 -0.95655 -0.279012 
0.333333 0.111111 -0.927469 0.288904 0.0975509 -0.952375 
0.333333 -0.526234 -0.777778 0.416179 -0.469626 -0.778618 
0.333333 0.753794 -0.555556 0.299914 0.771506 -0.561097 
0.333333 0.777778 -0.522577 0.299914 0.771506 -0.561097 
0.333333 -0.753793 -0.555556 0.299909 -0.771506 -0.5611 
0.333333 -0.777778 -0.522577 0.299909 -0.771506 -0.5611 
0.333333 0.555556 -0.760092 0.41618 0.469627 -0.778617 
0.555556 0.555556 -0.614524 0.560084 0.469627 -0.682464 
0.333333 -0.876458 -0.333333 0.300175 -0.880972 -0.365764 
0.603826 0.111111 -0.777778 0.631366 0.0975477 -0.769325 
0.555556 0.111111 -0.817392 0.631366 0.0975477 -0.769325 
0.333333 0.876458 -0.333333 0.300178 0.880972 -0.365761 
0.555556 -0.611372 -0.555556 0.491344 -0.632562 -0.598704 
0.555556 0.611372 -0.555556 0.491346 0.632563 -0.598702 
0.752756 -0.333333 -0.555556 0.740026 -0.289002 -0.607321 
0.777778 -0.269262 -0.555556 0.740026 -0.289002 -0.607321 
0.777778 -0.333333 -0.525066 0.740026 -0.289002 -0.607321 
0.555556 0.611372 -0.555556 0.598704 0.632562 -0.491343 
0.614524 0.555556 -0.555556 0.682464 0.469627 -0.560084 
0.752756 0.333333 -0.555556 0.740025 0.289002 -0.607323 
0.777778 0.269262 -0.555556 0.740025 0.289002 -0.607323 
0.777778 0.333333 -0.525066 0.740025 0.289002 -0.607323 
0.817393 -0.111111 -0.555556 0.769324 -0.0975517 -0.631367 
0.777778 -0.111111 -0.603827 0.769324 -0.0975517 -0.631367 
0.555556 0.777778 -0.271635 0.561098 0.771507 -0.299911 
0.555556 -0.777778 -0.271635 0.561096 -0.771507 -0.299914 
0.760092 0.555556 -0.333333 0.778617 0.46963 -0.416177 
0.777778 0.526234 -0.333333 0.778617 0.46963 -0.416177 
0.555556 -0.822405 -0.111111 0.608827 -0.771506 -0.184683 
0.777778 0.555556 -0.286569 0.844847 0.469632 -0.256279 
0.875256 0.333333 -0.333333 0.916106 0.289004 -0.277898 
0.333333 -0.932904 -0.111111 0.279012 -0.95655 -0.0846349 
0.927907 0.333333 -0.111111 0.952719 0.289002 -0.0938341 
0.978113 -0.111111 -0.111111 0.990438 -0.0975476 -0.0975512 
0.610051 -0.777778 -0.111111 0.633159 -0.771506 -0.0623616 
0.820534 0.555556 -0.111111 0.878613 0.469628 -0.0865393 
0.610051 0.777778 0.111111 0.633159 0.771506 0.0623597 
0.777778 -0.607659 0.111111 0.770781 -0.632561 0.0759179 
0.820534 0.555556 0.111111 0.878611 0.469631 0.0865386 
0.927906 0.333333 0.111111 0.952719 0.289001 0.0938341 
0.978113 0.111111 0.111111 0.990439 0.0975475 0.097547 
0.978113 -0.111111 0.111111 0.990438 -0.0975476 0.0975507 
0.333333 -0.932904 0.111111 0.279012 -0.95655 0.0846377 
0.927469 0.111111 0.333333 0.952375 0.097554 0.288903 
0.927469 -0.111111 0.333333 0.952377 -0.097554 0.288897 
0.875256 -0.333333 0.333333 0.916106 -0.288999 0.277901 
0.777778 0.555556 0.28657 0.844848 0.46963 0.25628 
0.522578 0.777778 0.333333 0.561099 0.771505 0.299912 
0.555556 0.753794 0.333333 0.561099 0.771505 0.299912 
0.555556 -0.777778 0.271635 0.561098 -0.771506 0.299913 
0.760092 0.555556 0.333333 0.778617 0.469627 0.41618 
0.777778 -0.526234 0.333333 0.778615 -0.46963 0.416182 
0.333333 0.876458 0.333333 0.365763 0.880972 0.300175 
0.555556 -0.611372 0.555556 0.598704 -0.632562 0.491344 
0.555556 0.611372 0.555556 0.598702 0.632563 0.491346 
0.614524 0.555556 0.555556 0.682463 0.46963 0.560083 
0.333333 -0.876458 0.333333 0.365763 -0.880973 0.300173 
0.752756 0.333333 0.555556 0.740027 0.289002 0.607321 
0.777778 0.269262 0.555556 0.740027 0.289002 0.607321 
0.777778 0.333333 0.525066 0.740027 0.289002 0.607321 
0.555556 0.611372 0.555556 0.491346 0.632563 0.598702 
0.555556 0.555556 0.614524 0.560084 0.469627 0.682464 
0.603827 0.111111 0.777778 0.631366 0.0975517 0.769325 
0.555556 0.111111 0.817393 0.631366 0.0975517 0.769325 
0.525066 -0.333333 0.777778 0.607321 -0.289002 0.740026 
0.555556 -0.269262 0.777778 0.607321 -0.289002 0.740026 
0.555556 -0.333333 0.752756 0.607321 -0.289002 0.740026 
0.271635 0.777778 0.555556 0.299914 0.771506 0.561098 
0.333333 -0.753793 0.555556 0.299913 -0.771506 0.561098 
0.333333 -0.777778 0.522577 0.299913 -0.771506 0.561098 
0.333333 0.526234 0.777778 0.41618 0.469628 0.778617 
0.333333 0.555556 0.760092 0.41618 0.469628 0.778617 
0.111111 -0.822405 0.555556 0.184684 -0.771506 0.608827 
0.28657 0.555556 0.777778 0.25628 0.46963 0.844848 
0.333333 0.333333 0.875256 0.277898 0.289004 0.916106 
0.111111 -0.932905 0.333333 0.0846373 -0.956551 0.279011 
0.111111 0.822406 0.555556 0.18469 0.771504 0.608828 
0.111111 0.777778 0.610051 0.0623604 0.771504 0.633161 
0.111111 -0.777778 0.610051 0.0623611 -0.771506 0.633158 
0.111111 0.555556 0.820534 0.0865387 0.469628 0.878613 
0.111111 0.333333 0.927907 0.0938341 0.289003 0.952719 
-0.111111 0.555556 0.820534 -0.0865386 0.469631 0.878611 
-0.111111 0.333333 0.927906 -0.0938341 0.289001 0.952719 
-0.111111 0.111111 0.978113 -0.097547 0.0975521 0.990438 
-0.111111 -0.111111 0.978113 -0.0975461 -0.0975521 0.990438 
-0.111111 -0.607659 0.777778 -0.0759179 -0.632561 0.770781 
-0.111111 -0.777778 0.610051 -0.0623612 -0.771506 0.633158 
-0.333333 -0.333333 0.875256 -0.277902 -0.288999 0.916106 
-0.111111 0.822406 0.555556 -0.18469 0.771504 0.608828 
-0.28657 0.555556 0.777778 -0.25628 0.469628 0.844849 
-0.111111 -0.932905 0.333333 -0.0846373 -0.956551 0.279011 
-0.333333 0.111111 0.927469 -0.288904 0.0975555 0.952375 
-0.333333 -0.526234 0.777778 -0.41618 -0.469628 0.778617 
-0.333333 0.753793 0.555556 -0.299914 0.771505 0.561098 
-0.333333 0.777778 0.522577 -0.299914 0.771505 0.561098 
-0.271635 -0.777778 0.555556 -0.299915 -0.771506 0.561097 
-0.333333 0.555556 0.760092 -0.41618 0.469627 0.778617 
-0.333333 0.876458 0.333333 -0.300177 0.880973 0.36576 
-0.555556 -0.611372 0.555556 -0.491344 -0.632562 0.598704 
-0.555556 0.555556 0.614524 -0.560084 0.469627 0.682464 
-0.525066 0.333333 0.777778 -0.607323 0.289002 0.740025 
-0.555556 0.269262 0.777778 -0.607323 0.289002 0.740025 
-0.555556 0.333333 0.752756 -0.607323 0.289002 0.740025 
-0.603827 0.111111 0.777778 -0.631366 0.0975517 0.769325 
-0.555556 0.111111 0.817393 -0.631366 0.0975517 0.769325 
-0.817393 0.111111 0.555556 -0.769325 0.0975517 0.631366 
-0.777778 0.111111 0.603827 -0.769325 0.0975517 0.631366 
-0.817393 -0.111111 0.555556 -0.769324 -0.0975517 0.631367 
-0.777778 -0.111111 0.603827 -0.769324 -0.0975517 0.631367 
-0.752756 -0.333333 0.555556 -0.740026 -0.289002 0.607321 
-0.777778 -0.269262 0.555556 -0.740026 -0.289002 0.607321 
-0.777778 -0.333333 0.525066 -0.740026 -0.289002 0.607321 
-0.555556 0.611372 0.555556 -0.598702 0.632563 0.491346 
-0.614524 0.555556 0.555556 -0.682464 0.469627 0.560084 
-0.333333 -0.876458 0.333333 -0.365764 -0.880972 0.300175 
-0.522578 0.777778 0.333333 -0.561099 0.771505 0.299912 
-0.555556 0.753794 0.333333 -0.561099 0.771505 0.299912 
-0.555556 -0.777778 0.271635 -0.561102 -0.771504 0.29991 
-0.760091 0.555556 0.333333 -0.778618 0.46963 0.416175 
-0.777778 0.526233 0.333333 -0.778618 0.46963 0.416175 
-0.333333 -0.932904 0.111111 -0.279013 -0.95655 0.0846378 
-0.555556 -0.822405 0.111111 -0.608826 -0.771505 0.184689 
-0.777778 0.555556 0.286567 -0.844849 0.469626 0.256285 
-0.875255 0.333333 0.333333 -0.916106 0.289002 0.277897 
-0.610051 -0.777778 0.111111 -0.633159 -0.771506 0.0623611 
-0.820534 0.555556 0.111111 -0.878613 0.469629 0.0865333 
-0.927906 0.333333 0.111111 -0.952719 0.289003 0.0938344 
-0.978113 -0.111111 0.111111 -0.990438 -0.0975522 0.0975511 
-0.610051 0.777778 0.111111 -0.633159 0.771506 0.0623597 
-0.777778 -0.607659 -0.111111 -0.770782 -0.632561 -0.0759136 
-0.610051 -0.777778 -0.111111 -0.633159 -0.771506 -0.0623616 
-0.820534 0.555556 -0.111111 -0.878614 0.469627 -0.0865339 
-0.927906 0.333333 -0.111111 -0.952718 0.289005 -0.0938343 
-0.978113 0.111111 -0.111111 -0.990438 0.0975522 -0.0975522 
-0.777778 0.555556 -0.286566 -0.844847 0.46963 -0.256285 
-0.333333 -0.932904 -0.111111 -0.279012 -0.95655 -0.0846387 
-0.927468 0.111111 -0.333333 -0.952377 0.0975494 -0.2889 
-0.927468 -0.111111 -0.333333 -0.952376 -0.0975495 -0.288901 
-0.875255 -0.333333 -0.333333 -0.916106 -0.289004 -0.277897 
-0.555556 0.822405 -0.111111 -0.608827 0.771506 -0.184685 
-0.777778 -0.526232 -0.333333 -0.778618 -0.46963 -0.416176 
-0.555556 0.777778 -0.271634 -0.5611 0.771505 -0.299912 
-0.522577 -0.777778 -0.333333 -0.5611 -0.771505 -0.299912 
-0.555556 -0.753793 -0.333333 -0.5611 -0.771505 -0.299912 
-0.760091 0.555556 -0.333333 -0.778615 0.469633 -0.416178 
-0.614522 0.555556 -0.555556 -0.682462 0.46963 -0.560083 
-0.333333 -0.876457 -0.333333 -0.365763 -0.880972 -0.300178 
-0.752756 0.333333 -0.555556 -0.740022 0.289002 -0.607326 
-0.777778 0.269261 -0.555556 -0.740022 0.289002 -0.607326 
-0.777778 0.333333 -0.525066 -0.740022 0.289002 -0.607326 
-0.817392 -0.111111 -0.555556 -0.769322 -0.0975477 -0.63137 
-0.777778 -0.111111 -0.603826 -0.769322 -0.0975477 -0.63137 
-0.333333 0.876457 -0.333333 -0.365765 0.880971 -0.300176 
-0.525065 -0.333333 -0.777778 -0.607324 -0.289002 -0.740024 
-0.555556 -0.269259 -0.777778 -0.607324 -0.289002 -0.740024 
-0.555556 -0.333333 -0.752755 -0.607324 -0.289002 -0.740024 
-0.555556 0.611371 -0.555556 -0.491342 0.632558 -0.59871 
-0.555556 0.555556 -0.614522 -0.560083 0.46963 -0.682462 
-0.603825 -0.111111 -0.777778 -0.631369 -0.0975516 -0.769322 
-0.555556 -0.111111 -0.817392 -0.631369 -0.0975516 -0.769322 
-0.333333 0.526232 -0.777778 -0.416179 0.46963 -0.778616 
-0.333333 0.555556 -0.760091 -0.416179 0.46963 -0.778616 
-0.333333 0.753793 -0.555556 -0.299916 0.771505 -0.561097 
-0.333333 0.777778 -0.522576 -0.299916 0.771505 -0.561097 
-0.271633 -0.777778 -0.555556 -0.299914 -0.771507 -0.561096 
-0.111111 0.822405 -0.555556 -0.184685 0.771506 -0.608826 
-0.111111 -0.822405 -0.555556 -0.184688 -0.771506 -0.608826 
-0.286565 0.555556 -0.777778 -0.256279 0.469632 -0.844847 
-0.333333 0.333333 -0.875255 -0.277898 0.289004 -0.916106 
-0.111111 -0.932904 -0.333333 -0.0846389 -0.95655 -0.279012 
-0.111111 0.333333 -0.927906 -0.0938394 0.289002 -0.952718 
-0.111111 0.111111 -0.978113 -0.0975527 0.0975527 -0.990438 
-0.111111 0.777778 -0.610051 -0.0623603 0.771506 -0.633159 
-0.111111 0.607658 -0.777778 -0.0759162 0.632557 -0.770784 
-0.111111 0.555556 -0.820533 -0.0865445 0.469631 -0.87861 
