ply
format ascii 1.0
comment Generated by InterDigital model processor
element vertex 81
property float x
property float y
property float z
property float nx
property float ny
property float nz
property uchar red
property uchar green
property uchar blue
end_header
-5 -5 0 0 0 -1 0 162 232
-5 5 0 0 0 -1 237 28 36
0 0 0 0 0 -1 34 177 76
-5 0 0 0 0 -1 237 28 36
-2.5 2.5 0 0 0 -1 237 28 36
-2.5 -2.5 0 0 0 -1 0 162 232
-3.75 1.25 0 0 0 -1 237 28 36
-2.5 0 0 0 0 -1 237 28 36
-3.75 -1.25 0 0 0 -1 0 162 232
-3.75 0 0 0 0 -1 237 28 36
-2.5 1.25 0 0 0 -1 237 28 36
-2.5 -1.25 0 0 -0 -1 0 162 232
-5 -2.5 0 0 0 -1 0 162 232
-3.75 -3.75 0 0 0 -1 0 162 232
-3.75 -2.5 0 0 0 -1 0 162 232
-5 -3.75 0 0 0 -1 0 162 232
-5 -1.25 0 0 0 -1 0 162 232
-5 2.5 0 0 0 -1 237 28 36
-3.75 3.75 0 0 0 -1 237 28 36
-3.75 2.5 0 0 0 -1 237 28 36
-5 1.25 0 0 0 -1 237 28 36
-5 3.75 0 0 0 -1 237 28 36
-1.25 1.25 0 0 0 -1 237 28 36
-1.25 -1.25 0 0 0 -1 0 162 232
-1.25 0 0 0 -0 -1 237 28 36
5 5 0 0 0 -1 34 177 76
0 5 0 0 0 -1 34 177 76
2.5 2.5 0 0 0 -1 34 177 76
1.25 3.75 0 0 -0 -1 34 177 76
0 2.5 0 0 -0 -1 34 177 76
-1.25 3.75 0 0 -0 -1 237 28 36
0 3.75 0 -0 0 -1 34 177 76
1.25 2.5 0 0 -0 -1 34 177 76
-1.25 2.5 0 0 0 -1 237 28 36
-2.5 5 0 0 0 -1 237 28 36
-2.5 3.75 0 0 -0 -1 237 28 36
-3.75 5 0 0 0 -1 237 28 36
-1.25 5 0 0 0 -1 237 28 36
2.5 5 0 0 0 -1 34 177 76
3.75 3.75 0 0 0 -1 34 177 76
2.5 3.75 0 0 -0 -1 34 177 76
1.25 5 0 0 0 -1 34 177 76
3.75 5 0 0 0 -1 34 177 76
1.25 1.25 0 -0 0 -1 34 177 76
0 1.25 0 0 0 -1 34 177 76
5 -5 0 0 -0 -1 255 255 255
5 0 0 0 -0 -1 34 177 76
2.5 -2.5 0 0 -0 -1 255 255 255
3.75 -1.25 0 -0 0 -1 255 255 255
2.5 0 0 -0 0 -1 34 177 76
3.75 1.25 0 -0 0 -1 34 177 76
3.75 0 0 0 0 -1 34 177 76
2.5 -1.25 0 -0 0 -1 255 255 255
2.5 1.25 0 0 0 -1 34 177 76
5 2.5 0 0 -0 -1 34 177 76
3.75 2.5 0 -0 0 -1 34 177 76
5 3.75 0 0 -0 -1 34 177 76
5 1.25 0 0 -0 -1 34 177 76
5 -2.5 0 0 -0 -1 255 255 255
3.75 -3.75 0 0 -0 -1 255 255 255
3.75 -2.5 0 -0 0 -1 255 255 255
5 -1.25 0 0 -0 -1 255 255 255
5 -3.75 0 0 -0 -1 255 255 255
1.25 -1.25 0 0 0 -1 255 255 255
1.25 0 0 0 0 -1 34 177 76
0 -5 0 0 0 -1 255 255 255
-1.25 -3.75 0 0 0 -1 0 162 232
0 -2.5 0 0 0 -1 255 255 255
1.25 -3.75 0 0 0 -1 255 255 255
0 -3.75 0 0 0 -1 255 255 255
-1.25 -2.5 0 0 0 -1 0 162 232
1.25 -2.5 0 0 0 -1 255 255 255
2.5 -5 0 0 0 -1 255 255 255
2.5 -3.75 0 0 0 -1 255 255 255
3.75 -5 0 0 0 -1 255 255 255
1.25 -5 0 0 0 -1 255 255 255
-2.5 -5 0 0 0 -1 0 162 232
-2.5 -3.75 0 0 0 -1 0 162 232
-1.25 -5 0 0 0 -1 0 162 232
-3.75 -5 0 0 0 -1 0 162 232
0 -1.25 0 0 0 -1 255 255 255
