ply
format ascii 1.0
comment Generated by InterDigital model processor
element vertex 145
property float x
property float y
property float z
property float nx
property float ny
property float nz
property uchar red
property uchar green
property uchar blue
end_header
-5 -5 0 0 0 -1 0 162 232
-5 5 0 0 0 -1 237 28 36
0 0 0 0 0 -1 34 177 76
-5 0 0 0 0 -1 237 28 36
-2.5 2.5 0 0 0 -1 136 103 56
-2.5 -2.5 0 0 0 -1 132 156 150
-3.75 1.25 0 0 0 -1 186 65 46
-2.5 0 0 0 0 -1 136 103 56
-3.75 -1.25 0 0 0 -1 156 95 94
-3.125 0.625 0 0 0 -1 161 84 51
-3.125 -0.625 0 0 0 -1 153 98 75
-3.75 0 0 0 0 -1 186 65 46
-4.375 0.625 0 0 0 -1 212 47 41
-4.375 -0.625 0 0 0 -1 189 63 65
-3.125 1.875 0 0 0 -1 161 84 51
-2.5 1.25 0 0 0 -1 136 103 56
-2.5 -1.25 0 0 -0 -1 134 129 103
-3.125 -1.875 0 0 -0 -1 136 126 122
-5 -2.5 0 0 0 -1 119 95 134
-3.75 -3.75 0 0 0 -1 94 155 190
-4.375 -1.875 0 0 0 -1 144 94 114
-3.75 -2.5 0 0 0 -1 125 125 142
-4.375 -3.125 0 0 0 -1 99 126 162
-5 -3.75 0 0 0 -1 59 129 183
-4.375 -4.375 0 0 0 -1 54 158 211
-5 -1.25 0 0 0 -1 178 62 85
-3.125 -3.125 0 0 0 -1 120 155 170
-5 2.5 0 0 0 -1 237 28 36
-3.75 3.75 0 0 0 -1 186 65 46
-4.375 3.125 0 0 0 -1 212 47 41
-3.75 2.5 0 0 0 -1 186 65 46
-4.375 1.875 0 0 0 -1 212 47 41
-5 1.25 0 0 0 -1 237 28 36
-5 3.75 0 0 0 -1 237 28 36
-4.375 4.375 0 0 0 -1 212 47 41
-3.125 3.125 0 0 0 -1 161 84 51
-1.25 1.25 0 0 0 -1 85 140 66
-1.25 -1.25 0 0 0 -1 111 163 112
-1.25 0 0 0 -0 -1 85 140 66
-1.875 -0.625 0 0 -0 -1 116 134 84
-1.875 0.625 0 0 -0 -1 110 121 61
-1.875 1.875 0 0 0 -1 110 121 61
-0.625 0.625 0 0 0 -1 59 158 71
-0.625 -0.625 0 0 0 -1 80 169 94
-1.875 -1.875 0 -0 0 -1 129 158 131
5 5 0 0 0 -1 34 177 76
0 5 0 0 0 -1 34 177 76
2.5 2.5 0 0 0 -1 34 177 76
1.25 3.75 0 0 -0 -1 34 177 76
0 2.5 0 0 -0 -1 34 177 76
-1.25 3.75 0 0 -0 -1 85 140 66
0.625 3.125 0 -0 0 -1 34 177 76
-0.625 3.125 0 -0 0 -1 59 158 71
0 3.75 0 -0 0 -1 34 177 76
0.625 4.375 0 0 -0 -1 34 177 76
-0.625 4.375 0 0 -0 -1 59 158 71
1.875 3.125 0 0 -0 -1 34 177 76
1.25 2.5 0 0 -0 -1 34 177 76
-1.25 2.5 0 0 0 -1 85 140 66
-1.875 3.125 0 0 0 -1 110 121 61
-2.5 5 0 0 0 -1 136 103 56
-1.875 4.375 0 0 -0 -1 110 121 61
-2.5 3.75 0 0 -0 -1 136 103 56
-3.125 4.375 0 0 -0 -1 161 84 51
-3.75 5 0 0 0 -1 186 65 46
-1.25 5 0 0 0 -1 85 140 66
2.5 5 0 0 0 -1 34 177 76
3.75 3.75 0 0 0 -1 34 177 76
3.125 4.375 0 0 -0 -1 34 177 76
2.5 3.75 0 0 -0 -1 34 177 76
1.875 4.375 0 0 -0 -1 34 177 76
1.25 5 0 0 0 -1 34 177 76
3.75 5 0 0 0 -1 34 177 76
4.375 4.375 0 0 0 -1 34 177 76
3.125 3.125 0 -0 0 -1 34 177 76
1.25 1.25 0 -0 0 -1 34 177 76
0 1.25 0 0 0 -1 34 177 76
-0.625 1.875 0 0 0 -1 59 158 71
0.625 1.875 0 0 0 -1 34 177 76
1.875 1.875 0 -0 0 -1 34 177 76
0.625 0.625 0 -0 0 -1 34 177 76
5 -5 0 0 -0 -1 255 255 255
5 0 0 0 -0 -1 34 177 76
2.5 -2.5 0 0 -0 -1 145 216 166
3.75 -1.25 0 -0 0 -1 89 197 121
2.5 0 0 -0 0 -1 34 177 76
3.75 1.25 0 -0 0 -1 34 177 76
3.125 -0.625 0 0 0 -1 62 187 98
3.125 0.625 0 0 0 -1 34 177 76
3.75 0 0 0 0 -1 34 177 76
4.375 -0.625 0 -0 0 -1 62 187 98
4.375 0.625 0 -0 0 -1 34 177 76
3.125 -1.875 0 -0 0 -1 117 206 143
2.5 -1.25 0 -0 0 -1 89 197 121
2.5 1.25 0 0 0 -1 34 177 76
3.125 1.875 0 0 0 -1 34 177 76
5 2.5 0 0 -0 -1 34 177 76
4.375 1.875 0 -0 0 -1 34 177 76
3.75 2.5 0 -0 0 -1 34 177 76
4.375 3.125 0 -0 0 -1 34 177 76
5 3.75 0 0 -0 -1 34 177 76
5 1.25 0 0 -0 -1 34 177 76
5 -2.5 0 0 -0 -1 145 216 166
3.75 -3.75 0 0 -0 -1 200 236 210
4.375 -3.125 0 -0 0 -1 172 226 188
3.75 -2.5 0 -0 0 -1 145 216 166
4.375 -1.875 0 -0 0 -1 117 206 143
5 -1.25 0 0 -0 -1 89 197 121
5 -3.75 0 0 -0 -1 200 236 210
4.375 -4.375 0 0 -0 -1 227 245 233
3.125 -3.125 0 0 0 -1 172 226 188
1.25 -1.25 0 0 0 -1 89 197 121
1.25 0 0 0 0 -1 34 177 76
1.875 0.625 0 0 0 -1 34 177 76
1.875 -0.625 0 0 0 -1 62 187 98
1.875 -1.875 0 0 0 -1 117 206 143
0.625 -0.625 0 0 0 -1 62 187 98
0 -5 0 0 0 -1 255 255 255
-1.25 -3.75 0 0 0 -1 165 209 203
0 -2.5 0 0 0 -1 145 216 166
1.25 -3.75 0 0 0 -1 200 236 210
-0.625 -3.125 0 0 0 -1 162 212 184
0.625 -3.125 0 0 0 -1 172 226 188
0 -3.75 0 0 0 -1 200 236 210
-0.625 -4.375 0 0 0 -1 203 233 229
0.625 -4.375 0 0 0 -1 227 245 233
-1.875 -3.125 0 0 0 -1 141 183 177
-1.25 -2.5 0 0 0 -1 138 186 158
1.25 -2.5 0 0 0 -1 145 216 166
1.875 -3.125 0 0 0 -1 172 226 188
2.5 -5 0 0 0 -1 255 255 255
1.875 -4.375 0 0 0 -1 227 245 233
2.5 -3.75 0 0 0 -1 200 236 210
3.125 -4.375 0 0 0 -1 227 245 233
3.75 -5 0 0 0 -1 255 255 255
1.25 -5 0 0 0 -1 255 255 255
-2.5 -5 0 0 0 -1 128 209 244
-3.125 -4.375 0 0 0 -1 104 183 217
-2.5 -3.75 0 0 0 -1 130 182 197
-1.875 -4.375 0 0 0 -1 153 208 223
-1.25 -5 0 0 0 -1 191 232 249
-3.75 -5 0 0 0 -1 64 185 238
0 -1.25 0 0 0 -1 89 197 121
0.625 -1.875 0 0 0 -1 117 206 143
-0.625 -1.875 0 0 0 -1 121 190 139
