ply
format ascii 1.0
comment Generated by InterDigital model processor
element vertex 116
property float x
property float y
property float z
property float nx
property float ny
property float nz
property uchar red
property uchar green
property uchar blue
end_header
-5 -5 0 0 0 -1 0 162 232
-5 -3.88889 0 0 0 -1 0 162 232
-5 -2.77778 0 0 0 -1 0 162 232
-5 -1.66667 0 0 0 -1 0 162 232
-5 -0.555555 0 0 0 -1 0 162 232
-5 0.555556 0 0 0 -1 0 162 232
-5 1.66667 0 0 0 -1 0 162 232
-5 2.77778 0 0 0 -1 237 28 36
-5 3.88889 0 0 0 -1 237 28 36
-5 5 0 0 0 -1 237 28 36
-3.88889 -3.88889 0 0 0 -1 0 162 232
-3.88889 -2.77778 0 0 0 -1 0 162 232
-3.88889 -1.66667 0 0 0 -1 0 162 232
-3.88889 -0.555555 0 0 0 -1 0 162 232
-3.88889 0.555556 0 0 0 -1 0 162 232
-3.88889 1.66667 0 0 0 -1 0 162 232
-3.88889 2.77778 0 0 0 -1 237 28 36
-3.88889 3.88889 0 0 0 -1 237 28 36
-2.77778 -2.77778 0 0 0 -1 0 162 232
-2.77778 -1.66667 0 0 0 -1 0 162 232
-2.77778 -0.555555 0 0 0 -1 0 162 232
-2.77778 0.555556 0 0 0 -1 0 162 232
-2.77778 1.66667 0 0 0 -1 0 162 232
-2.77778 2.77778 0 0 0 -1 237 28 36
-1.66667 -1.66667 0 0 0 -1 0 162 232
-1.66667 -0.555555 0 0 0 -1 0 162 232
-1.66667 0.555556 0 0 0 -1 0 162 232
-1.66667 1.66667 0 0 0 -1 0 162 232
-0.555555 -0.555555 0 0 0 -1 0 162 232
-0.555555 0.555556 0 0 0 -1 0 162 232
-5 5 0 0 0 -1 237 28 36
-3.88889 3.88889 0 0 0 -1 237 28 36
-3.88889 5 0 0 0 -1 237 28 36
-2.77778 2.77778 0 0 0 -1 237 28 36
-2.77778 3.88889 0 0 0 -1 237 28 36
-2.77778 5 0 0 0 -1 237 28 36
-1.66667 1.66667 0 0 0 -1 0 162 232
-1.66667 2.77778 0 0 0 -1 237 28 36
-1.66667 3.88889 0 0 0 -1 237 28 36
-1.66667 5 0 0 0 -1 237 28 36
-0.555555 0.555556 0 0 0 -1 0 162 232
-0.555555 1.66667 0 0 0 -1 0 162 232
-0.555555 2.77778 0 0 0 -1 237 28 36
-0.555555 3.88889 0 0 0 -1 237 28 36
-0.555555 5 0 0 0 -1 237 28 36
0.555556 0.555556 0 0 0 -1 0 162 232
0.555556 1.66667 0 0 0 -1 0 162 232
0.555556 2.77778 0 0 0 -1 237 28 36
0.555556 3.88889 0 0 0 -1 237 28 36
0.555556 5 0 0 0 -1 237 28 36
1.66667 1.66667 0 0 0 -1 0 162 232
1.66667 2.77778 0 0 0 -1 237 28 36
1.66667 3.88889 0 0 0 -1 237 28 36
1.66667 5 0 0 0 -1 237 28 36
2.77778 2.77778 0 0 0 -1 34 177 76
2.77778 3.88889 0 0 0 -1 34 177 76
2.77778 5 0 0 0 -1 34 177 76
3.88889 3.88889 0 0 0 -1 34 177 76
3.88889 5 0 0 0 -1 34 177 76
5 5 0 0 0 -1 34 177 76
0.555556 -0.555555 0 0 -0 -1 0 162 232
0.555556 0.555556 0 0 -0 -1 0 162 232
1.66667 -1.66667 0 0 -0 -1 0 162 232
1.66667 -0.555555 0 0 -0 -1 0 162 232
1.66667 0.555556 0 0 -0 -1 0 162 232
1.66667 1.66667 0 0 -0 -1 0 162 232
2.77778 -2.77778 0 0 -0 -1 255 255 255
2.77778 -1.66667 0 0 -0 -1 255 255 255
2.77778 -0.555555 0 0 -0 -1 255 255 255
2.77778 0.555556 0 0 -0 -1 255 255 255
2.77778 1.66667 0 0 -0 -1 255 255 255
2.77778 2.77778 0 0 -0 -1 34 177 76
3.88889 -3.88889 0 0 -0 -1 255 255 255
3.88889 -2.77778 0 0 -0 -1 255 255 255
3.88889 -1.66667 0 0 -0 -1 255 255 255
3.88889 -0.555555 0 0 -0 -1 255 255 255
3.88889 0.555556 0 0 -0 -1 255 255 255
3.88889 1.66667 0 0 -0 -1 255 255 255
3.88889 2.77778 0 0 -0 -1 34 177 76
3.88889 3.88889 0 0 -0 -1 34 177 76
5 -5 0 0 -0 -1 255 255 255
5 -3.88889 0 0 -0 -1 255 255 255
5 -2.77778 0 0 -0 -1 255 255 255
5 -1.66667 0 0 -0 -1 255 255 255
5 -0.555555 0 0 -0 -1 255 255 255
5 0.555556 0 0 -0 -1 255 255 255
5 1.66667 0 0 -0 -1 255 255 255
5 2.77778 0 0 -0 -1 34 177 76
5 3.88889 0 0 -0 -1 34 177 76
5 5 0 0 -0 -1 34 177 76
-5 -5 0 0 0 -1 0 162 232
-3.88889 -5 0 0 0 -1 0 162 232
-3.88889 -3.88889 0 0 0 -1 0 162 232
-2.77778 -5 0 0 0 -1 0 162 232
-2.77778 -3.88889 0 0 0 -1 0 162 232
-2.77778 -2.77778 0 0 0 -1 0 162 232
-1.66667 -5 0 0 0 -1 0 162 232
-1.66667 -3.88889 0 0 0 -1 0 162 232
-1.66667 -2.77778 0 0 0 -1 0 162 232
-1.66667 -1.66667 0 0 0 -1 0 162 232
-0.555555 -5 0 0 0 -1 0 162 232
-0.555555 -3.88889 0 0 0 -1 0 162 232
-0.555555 -2.77778 0 0 0 -1 0 162 232
-0.555555 -1.66667 0 0 0 -1 0 162 232
-0.555555 -0.555555 0 0 0 -1 0 162 232
0.555556 -5 0 0 0 -1 0 162 232
0.555556 -3.88889 0 0 0 -1 0 162 232
0.555556 -2.77778 0 0 0 -1 0 162 232
0.555556 -1.66667 0 0 0 -1 0 162 232
1.66667 -5 0 0 0 -1 0 162 232
1.66667 -3.88889 0 0 0 -1 0 162 232
1.66667 -2.77778 0 0 0 -1 0 162 232
2.77778 -5 0 0 0 -1 255 255 255
2.77778 -3.88889 0 0 0 -1 255 255 255
3.88889 -5 0 0 0 -1 255 255 255
5 -5 0 0 0 -1 255 255 255
