ply
format ascii 1.0
comment Generated by InterDigital model processor
element vertex 176
property float x
property float y
property float z
property float nx
property float ny
property float nz
property uchar red
property uchar green
property uchar blue
end_header
-5 -5 0 0 0 -1 0 162 232
-5 -4 0 0 0 -1 0 162 232
-5 -3 0 0 0 -1 0 162 232
-4.29289341 -3.70710683 0 0 0 -1 0 162 232
-5 -2 0 0 0 -1 24 149 212
-4.29289341 -2.70710683 0 0 0 -1 0 162 232
-3.58578634 -3.41421366 0 0 0 -1 0 162 232
-5 -1 0 0 0 -1 71 122 173
-4.29289341 -1.70710683 0 0 0 -1 38 141 201
-3.58578634 -2.41421366 0 0 0 -1 4 160 229
-5 0 0 0 0 -1 119 95 134
-4.29289341 -0.707106769 0 0 0 -1 85 114 162
-3.58578634 -1.41421354 0 0 0 -1 51 133 189
-2.87867975 -2.12132025 0 0 0 -1 18 152 217
-5 1 0 0 0 -1 166 68 95
-4.29289341 0.292893231 0 0 0 -1 132 87 123
-3.58578634 -0.414213538 0 0 0 -1 99 106 150
-2.87867975 -1.12132025 0 0 0 -1 65 125 178
-2.17157292 -1.82842708 0 0 0 -1 45 151 207
-5 2 0 0 0 -1 213 41 56
-4.29289341 1.29289317 0 0 0 -1 180 60 83
-3.58578634 0.585786462 0 0 0 -1 146 79 111
-2.87867975 -0.121320248 0 0 0 -1 113 98 139
-2.17157292 -0.828427076 0 0 0 -1 86 125 168
-5 3 0 0 0 -1 237 28 36
-4.29289341 2.29289317 0 0 0 -1 227 34 44
-3.58578634 1.58578646 0 0 0 -1 194 53 72
-2.87867975 0.878679752 0 0 0 -1 160 71 100
-2.17157292 0.171572924 0 0 0 -1 127 98 129
-1.46446609 -0.535533905 0 0 0 -1 109 133 161
-5 4 0 0 0 -1 237 28 36
-4.29289341 3.29289317 0 0 0 -1 237 28 36
-3.58578634 2.58578634 0 0 0 -1 237 28 36
-2.87867975 1.87867975 0 0 0 -1 208 45 60
-2.17157292 1.17157292 0 0 0 -1 169 72 90
-1.46446609 0.464466095 0 0 0 -1 137 109 123
-0.757359505 -0.242640495 0 0 0 -1 124 143 154
-5 5 0 0 0 -1 237 28 36
-4.29289341 4.29289341 0 0 0 -1 237 28 36
-3.58578634 3.58578634 0 0 0 -1 237 28 36
-2.87867975 2.87867975 0 0 0 -1 237 28 36
-2.17157292 2.17157292 0 0 0 -1 210 46 51
-1.46446609 1.46446609 0 0 0 -1 166 84 84
-0.757359505 0.757359505 0 0 0 -1 139 120 116
-0.0502524376 0.0502524376 0 0 0 -1 131 153 148
-4 5 0 0 0 -1 237 28 36
-3 5 0 0 0 -1 237 28 36
-3.70710683 4.29289341 0 0 0 -1 237 28 36
-2 5 0 0 0 -1 217 43 40
-2.70710683 4.29289341 0 0 0 -1 237 28 36
-3.41421366 3.58578634 0 0 0 -1 237 28 36
-1 5 0 0 0 -1 176 73 48
-1.70710683 4.29289341 0 0 0 -1 205 52 42
-2.41421366 3.58578634 0 0 0 -1 234 31 37
0 5 0 0 0 -1 136 103 56
-0.707106769 4.29289341 0 0 0 -1 164 81 50
-1.41421354 3.58578634 0 0 0 -1 193 60 45
-2.12132025 2.87867975 0 0 0 -1 222 39 39
1 5 0 0 0 -1 95 132 64
0.292893231 4.29289341 0 0 0 -1 124 111 58
-0.414213538 3.58578634 0 0 0 -1 152 90 53
-1.12132025 2.87867975 0 0 0 -1 181 69 47
-1.82842708 2.17157292 0 0 0 -1 198 56 54
2 5 0 0 0 -1 54 162 72
1.29289317 4.29289341 0 0 0 -1 83 141 66
0.585786462 3.58578634 0 0 0 -1 112 120 61
-0.121320248 2.87867975 0 0 0 -1 140 99 55
-0.828427076 2.17157292 0 0 0 -1 164 85 62
3 5 0 0 0 -1 34 177 76
2.29289317 4.29289341 0 0 0 -1 42 171 74
1.58578646 3.58578634 0 0 0 -1 71 150 69
0.878679752 2.87867975 0 0 0 -1 100 129 63
0.171572924 2.17157292 0 0 0 -1 129 114 70
-0.535533905 1.46446609 0 0 0 -1 145 110 91
4 5 0 0 0 -1 34 177 76
3.29289317 4.29289341 0 0 0 -1 34 177 76
2.58578634 3.58578634 0 0 0 -1 34 177 76
1.87867975 2.87867975 0 0 0 -1 59 158 71
1.17157292 2.17157292 0 0 0 -1 94 144 77
0.464466095 1.46446609 0 0 0 -1 124 137 98
-0.242640495 0.757359505 0 0 0 -1 135 133 120
5 5 0 0 0 -1 34 177 76
4.29289341 4.29289341 0 0 0 -1 34 177 76
3.58578634 3.58578634 0 0 0 -1 34 177 76
2.87867975 2.87867975 0 0 0 -1 34 177 76
2.17157292 2.17157292 0 0 0 -1 60 173 85
1.46446609 1.46446609 0 0 0 -1 102 165 106
0.757359505 0.757359505 0 0 0 -1 126 159 127
0.0502524376 0.0502524376 0 0 0 -1 132 156 148
5 4 0 0 -0 -1 34 177 76
5 3 0 0 -0 -1 34 177 76
4.29289341 3.70710683 0 0 -0 -1 34 177 76
5 2 0 0 -0 -1 56 185 94
4.29289341 2.70710683 0 0 -0 -1 34 177 76
3.58578634 3.41421366 0 0 -0 -1 34 177 76
5 1 0 0 -0 -1 100 200 130
4.29289341 1.70710683 0 0 -0 -1 69 189 104
3.58578634 2.41421366 0 0 -0 -1 38 178 79
5 0 0 0 -0 -1 145 216 166
4.29289341 0.707106769 0 0 -0 -1 113 205 140
3.58578634 1.41421354 0 0 -0 -1 82 194 115
2.87867975 2.12132025 0 0 -0 -1 51 183 90
5 -1 0 0 -0 -1 189 232 201
4.29289341 -0.292893231 0 0 -0 -1 157 221 176
3.58578634 0.414213538 0 0 -0 -1 126 210 151
2.87867975 1.12132025 0 0 -0 -1 95 199 125
2.17157292 1.82842708 0 0 -0 -1 73 178 98
5 -2 0 0 -0 -1 233 247 237
4.29289341 -1.29289317 0 0 -0 -1 202 236 212
3.58578634 -0.585786462 0 0 -0 -1 170 225 186
2.87867975 0.121320248 0 0 -0 -1 139 214 161
2.17157292 0.828427076 0 0 -0 -1 111 195 134
5 -3 0 0 -0 -1 255 255 255
4.29289341 -2.29289317 0 0 -0 -1 246 252 248
3.58578634 -1.58578646 0 0 -0 -1 215 241 222
2.87867975 -0.878679752 0 0 -0 -1 183 230 197
2.17157292 -0.171572924 0 0 -0 -1 149 211 170
1.46446609 0.535533905 0 0 -0 -1 126 181 139
5 -4 0 0 -0 -1 255 255 255
4.29289341 -3.29289317 0 0 -0 -1 255 255 255
3.58578634 -2.58578634 0 0 -0 -1 255 255 255
2.87867975 -1.87867975 0 0 -0 -1 228 245 233
2.17157292 -1.17157292 0 0 -0 -1 188 227 206
1.46446609 -0.464466095 0 0 -0 -1 151 199 176
0.757359505 0.242640495 0 0 -0 -1 132 169 146
5 -5 0 0 -0 -1 255 255 255
4.29289341 -4.29289341 0 0 -0 -1 255 255 255
3.58578634 -3.58578634 0 0 -0 -1 255 255 255
2.87867975 -2.87867975 0 0 -0 -1 255 255 255
2.17157292 -2.17157292 0 0 -0 -1 226 244 242
1.46446609 -1.46446609 0 0 -0 -1 176 217 212
0.757359505 -0.757359505 0 0 -0 -1 145 189 183
0.0502524376 -0.0502524376 0 0 -0 -1 132 158 152
4 -5 0 0 0 -1 255 255 255
3 -5 0 0 0 -1 255 255 255
3.70710683 -4.29289341 0 0 0 -1 255 255 255
2 -5 0 0 0 -1 230 246 253
2.70710683 -4.29289341 0 0 0 -1 255 255 255
3.41421366 -3.58578634 0 0 0 -1 255 255 255
1 -5 0 0 0 -1 179 227 248
1.70710683 -4.29289341 0 0 0 -1 215 240 251
2.41421366 -3.58578634 0 0 0 -1 251 253 255
0 -5 0 0 0 -1 128 209 244
0.707106769 -4.29289341 0 0 0 -1 164 222 247
1.41421354 -3.58578634 0 0 0 -1 200 235 250
2.12132025 -2.87867975 0 0 0 -1 236 248 253
-1 -5 0 0 0 -1 76 190 239
-0.292893231 -4.29289341 0 0 0 -1 113 203 242
0.414213538 -3.58578634 0 0 0 -1 149 216 245
1.12132025 -2.87867975 0 0 0 -1 185 229 249
1.82842708 -2.17157292 0 0 0 -1 210 237 240
-2 -5 0 0 0 -1 26 171 234
-1.29289317 -4.29289341 0 0 0 -1 62 184 238
-0.585786462 -3.58578634 0 0 0 -1 98 198 241
0.121320248 -2.87867975 0 0 0 -1 134 211 244
0.828427076 -2.17157292 0 0 0 -1 165 218 235
-3 -5 0 0 0 -1 0 162 232
-2.29289317 -4.29289341 0 0 0 -1 11 166 233
-1.58578646 -3.58578634 0 0 0 -1 47 179 236
-0.878679752 -2.87867975 0 0 0 -1 83 192 239
-0.171572924 -2.17157292 0 0 0 -1 120 198 230
0.535533905 -1.46446609 0 0 0 -1 146 198 208
-4 -5 0 0 0 -1 0 162 232
-3.29289317 -4.29289341 0 0 0 -1 0 162 232
-2.58578634 -3.58578634 0 0 0 -1 0 162 232
-1.87867975 -2.87867975 0 0 0 -1 32 174 235
-1.17157292 -2.17157292 0 0 0 -1 75 179 226
-0.464466095 -1.46446609 0 0 0 -1 114 177 202
0.242640495 -0.757359505 0 0 0 -1 135 177 180
-4.29289341 -4.29289341 0 0 0 -1 0 162 232
-3.58578634 -3.58578634 0 0 0 -1 0 162 232
-2.87867975 -2.87867975 0 0 0 -1 0 162 232
-2.17157292 -2.17157292 0 0 0 -1 30 160 221
-1.46446609 -1.46446609 0 0 0 -1 82 156 197
-0.757359505 -0.757359505 0 0 0 -1 116 155 174
-0.0502524376 -0.0502524376 0 0 0 -1 131 155 151
