ply
format ascii 1.0
comment Generated by InterDigital model processor
element vertex 116
property float x
property float y
property float z
property float nx
property float ny
property float nz
property uchar red
property uchar green
property uchar blue
end_header
-5 -5 0 0 0 -1 0 162 232
-5 -3.88888884 0 0 0 -1 0 162 232
-5 -2.77777767 0 0 0 -1 0 162 232
-5 -1.66666651 0 0 0 -1 0 162 232
-5 -0.555555344 0 0 0 -1 0 162 232
-5 0.55555582 0 0 0 -1 237 28 36
-5 1.66666698 0 0 0 -1 237 28 36
-5 2.77777815 0 0 0 -1 237 28 36
-5 3.88888931 0 0 0 -1 237 28 36
-5 5 0 0 0 -1 237 28 36
-3.88888884 -3.88888884 0 0 0 -1 0 162 232
-3.88888884 -2.77777767 0 0 0 -1 0 162 232
-3.88888884 -1.66666651 0 0 0 -1 0 162 232
-3.88888884 -0.555555344 0 0 0 -1 0 162 232
-3.88888884 0.55555582 0 0 0 -1 237 28 36
-3.88888884 1.66666698 0 0 0 -1 237 28 36
-3.88888884 2.77777815 0 0 0 -1 237 28 36
-3.88888884 3.88888931 0 0 0 -1 237 28 36
-2.77777767 -2.77777767 0 0 0 -1 0 162 232
-2.77777767 -1.66666651 0 0 0 -1 0 162 232
-2.77777767 -0.555555344 0 0 0 -1 0 162 232
-2.77777767 0.55555582 0 0 0 -1 237 28 36
-2.77777767 1.66666698 0 0 0 -1 237 28 36
-2.77777767 2.77777815 0 0 0 -1 237 28 36
-1.66666651 -1.66666651 0 0 0 -1 0 162 232
-1.66666651 -0.555555344 0 0 0 -1 0 162 232
-1.66666651 0.55555582 0 0 0 -1 237 28 36
-1.66666651 1.66666698 0 0 0 -1 237 28 36
-0.555555344 -0.555555344 0 0 0 -1 0 162 232
-0.555555344 0.55555582 0 0 0 -1 237 28 36
-5 5 0 0 0 -1 237 28 36
-3.88888884 3.88888931 0 0 0 -1 237 28 36
-3.88888884 5 0 0 0 -1 237 28 36
-2.77777767 2.77777815 0 0 0 -1 237 28 36
-2.77777767 3.88888931 0 0 0 -1 237 28 36
-2.77777767 5 0 0 0 -1 237 28 36
-1.66666651 1.66666698 0 0 0 -1 237 28 36
-1.66666651 2.77777815 0 0 0 -1 237 28 36
-1.66666651 3.88888931 0 0 0 -1 237 28 36
-1.66666651 5 0 0 0 -1 237 28 36
-0.555555344 0.55555582 0 0 0 -1 237 28 36
-0.555555344 1.66666698 0 0 0 -1 237 28 36
-0.555555344 2.77777815 0 0 0 -1 237 28 36
-0.555555344 3.88888931 0 0 0 -1 237 28 36
-0.555555344 5 0 0 0 -1 237 28 36
0.55555582 0.55555582 0 0 0 -1 34 177 76
0.55555582 1.66666698 0 0 0 -1 34 177 76
0.55555582 2.77777815 0 0 0 -1 34 177 76
0.55555582 3.88888931 0 0 0 -1 34 177 76
0.55555582 5 0 0 0 -1 34 177 76
1.66666698 1.66666698 0 0 0 -1 34 177 76
1.66666698 2.77777815 0 0 0 -1 34 177 76
1.66666698 3.88888931 0 0 0 -1 34 177 76
1.66666698 5 0 0 0 -1 34 177 76
2.77777815 2.77777815 0 0 0 -1 34 177 76
2.77777815 3.88888931 0 0 0 -1 34 177 76
2.77777815 5 0 0 0 -1 34 177 76
3.88888931 3.88888931 0 0 0 -1 34 177 76
3.88888931 5 0 0 0 -1 34 177 76
5 5 0 0 0 -1 34 177 76
0.55555582 -0.555555344 0 0 -0 -1 255 255 255
0.55555582 0.55555582 0 0 -0 -1 34 177 76
1.66666698 -1.66666651 0 0 -0 -1 255 255 255
1.66666698 -0.555555344 0 0 -0 -1 255 255 255
1.66666698 0.55555582 0 0 -0 -1 34 177 76
1.66666698 1.66666698 0 0 -0 -1 34 177 76
2.77777815 -2.77777767 0 0 -0 -1 255 255 255
2.77777815 -1.66666651 0 0 -0 -1 255 255 255
2.77777815 -0.555555344 0 0 -0 -1 255 255 255
2.77777815 0.55555582 0 0 -0 -1 34 177 76
2.77777815 1.66666698 0 0 -0 -1 34 177 76
2.77777815 2.77777815 0 0 -0 -1 34 177 76
3.88888931 -3.88888884 0 0 -0 -1 255 255 255
3.88888931 -2.77777767 0 0 -0 -1 255 255 255
3.88888931 -1.66666651 0 0 -0 -1 255 255 255
3.88888931 -0.555555344 0 0 -0 -1 255 255 255
3.88888931 0.55555582 0 0 -0 -1 34 177 76
3.88888931 1.66666698 0 0 -0 -1 34 177 76
3.88888931 2.77777815 0 0 -0 -1 34 177 76
3.88888931 3.88888931 0 0 -0 -1 34 177 76
5 -5 0 0 -0 -1 255 255 255
5 -3.88888884 0 0 -0 -1 255 255 255
5 -2.77777767 0 0 -0 -1 255 255 255
5 -1.66666651 0 0 -0 -1 255 255 255
5 -0.555555344 0 0 -0 -1 255 255 255
5 0.55555582 0 0 -0 -1 34 177 76
5 1.66666698 0 0 -0 -1 34 177 76
5 2.77777815 0 0 -0 -1 34 177 76
5 3.88888931 0 0 -0 -1 34 177 76
5 5 0 0 -0 -1 34 177 76
-5 -5 0 0 0 -1 0 162 232
-3.88888884 -5 0 0 0 -1 0 162 232
-3.88888884 -3.88888884 0 0 0 -1 0 162 232
-2.77777767 -5 0 0 0 -1 0 162 232
-2.77777767 -3.88888884 0 0 0 -1 0 162 232
-2.77777767 -2.77777767 0 0 0 -1 0 162 232
-1.66666651 -5 0 0 0 -1 0 162 232
-1.66666651 -3.88888884 0 0 0 -1 0 162 232
-1.66666651 -2.77777767 0 0 0 -1 0 162 232
-1.66666651 -1.66666651 0 0 0 -1 0 162 232
-0.555555344 -5 0 0 0 -1 0 162 232
-0.555555344 -3.88888884 0 0 0 -1 0 162 232
-0.555555344 -2.77777767 0 0 0 -1 0 162 232
-0.555555344 -1.66666651 0 0 0 -1 0 162 232
-0.555555344 -0.555555344 0 0 0 -1 0 162 232
0.55555582 -5 0 0 0 -1 255 255 255
0.55555582 -3.88888884 0 0 0 -1 255 255 255
0.55555582 -2.77777767 0 0 0 -1 255 255 255
0.55555582 -1.66666651 0 0 0 -1 255 255 255
1.66666698 -5 0 0 0 -1 255 255 255
1.66666698 -3.88888884 0 0 0 -1 255 255 255
1.66666698 -2.77777767 0 0 0 -1 255 255 255
2.77777815 -5 0 0 0 -1 255 255 255
2.77777815 -3.88888884 0 0 0 -1 255 255 255
3.88888931 -5 0 0 0 -1 255 255 255
5 -5 0 0 0 -1 255 255 255
