ply
format ascii 1.0
comment Generated by InterDigital model processor
element vertex 482
property float x
property float y
property float z
end_header
0.513725996 0.835294008 0.215685993 
0.356862992 0.92156899 0.145098001 
0.458824009 0.835294008 0.309803993 
0.31764701 0.92156899 0.215685993 
0.396077991 0.835294008 0.396077991 
0.270588011 0.92156899 0.270588011 
0.309803993 0.835294008 0.458824009 
0.215685993 0.92156899 0.31764701 
0.145098001 0.92156899 0.356862992 
0.215685993 0.835294008 0.513725996 
0.105881996 0.835294008 0.545098007 
0.0745100006 0.92156899 0.372548997 
0.00392200006 0.92156899 0.380391985 
0.00392200006 0.835294008 0.552941024 
-0.105881996 0.835294008 0.545098007 
-0.0745100006 0.92156899 0.372548997 
-0.215685993 0.835294008 0.513725996 
-0.145098001 0.92156899 0.356862992 
-0.309803993 0.835294008 0.458824009 
-0.215685993 0.92156899 0.31764701 
-0.396077991 0.835294008 0.396077991 
-0.270588011 0.92156899 0.270588011 
-0.458824009 0.835294008 0.309803993 
-0.31764701 0.92156899 0.215685993 
-0.160784006 0.984314024 0.105881996 
-0.137254998 0.984314024 0.137254998 
-0.105881996 0.984314024 0.160784006 
-0.0745100006 0.984314024 0.176470995 
-0.0352940001 0.984314024 0.192157 
0.00392200006 0.984314024 0.192157 
0.0352940001 0.984314024 0.192157 
0.0745100006 0.984314024 0.176470995 
0.105881996 0.984314024 0.160784006 
0.137254998 0.984314024 0.137254998 
0.160784006 0.984314024 0.105881996 
0.176470995 0.984314024 0.0745100006 
0.192157 0.984314024 0.0352940001 
0.372548997 0.92156899 0.0745100006 
0.192157 0.984314024 -0.0352940001 
0.192157 0.984314024 0.00392200006 
0.380391985 0.92156899 0.00392200006 
0.545098007 0.835294008 0.105881996 
0.654901981 0.709803998 0.270588011 
0.584313989 0.709803998 0.396077991 
0.498039007 0.709803998 0.498039007 
0.396077991 0.709803998 0.584313989 
0.270588011 0.709803998 0.654901981 
0.137254998 0.709803998 0.694118023 
0.00392200006 0.709803998 0.709803998 
-0.137254998 0.709803998 0.694118023 
-0.270588011 0.709803998 0.654901981 
-0.396077991 0.709803998 0.584313989 
-0.498039007 0.709803998 0.498039007 
-0.584313989 0.709803998 0.396077991 
-0.513724983 0.835294008 0.215685993 
-0.356862992 0.92156899 0.145098001 
-0.176470995 0.984314024 0.0745100006 
-0.192157 0.984314024 0.0352940001 
0.00392200006 1 0.00392200006 
0.176470995 0.984314024 -0.0745100006 
0.0745100006 0.984314024 -0.176470995 
0.105881996 0.984314024 -0.160784006 
0.137254998 0.984314024 -0.137254998 
0.160784006 0.984314024 -0.105881996 
0.356862992 0.92156899 -0.145098001 
0.372548997 0.92156899 -0.0745100006 
0.552941024 0.835294008 0.00392200006 
0.709803998 0.709803998 0.00392200006 
0.694118023 0.709803998 0.137254998 
0.764706016 0.552941024 0.31764701 
0.694118023 0.552941024 0.458824009 
0.584313989 0.552941024 0.584313989 
0.458824009 0.552941024 0.694118023 
0.31764701 0.552941024 0.764706016 
0.160784006 0.552941024 0.811765015 
0.00392200006 0.552941024 0.835294008 
-0.160784006 0.552941024 0.811765015 
-0.31764701 0.552941024 0.764706016 
-0.458824009 0.552941024 0.694118023 
-0.584313989 0.552941024 0.584313989 
-0.694118023 0.552941024 0.458824009 
-0.654901981 0.709803998 0.270588011 
-0.545098007 0.835294008 0.105881996 
-0.372548997 0.92156899 0.0745100006 
-0.192157 0.984314024 0.00392200006 
-0.192157 0.984314024 -0.0352940001 
-0.176470995 0.984314024 -0.0745100006 
-0.160784006 0.984314024 -0.105881996 
-0.137254998 0.984314024 -0.137254998 
-0.105881996 0.984314024 -0.160784006 
-0.0745100006 0.984314024 -0.176470995 
-0.0352940001 0.984314024 -0.192157 
0.00392200006 0.984314024 -0.192157 
0.0352940001 0.984314024 -0.192157 
0.145098001 0.92156899 -0.356862992 
0.215685993 0.92156899 -0.31764701 
0.270588011 0.92156899 -0.270588011 
0.31764701 0.92156899 -0.215685993 
0.513725996 0.835294008 -0.215685993 
0.545098007 0.835294008 -0.105881996 
0.694118023 0.709803998 -0.137254998 
0.835294008 0.552941024 0.00392200006 
0.811765015 0.552941024 0.160784006 
0.850980997 0.380391985 0.356862992 
0.764706016 0.380391985 0.513725996 
0.654901981 0.380391985 0.654901981 
0.513725996 0.380391985 0.764706016 
0.356862992 0.380391985 0.850980997 
0.176470995 0.380391985 0.905882001 
0.00392200006 0.380391985 0.92156899 
-0.176470995 0.380391985 0.905882001 
-0.356862992 0.380391985 0.850980997 
-0.513724983 0.380391985 0.764706016 
-0.654901981 0.380391985 0.654901981 
-0.764706016 0.380391985 0.513725996 
-0.850979984 0.380391985 0.356862992 
-0.764706016 0.552941024 0.31764701 
-0.694118023 0.709803998 0.137254998 
-0.552941024 0.835294008 0.00392200006 
-0.380391985 0.92156899 0.00392200006 
-0.372548997 0.92156899 -0.0745100006 
-0.356862992 0.92156899 -0.145098001 
-0.31764701 0.92156899 -0.215685993 
-0.270588011 0.92156899 -0.270588011 
-0.215685993 0.92156899 -0.31764701 
-0.145098001 0.92156899 -0.356862992 
-0.0745100006 0.92156899 -0.372548997 
0.00392200006 0.92156899 -0.380391985 
0.0745100006 0.92156899 -0.372548997 
0.105881996 0.835294008 -0.545098007 
0.215685993 0.835294008 -0.513724983 
0.309803993 0.835294008 -0.458824009 
0.396077991 0.835294008 -0.396077991 
0.458824009 0.835294008 -0.309803993 
0.654901981 0.709803998 -0.270588011 
0.811765015 0.552941024 -0.160784006 
0.92156899 0.380391985 0.00392200006 
0.905882001 0.380391985 0.176470995 
0.960784018 0.192157 0.192157 
0.905882001 0.192157 0.372548997 
0.811765015 0.192157 0.545098007 
0.694118023 0.192157 0.694118023 
0.545098007 0.192157 0.811765015 
0.372548997 0.192157 0.905882001 
0.192157 0.192157 0.960784018 
0.00392200006 0.192157 0.984314024 
-0.192157 0.192157 0.960784018 
-0.372548997 0.192157 0.905882001 
-0.545098007 0.192157 0.811765015 
-0.694118023 0.192157 0.694118023 
-0.811765015 0.192157 0.545098007 
-0.905882001 0.192157 0.372548997 
-0.905882001 0.380391985 0.176470995 
-0.811765015 0.552941024 0.160784006 
-0.835294008 0.552941024 0.00392200006 
-0.709803998 0.709803998 0.00392200006 
-0.545098007 0.835294008 -0.105881996 
-0.513724983 0.835294008 -0.215685993 
-0.458824009 0.835294008 -0.309803993 
-0.396077991 0.835294008 -0.396077991 
-0.309803993 0.835294008 -0.458824009 
-0.215685993 0.835294008 -0.513724983 
-0.105881996 0.835294008 -0.545098007 
0.00392200006 0.835294008 -0.552941024 
0.137254998 0.709803998 -0.694118023 
0.270588011 0.709803998 -0.654901981 
0.396077991 0.709803998 -0.584313989 
0.498039007 0.709803998 -0.498039007 
0.584313989 0.709803998 -0.396077991 
0.694118023 0.552941024 -0.458824009 
0.764706016 0.552941024 -0.31764701 
0.905882001 0.380391985 -0.176470995 
0.960784018 0.192157 -0.192157 
0.984314024 0.192157 0.00392200006 
0.984314024 0.00392200006 0.192157 
0.92156899 0.00392200006 0.380391985 
0.835294008 0.00392200006 0.552941024 
0.709803998 0.00392200006 0.709803998 
0.552941024 0.00392200006 0.835294008 
0.380391985 0.00392200006 0.92156899 
0.192157 0.00392200006 0.984314024 
0.00392200006 0.00392200006 1 
-0.192157 0.00392200006 0.984314024 
-0.380391985 0.00392200006 0.92156899 
-0.552941024 0.00392200006 0.835294008 
-0.709803998 0.00392200006 0.709803998 
-0.835294008 0.00392200006 0.552941024 
-0.92156899 0.00392200006 0.380391985 
-0.984314024 0.00392200006 0.192157 
-0.960784018 0.192157 0.192157 
-0.92156899 0.380391985 0.00392200006 
-0.905882001 0.380391985 -0.176470995 
-0.811765015 0.552941024 -0.160784006 
-0.694118023 0.709803998 -0.137254998 
-0.654901981 0.709803998 -0.270588011 
-0.584313989 0.709803998 -0.396077991 
-0.498039007 0.709803998 -0.498039007 
-0.396077991 0.709803998 -0.584313989 
-0.270588011 0.709803998 -0.654901981 
-0.137254998 0.709803998 -0.694118023 
0.00392200006 0.709803998 -0.709803998 
0.160784006 0.552941024 -0.811765015 
0.31764701 0.552941024 -0.764706016 
0.458824009 0.552941024 -0.694118023 
0.584313989 0.552941024 -0.584313989 
0.764706016 0.380391985 -0.513724983 
0.850980997 0.380391985 -0.356862992 
0.905882001 0.192157 -0.372548997 
0.92156899 0.00392200006 -0.380391985 
0.984314024 0.00392200006 -0.192157 
1 0.00392200006 0.00392200006 
0.984314024 -0.192157 0.00392200006 
0.960784018 -0.192157 0.192157 
0.905882001 -0.192157 0.372548997 
0.811765015 -0.192157 0.545098007 
0.694118023 -0.192157 0.694118023 
0.545098007 -0.192157 0.811765015 
0.372548997 -0.192157 0.905882001 
0.192157 -0.192157 0.960784018 
0.00392200006 -0.192157 0.984314024 
-0.192157 -0.192157 0.960784018 
-0.372548997 -0.192157 0.905882001 
-0.545098007 -0.192157 0.811765015 
-0.694118023 -0.192157 0.694118023 
-0.811765015 -0.192157 0.545098007 
-0.905882001 -0.192157 0.372548997 
-0.960784018 -0.192157 0.192157 
-0.984314024 -0.192157 0.00392200006 
-1 0.00392200006 0.00392200006 
-0.984314024 0.192157 0.00392200006 
-0.960784018 0.192157 -0.192157 
-0.850979984 0.380391985 -0.356862992 
-0.764706016 0.552941024 -0.31764701 
-0.694118023 0.552941024 -0.458824009 
-0.584313989 0.552941024 -0.584313989 
-0.458824009 0.552941024 -0.694118023 
-0.31764701 0.552941024 -0.764706016 
-0.160784006 0.552941024 -0.811765015 
0.00392200006 0.552941024 -0.835294008 
0.176470995 0.380391985 -0.905882001 
0.356862992 0.380391985 -0.850979984 
0.513725996 0.380391985 -0.764706016 
0.654901981 0.380391985 -0.654901981 
0.811765015 0.192157 -0.545098007 
0.835294008 0.00392200006 -0.552941024 
0.905882001 -0.192157 -0.372548997 
0.960784018 -0.192157 -0.192157 
0.92156899 -0.380391985 0.00392200006 
0.905882001 -0.380391985 0.176470995 
0.850980997 -0.380391985 0.356862992 
0.764706016 -0.380391985 0.513725996 
0.654901981 -0.380391985 0.654901981 
0.513725996 -0.380391985 0.764706016 
0.356862992 -0.380391985 0.850980997 
0.176470995 -0.380391985 0.905882001 
0.00392200006 -0.380391985 0.92156899 
-0.176470995 -0.380391985 0.905882001 
-0.356862992 -0.380391985 0.850980997 
-0.513724983 -0.380391985 0.764706016 
-0.654901981 -0.380391985 0.654901981 
-0.764706016 -0.380391985 0.513725996 
-0.850979984 -0.380391985 0.356862992 
-0.905882001 -0.380391985 0.176470995 
-0.92156899 -0.380391985 0.00392200006 
-0.905882001 -0.380391985 -0.176470995 
-0.960784018 -0.192157 -0.192157 
-0.984314024 0.00392200006 -0.192157 
-0.92156899 0.00392200006 -0.380391985 
-0.905882001 0.192157 -0.372548997 
-0.764706016 0.380391985 -0.513724983 
-0.654901981 0.380391985 -0.654901981 
-0.513724983 0.380391985 -0.764706016 
-0.356862992 0.380391985 -0.850979984 
-0.176470995 0.380391985 -0.905882001 
0.00392200006 0.380391985 -0.92156899 
0.192157 0.192157 -0.960784018 
0.372548997 0.192157 -0.905882001 
0.545098007 0.192157 -0.811765015 
0.694118023 0.192157 -0.694118023 
0.709803998 0.00392200006 -0.709803998 
0.811765015 -0.192157 -0.545098007 
0.850980997 -0.380391985 -0.356862992 
0.905882001 -0.380391985 -0.176470995 
0.811765015 -0.552941024 -0.160784006 
0.835294008 -0.552941024 0.00392200006 
0.811765015 -0.552941024 0.160784006 
0.764706016 -0.552941024 0.31764701 
0.694118023 -0.552941024 0.458824009 
0.584313989 -0.552941024 0.584313989 
0.458824009 -0.552941024 0.694118023 
0.31764701 -0.552941024 0.764706016 
0.160784006 -0.552941024 0.811765015 
0.00392200006 -0.552941024 0.835294008 
-0.160784006 -0.552941024 0.811765015 
-0.31764701 -0.552941024 0.764706016 
-0.458824009 -0.552941024 0.694118023 
-0.584313989 -0.552941024 0.584313989 
-0.694118023 -0.552941024 0.458824009 
-0.764706016 -0.552941024 0.31764701 
-0.811765015 -0.552941024 0.160784006 
-0.835294008 -0.552941024 0.00392200006 
-0.811765015 -0.552941024 -0.160784006 
-0.850979984 -0.380391985 -0.356862992 
-0.905882001 -0.192157 -0.372548997 
-0.835294008 0.00392200006 -0.552941024 
-0.811765015 0.192157 -0.545098007 
-0.694118023 0.192157 -0.694118023 
-0.545098007 0.192157 -0.811765015 
-0.372548997 0.192157 -0.905882001 
-0.192157 0.192157 -0.960784018 
0.00392200006 0.192157 -0.984314024 
0.192157 0.00392200006 -0.984314024 
0.380391985 0.00392200006 -0.92156899 
0.552941024 0.00392200006 -0.835294008 
0.694118023 -0.192157 -0.694118023 
0.764706016 -0.380391985 -0.513724983 
0.694118023 -0.552941024 -0.458824009 
0.764706016 -0.552941024 -0.31764701 
0.654901981 -0.709803998 -0.270588011 
0.694118023 -0.709803998 -0.137254998 
0.709803998 -0.709803998 0.00392200006 
0.694118023 -0.709803998 0.137254998 
0.654901981 -0.709803998 0.270588011 
0.584313989 -0.709803998 0.396077991 
0.498039007 -0.709803998 0.498039007 
0.396077991 -0.709803998 0.584313989 
0.270588011 -0.709803998 0.654901981 
0.137254998 -0.709803998 0.694118023 
0.00392200006 -0.709803998 0.709803998 
-0.137254998 -0.709803998 0.694118023 
-0.270588011 -0.709803998 0.654901981 
-0.396077991 -0.709803998 0.584313989 
-0.498039007 -0.709803998 0.498039007 
-0.584313989 -0.709803998 0.396077991 
-0.654901981 -0.709803998 0.270588011 
-0.694118023 -0.709803998 0.137254998 
-0.709803998 -0.709803998 0.00392200006 
-0.694118023 -0.709803998 -0.137254998 
-0.654901981 -0.709803998 -0.270588011 
-0.764706016 -0.552941024 -0.31764701 
-0.764706016 -0.380391985 -0.513724983 
-0.811765015 -0.192157 -0.545098007 
-0.709803998 0.00392200006 -0.709803998 
-0.552941024 0.00392200006 -0.835294008 
-0.380391985 0.00392200006 -0.92156899 
-0.192157 0.00392200006 -0.984314024 
0.00392200006 0.00392200006 -1 
0.192157 -0.192157 -0.960784018 
0.372548997 -0.192157 -0.905882001 
0.545098007 -0.192157 -0.811765015 
0.654901981 -0.380391985 -0.654901981 
0.584313989 -0.552941024 -0.584313989 
0.498039007 -0.709803998 -0.498039007 
0.584313989 -0.709803998 -0.396077991 
0.513725996 -0.835294008 -0.215685993 
0.545098007 -0.835294008 -0.105881996 
0.552941024 -0.835294008 0.00392200006 
0.545098007 -0.835294008 0.105881996 
0.513725996 -0.835294008 0.215685993 
0.458824009 -0.835294008 0.309803993 
0.396077991 -0.835294008 0.396077991 
0.309803993 -0.835294008 0.458824009 
0.215685993 -0.835294008 0.513725996 
0.105881996 -0.835294008 0.545098007 
0.00392200006 -0.835294008 0.552941024 
-0.105881996 -0.835294008 0.545098007 
-0.215685993 -0.835294008 0.513725996 
-0.309803993 -0.835294008 0.458824009 
-0.396077991 -0.835294008 0.396077991 
-0.458824009 -0.835294008 0.309803993 
-0.513724983 -0.835294008 0.215685993 
-0.545098007 -0.835294008 0.105881996 
-0.552941024 -0.835294008 0.00392200006 
-0.545098007 -0.835294008 -0.105881996 
-0.513724983 -0.835294008 -0.215685993 
-0.458824009 -0.835294008 -0.309803993 
-0.584313989 -0.709803998 -0.396077991 
-0.694118023 -0.552941024 -0.458824009 
-0.654901981 -0.380391985 -0.654901981 
-0.694118023 -0.192157 -0.694118023 
-0.545098007 -0.192157 -0.811765015 
-0.372548997 -0.192157 -0.905882001 
-0.192157 -0.192157 -0.960784018 
0.00392200006 -0.192157 -0.984314024 
0.176470995 -0.380391985 -0.905882001 
0.356862992 -0.380391985 -0.850979984 
0.513725996 -0.380391985 -0.764706016 
0.458824009 -0.552941024 -0.694118023 
0.396077991 -0.709803998 -0.584313989 
0.396077991 -0.835294008 -0.396077991 
0.458824009 -0.835294008 -0.309803993 
0.31764701 -0.92156899 -0.215685993 
0.356862992 -0.92156899 -0.145098001 
0.372548997 -0.92156899 -0.0745100006 
0.380391985 -0.92156899 0.00392200006 
0.372548997 -0.92156899 0.0745100006 
0.356862992 -0.92156899 0.145098001 
0.31764701 -0.92156899 0.215685993 
0.270588011 -0.92156899 0.270588011 
0.215685993 -0.92156899 0.31764701 
0.145098001 -0.92156899 0.356862992 
0.0745100006 -0.92156899 0.372548997 
0.00392200006 -0.92156899 0.380391985 
-0.0745100006 -0.92156899 0.372548997 
-0.145098001 -0.92156899 0.356862992 
-0.215685993 -0.92156899 0.31764701 
-0.270588011 -0.92156899 0.270588011 
-0.31764701 -0.92156899 0.215685993 
-0.356862992 -0.92156899 0.145098001 
-0.372548997 -0.92156899 0.0745100006 
-0.380391985 -0.92156899 0.00392200006 
-0.372548997 -0.92156899 -0.0745100006 
-0.356862992 -0.92156899 -0.145098001 
-0.31764701 -0.92156899 -0.215685993 
-0.270588011 -0.92156899 -0.270588011 
-0.396077991 -0.835294008 -0.396077991 
-0.498039007 -0.709803998 -0.498039007 
-0.584313989 -0.552941024 -0.584313989 
-0.513724983 -0.380391985 -0.764706016 
-0.356862992 -0.380391985 -0.850979984 
-0.176470995 -0.380391985 -0.905882001 
0.00392200006 -0.380391985 -0.92156899 
0.160784006 -0.552941024 -0.811765015 
0.31764701 -0.552941024 -0.764706016 
0.270588011 -0.709803998 -0.654901981 
0.309803993 -0.835294008 -0.458824009 
0.270588011 -0.92156899 -0.270588011 
0.137254998 -0.984314024 -0.137254998 
0.160784006 -0.984314024 -0.105881996 
0.176470995 -0.984314024 -0.0745100006 
0.192157 -0.984314024 -0.0352940001 
0.192157 -0.984314024 0.00392200006 
0.192157 -0.984314024 0.0352940001 
0.176470995 -0.984314024 0.0745100006 
0.160784006 -0.984314024 0.105881996 
0.137254998 -0.984314024 0.137254998 
0.105881996 -0.984314024 0.160784006 
0.0745100006 -0.984314024 0.176470995 
0.0352940001 -0.984314024 0.192157 
0.00392200006 -0.984314024 0.192157 
-0.0352940001 -0.984314024 0.192157 
-0.0745100006 -0.984314024 0.176470995 
-0.105881996 -0.984314024 0.160784006 
-0.137254998 -0.984314024 0.137254998 
-0.160784006 -0.984314024 0.105881996 
-0.176470995 -0.984314024 0.0745100006 
-0.192157 -0.984314024 0.0352940001 
-0.192157 -0.984314024 0.00392200006 
-0.192157 -0.984314024 -0.0352940001 
-0.176470995 -0.984314024 -0.0745100006 
-0.160784006 -0.984314024 -0.105881996 
-0.137254998 -0.984314024 -0.137254998 
-0.105881996 -0.984314024 -0.160784006 
-0.215685993 -0.92156899 -0.31764701 
-0.309803993 -0.835294008 -0.458824009 
-0.396077991 -0.709803998 -0.584313989 
-0.458824009 -0.552941024 -0.694118023 
-0.31764701 -0.552941024 -0.764706016 
-0.160784006 -0.552941024 -0.811765015 
0.00392200006 -0.552941024 -0.835294008 
0.137254998 -0.709803998 -0.694118023 
0.215685993 -0.835294008 -0.513724983 
0.215685993 -0.92156899 -0.31764701 
0.105881996 -0.984314024 -0.160784006 
0.00392200006 -1 0.00392200006 
-0.0352940001 -0.984314024 -0.192157 
-0.0745100006 -0.984314024 -0.176470995 
-0.145098001 -0.92156899 -0.356862992 
-0.215685993 -0.835294008 -0.513724983 
-0.270588011 -0.709803998 -0.654901981 
-0.137254998 -0.709803998 -0.694118023 
0.00392200006 -0.709803998 -0.709803998 
0.105881996 -0.835294008 -0.545098007 
0.145098001 -0.92156899 -0.356862992 
0.0745100006 -0.984314024 -0.176470995 
0.0352940001 -0.984314024 -0.192157 
0.00392200006 -0.984314024 -0.192157 
-0.0745100006 -0.92156899 -0.372548997 
-0.105881996 -0.835294008 -0.545098007 
0.00392200006 -0.835294008 -0.552941024 
0.0745100006 -0.92156899 -0.372548997 
0.00392200006 -0.92156899 -0.380391985 
