ply
format ascii 1.0
comment Generated by InterDigital model processor
element vertex 6
property float x
property float y
property float z
property float nx
property float ny
property float nz
property uchar red
property uchar green
property uchar blue
end_header
-2.49264812 -2.49264812 0 0 0 -1 0 162 232
2.50735188 -2.49264812 0 0 0 -1 255 255 255
2.50736618 2.50736618 0 0 0 -1 34 177 76
2.50736618 2.50736618 0 -0 0 -1 34 177 76
-2.49264812 -2.49264812 0 -0 0 -1 0 162 232
-2.49264812 2.50735188 0 -0 0 -1 237 28 36
