ply
format ascii 1.0
comment Generated by InterDigital model processor
element vertex 180
property float x
property float y
property float z
property float nx
property float ny
property float nz
property uchar red
property uchar green
property uchar blue
end_header
-5 -5 0 0 0 -1 0 162 232
-5 -4 0 0 0 -1 0 162 232
-5 -3 0 0 0 -1 0 162 232
-4.29289 -3.70711 0 0 0 -1 0 162 232
-5 -2 0 0 0 -1 142 82 114
-4.29289 -2.70711 0 0 0 -1 0 162 232
-3.58579 -3.41421 0 0 0 -1 0 162 232
-5 -1 0 0 0 -1 190 55 75
-4.29289 -1.70711 0 0 0 -1 156 74 103
-3.58579 -2.41421 0 0 0 -1 123 93 131
-5 0 0 0 0 -1 0 162 232
-4.29289 -0.707107 0 0 0 -1 203 47 64
-3.58579 -1.41421 0 0 0 -1 170 66 91
-2.87868 -2.12132 0 0 0 -1 136 85 119
-5 1 0 0 0 -1 47 135 193
-4.29289 0.292893 0 0 0 -1 14 154 221
-3.58579 -0.414214 0 0 0 -1 217 39 52
-2.87868 -1.12132 0 0 0 -1 184 58 80
-2.17157 -1.82843 0 0 0 -1 130 150 127
-5 2 0 0 0 -1 95 108 154
-4.29289 1.29289 0 0 0 -1 61 127 181
-3.58579 0.585786 0 0 0 -1 28 146 209
-2.87868 -0.12132 0 0 0 -1 231 31 41
-2.17157 -0.828427 0 0 0 -1 126 129 90
-5 3 0 0 0 -1 237 28 36
-4.29289 2.29289 0 0 0 -1 109 101 142
-3.58579 1.58579 0 0 0 -1 75 120 170
-2.87868 0.87868 0 0 0 -1 42 138 198
-2.17157 0.171573 0 0 0 -1 143 211 239
-1.46447 -0.535534 0 0 0 -1 103 143 84
-5 4 0 0 0 -1 237 28 36
-4.29289 3.29289 0 0 0 -1 237 28 36
-3.58579 2.58579 0 0 0 -1 237 28 36
-2.87868 1.87868 0 0 0 -1 89 112 158
-2.17157 1.17157 0 0 0 -1 139 191 201
-1.46447 0.464466 0 0 0 -1 172 219 231
-0.75736 -0.24264 0 0 0 -1 72 159 79
-5 5 0 0 0 -1 237 28 36
-4.29289 4.29289 0 0 0 -1 237 28 36
-3.58579 3.58579 0 0 0 -1 237 28 36
-2.87868 2.87868 0 0 0 -1 237 28 36
-2.17157 2.17157 0 0 0 -1 135 170 164
-1.46447 1.46447 0 0 0 -1 155 200 194
-0.75736 0.75736 0 0 0 -1 193 228 224
-0.0502524 0.0502524 0 0 0 -1 250 253 253
-5 5 0 0 0 -1 237 28 36
-4 5 0 0 0 -1 237 28 36
-3 5 0 0 0 -1 237 28 36
-3.70711 4.29289 0 0 0 -1 237 28 36
-2 5 0 0 0 -1 115 117 60
-2.70711 4.29289 0 0 0 -1 237 28 36
-3.41421 3.58579 0 0 0 -1 237 28 36
-1 5 0 0 0 -1 75 147 68
-1.70711 4.29289 0 0 0 -1 103 126 62
-2.41421 3.58579 0 0 0 -1 132 105 57
0 5 0 0 0 -1 237 28 36
-0.707107 4.29289 0 0 0 -1 63 156 70
-1.41421 3.58579 0 0 0 -1 91 135 65
-2.12132 2.87868 0 0 0 -1 120 114 59
1 5 0 0 0 -1 196 58 44
0.292893 4.29289 0 0 0 -1 225 37 38
-0.414214 3.58579 0 0 0 -1 51 165 73
-1.12132 2.87868 0 0 0 -1 80 144 67
-1.82843 2.17157 0 0 0 -1 139 178 166
2 5 0 0 0 -1 156 88 52
1.29289 4.29289 0 0 0 -1 185 67 46
0.585786 3.58579 0 0 0 -1 213 45 41
-0.12132 2.87868 0 0 0 -1 39 173 75
-0.828427 2.17157 0 0 0 -1 150 202 172
3 5 0 0 0 -1 34 177 76
2.29289 4.29289 0 0 0 -1 144 96 54
1.58579 3.58579 0 0 0 -1 173 75 49
0.87868 2.87868 0 0 0 -1 201 54 43
0.171573 2.17157 0 0 0 -1 105 108 148
-0.535534 1.46447 0 0 0 -1 177 220 200
4 5 0 0 0 -1 34 177 76
3.29289 4.29289 0 0 0 -1 34 177 76
2.58579 3.58579 0 0 0 -1 34 177 76
1.87868 2.87868 0 0 0 -1 161 84 51
1.17157 2.17157 0 0 0 -1 116 131 154
0.464466 1.46447 0 0 0 -1 81 133 177
-0.24264 0.75736 0 0 0 -1 213 238 227
5 5 0 0 0 -1 34 177 76
4.29289 4.29289 0 0 0 -1 34 177 76
3.58579 3.58579 0 0 0 -1 34 177 76
2.87868 2.87868 0 0 0 -1 34 177 76
2.17157 2.17157 0 0 0 -1 127 155 160
1.46447 1.46447 0 0 0 -1 105 155 183
0.75736 0.75736 0 0 0 -1 64 157 206
0.0502524 0.0502524 0 0 0 -1 5 162 230
5 5 0 0 -0 -1 34 177 76
5 4 0 0 -0 -1 34 177 76
5 3 0 0 -0 -1 34 177 76
4.29289 3.70711 0 0 -0 -1 34 177 76
5 2 0 0 -0 -1 167 224 183
4.29289 2.70711 0 0 -0 -1 34 177 76
3.58579 3.41421 0 0 -0 -1 34 177 76
5 1 0 0 -0 -1 211 239 219
4.29289 1.70711 0 0 -0 -1 180 228 194
3.58579 2.41421 0 0 -0 -1 148 217 169
5 0 0 0 -0 -1 255 255 255
4.29289 0.707107 0 0 -0 -1 224 244 230
3.58579 1.41421 0 0 -0 -1 192 233 204
2.87868 2.12132 0 0 -0 -1 161 222 179
5 -1 0 0 -0 -1 78 193 112
4.29289 -0.292893 0 0 -0 -1 47 182 86
3.58579 0.414214 0 0 -0 -1 237 249 240
2.87868 1.12132 0 0 -0 -1 205 238 215
2.17157 1.82843 0 0 -0 -1 125 162 173
5 -2 0 0 -0 -1 122 208 148
4.29289 -1.29289 0 0 -0 -1 91 197 122
3.58579 -0.585786 0 0 -0 -1 60 186 97
2.87868 0.12132 0 0 -0 -1 250 253 251
2.17157 0.828427 0 0 -0 -1 117 184 211
5 -3 0 0 -0 -1 255 255 255
4.29289 -2.29289 0 0 -0 -1 135 213 158
3.58579 -1.58579 0 0 -0 -1 104 202 133
2.87868 -0.87868 0 0 -0 -1 73 191 107
2.17157 -0.171573 0 0 -0 -1 148 96 60
1.46447 0.535534 0 0 -0 -1 86 177 218
5 -4 0 0 -0 -1 255 255 255
4.29289 -3.29289 0 0 -0 -1 255 255 255
3.58579 -2.58579 0 0 -0 -1 255 255 255
2.87868 -1.87868 0 0 -0 -1 117 206 143
2.17157 -1.17157 0 0 -0 -1 140 118 98
1.46447 -0.464466 0 0 -0 -1 168 83 65
0.75736 0.24264 0 0 -0 -1 47 170 226
5 -5 0 0 -0 -1 255 255 255
4.29289 -4.29289 0 0 -0 -1 255 255 255
3.58579 -3.58579 0 0 -0 -1 255 255 255
2.87868 -2.87868 0 0 -0 -1 255 255 255
2.17157 -2.17157 0 0 -0 -1 132 140 135
1.46447 -1.46447 0 0 -0 -1 147 106 104
0.75736 -0.75736 0 0 -0 -1 181 70 71
0.0502524 -0.0502524 0 0 -0 -1 233 31 38
5 -5 0 0 0 -1 255 255 255
4 -5 0 0 0 -1 255 255 255
3 -5 0 0 0 -1 255 255 255
3.70711 -4.29289 0 0 0 -1 255 255 255
2 -5 0 0 0 -1 102 199 241
2.70711 -4.29289 0 0 0 -1 255 255 255
3.41421 -3.58579 0 0 0 -1 255 255 255
1 -5 0 0 0 -1 51 181 237
1.70711 -4.29289 0 0 0 -1 87 194 240
2.41421 -3.58579 0 0 0 -1 123 207 243
0 -5 0 0 0 -1 0 162 232
0.707107 -4.29289 0 0 0 -1 36 175 235
1.41421 -3.58579 0 0 0 -1 72 188 239
2.12132 -2.87868 0 0 0 -1 108 201 242
-1 -5 0 0 0 -1 204 236 250
-0.292893 -4.29289 0 0 0 -1 240 250 254
0.414214 -3.58579 0 0 0 -1 21 170 234
1.12132 -2.87868 0 0 0 -1 57 183 237
1.82843 -2.17157 0 0 0 -1 133 132 133
-2 -5 0 0 0 -1 153 218 246
-1.29289 -4.29289 0 0 0 -1 189 231 249
-0.585786 -3.58579 0 0 0 -1 225 244 252
0.12132 -2.87868 0 0 0 -1 6 164 233
0.828427 -2.17157 0 0 0 -1 133 107 127
-3 -5 0 0 0 -1 0 162 232
-2.29289 -4.29289 0 0 0 -1 138 212 244
-1.58579 -3.58579 0 0 0 -1 174 226 248
-0.87868 -2.87868 0 0 0 -1 210 239 251
-0.171573 -2.17157 0 0 0 -1 130 207 153
0.535534 -1.46447 0 0 0 -1 160 81 97
-4 -5 0 0 0 -1 0 162 232
-3.29289 -4.29289 0 0 0 -1 0 162 232
-2.58579 -3.58579 0 0 0 -1 0 162 232
-1.87868 -2.87868 0 0 0 -1 159 220 246
-1.17157 -2.17157 0 0 0 -1 131 182 146
-0.464466 -1.46447 0 0 0 -1 105 188 125
0.24264 -0.75736 0 0 0 -1 195 55 68
-5 -5 0 0 0 -1 0 162 232
-4.29289 -4.29289 0 0 0 -1 0 162 232
-3.58579 -3.58579 0 0 0 -1 0 162 232
-2.87868 -2.87868 0 0 0 -1 0 162 232
-2.17157 -2.17157 0 0 0 -1 132 157 140
-1.46447 -1.46447 0 0 0 -1 119 161 118
-0.75736 -0.75736 0 0 0 -1 88 168 97
-0.0502524 -0.0502524 0 0 0 -1 38 176 77
