ply
format ascii 1.0
comment Generated by InterDigital model processor
element vertex 110
property float x
property float y
property float z
property float nx
property float ny
property float nz
property uchar red
property uchar green
property uchar blue
end_header
-4.49852991 -4.49852991 0 0 0 -1 0 162 232
-3.49852943 -4.49852943 0 0 0 -1 0 162 232
-3.49558878 -3.49558878 0 0 0 -1 0 162 232
-2.49852991 -4.49852991 0 0 0 -1 0 162 232
-2.49558878 -3.49558878 0 0 0 -1 0 162 232
-2.49264812 -2.49264812 0 0 0 -1 0 162 232
-1.49852967 -4.49852943 0 0 0 -1 0 162 232
-1.49558878 -3.49558878 0 0 0 -1 0 162 232
-1.49264789 -2.49264789 0 0 0 -1 0 162 232
-1.48970747 -1.48970747 0 0 0 -1 0 162 232
-0.498529911 -4.49852991 0 0 0 -1 0 162 232
-0.495588779 -3.49558854 0 0 0 -1 0 162 232
-0.492648184 -2.49264812 0 0 0 -1 0 162 232
-0.489707589 -1.48970735 0 0 0 -1 0 162 232
-0.486766905 -0.486766905 0 0 0 -1 0 162 232
0.501470089 -4.49852991 0 0 0 -1 255 255 255
0.504411101 -3.49558878 0 0 0 -1 255 255 255
0.507351577 -2.49264812 0 0 0 -1 255 255 255
0.51029253 -1.48970735 0 0 0 -1 255 255 255
0.513233185 -0.486766905 0 0 0 -1 255 255 255
1.50146985 -4.49852943 0 0 0 -1 255 255 255
1.50441086 -3.49558878 0 0 0 -1 255 255 255
1.50735164 -2.49264812 0 0 0 -1 255 255 255
1.51029217 -1.48970735 0 0 0 -1 255 255 255
2.50147009 -4.49852991 0 0 0 -1 255 255 255
2.50441098 -3.49558854 0 0 0 -1 255 255 255
2.50735188 -2.49264812 0 0 0 -1 255 255 255
3.50147104 -4.49852991 0 0 0 -1 255 255 255
3.50441122 -3.49558878 0 0 0 -1 255 255 255
4.50147057 -4.49852943 0 0 0 -1 255 255 255
0.513259232 0.513259768 0 0 0 -1 34 177 76
1.51031244 -0.489687443 0 0 0 -1 255 255 255
1.51031244 0.510312915 0 0 0 -1 34 177 76
1.51031244 1.51031244 0 0 0 -1 34 177 76
2.50736618 -1.49263418 0 0 0 -1 255 255 255
2.50736618 -0.492633879 0 0 0 -1 255 255 255
2.50736618 0.507366717 0 0 0 -1 34 177 76
2.50736618 1.50736594 0 0 0 -1 34 177 76
2.50736618 2.50736618 0 0 0 -1 34 177 76
3.5044198 -2.4955802 0 0 0 -1 255 255 255
3.50442004 -1.49558043 0 0 0 -1 255 255 255
3.50442004 -0.495580554 0 0 0 -1 255 255 255
3.5044198 0.504420161 0 0 0 -1 34 177 76
3.5044198 1.50441957 0 0 0 -1 34 177 76
3.50442004 2.5044198 0 0 0 -1 34 177 76
3.50442004 3.50442004 0 0 0 -1 34 177 76
4.50147295 -3.49852681 0 0 0 -1 255 255 255
4.50147343 -2.49852705 0 0 0 -1 255 255 255
4.50147295 -1.49852693 0 0 0 -1 255 255 255
4.50147295 -0.498526931 0 0 0 -1 255 255 255
4.50147343 0.501473546 0 0 0 -1 34 177 76
4.50147343 1.50147319 0 0 0 -1 34 177 76
4.50147343 2.50147343 0 0 0 -1 34 177 76
4.50147343 3.50147367 0 0 0 -1 34 177 76
4.50147343 4.50147343 0 0 0 -1 34 177 76
-3.49852633 4.50147343 0 -0 0 -1 237 28 36
-2.4955802 3.5044198 0 -0 0 -1 237 28 36
-2.49852657 4.50147343 0 -0 0 -1 237 28 36
-1.49263358 2.50736618 0 -0 0 -1 237 28 36
-1.49557996 3.50442004 0 -0 0 -1 237 28 36
-1.49852633 4.50147343 0 -0 0 -1 237 28 36
-0.4896878 1.51031244 0 -0 0 -1 237 28 36
-0.492634296 2.50736618 0 -0 0 -1 237 28 36
-0.495580435 3.50442004 0 -0 0 -1 237 28 36
-0.498527288 4.50147343 0 -0 0 -1 237 28 36
0.513259232 0.513259232 0 -0 0 -1 34 177 76
0.510312676 1.51031244 0 -0 0 -1 34 177 76
0.50736624 2.50736618 0 -0 0 -1 34 177 76
0.504419565 3.50442004 0 -0 0 -1 34 177 76
0.501473546 4.50147343 0 -0 0 -1 34 177 76
1.51031244 1.51031244 0 -0 0 -1 34 177 76
1.50736618 2.50736618 0 -0 0 -1 34 177 76
1.50441968 3.5044198 0 -0 0 -1 34 177 76
1.50147319 4.50147343 0 -0 0 -1 34 177 76
2.50736618 2.50736618 0 -0 0 -1 34 177 76
2.5044198 3.50442028 0 -0 0 -1 34 177 76
2.50147319 4.50147295 0 -0 0 -1 34 177 76
3.50442004 3.50442004 0 -0 0 -1 34 177 76
3.50147367 4.50147343 0 -0 0 -1 34 177 76
4.50147343 4.50147343 0 -0 0 -1 34 177 76
-4.49852943 -4.49852943 0 -0 0 -1 0 162 232
-4.49852943 -3.49852943 0 -0 0 -1 0 162 232
-4.49852991 -2.49852991 0 -0 0 -1 0 162 232
-4.49852943 -1.49852979 0 -0 0 -1 0 162 232
-4.49852943 -0.498529792 0 -0 0 -1 0 162 232
-4.49852943 0.501470566 0 -0 0 -1 237 28 36
-4.49852943 1.50147009 0 -0 0 -1 237 28 36
-4.49852896 2.50146985 0 -0 0 -1 237 28 36
-4.49852991 3.50147104 0 -0 0 -1 237 28 36
-4.49852991 4.50147009 0 -0 0 -1 237 28 36
-3.49558902 -3.49558902 0 -0 0 -1 0 162 232
-3.49558878 -2.49558878 0 -0 0 -1 0 162 232
-3.49558878 -1.49558878 0 -0 0 -1 0 162 232
-3.49558878 -0.495589018 0 -0 0 -1 0 162 232
-3.49558902 0.504411459 0 -0 0 -1 237 28 36
-3.49558878 1.5044111 0 -0 0 -1 237 28 36
-3.49558854 2.50441098 0 -0 0 -1 237 28 36
-3.49558878 3.5044117 0 -0 0 -1 237 28 36
-2.49264812 -2.49264812 0 -0 0 -1 0 162 232
-2.49264836 -1.49264836 0 -0 0 -1 0 162 232
-2.49264812 -0.492648184 0 -0 0 -1 0 162 232
-2.49264812 0.507351816 0 -0 0 -1 237 28 36
-2.49264812 1.50735164 0 -0 0 -1 237 28 36
-2.49264812 2.50735188 0 -0 0 -1 237 28 36
-1.48970759 -1.48970759 0 -0 0 -1 0 162 232
-1.48970759 -0.489707619 0 -0 0 -1 0 162 232
-1.48970747 0.510292768 0 -0 0 -1 237 28 36
-1.48970747 1.51029229 0 -0 0 -1 237 28 36
-0.486766845 -0.486766845 0 -0 0 -1 0 162 232
-0.486766815 0.513233423 0 -0 0 -1 237 28 36
