ply
format ascii 1.0
comment Generated by InterDigital model processor
element vertex 81
property float x
property float y
property float z
property float nx
property float ny
property float nz
property uchar red
property uchar green
property uchar blue
end_header
-5 -5 0 0 0 -1 255 0 0
-5 5 0 0 0 -1 0 255 0
0 0 0 0 0 -1 0 0 255
-5 0 0 0 0 -1 128 128 0
-2.5 2.5 0 0 0 -1 0 128 128
-2.5 -2.5 0 0 0 -1 128 0 128
-3.75 1.25 0 0 0 -1 64 128 64
-2.5 0 0 0 0 -1 64 64 128
-3.75 -1.25 0 0 0 -1 128 64 64
-3.75 0 0 0 0 -1 96 96 64
-2.5 1.25 0 0 0 -1 32 96 128
-2.5 -1.25 0 0 -0 -1 96 32 128
-5 -2.5 0 0 0 -1 191 64 0
-3.75 -3.75 0 0 0 -1 191 0 64
-3.75 -2.5 0 0 0 -1 159 32 64
-5 -3.75 0 0 0 -1 223 32 0
-5 -1.25 0 0 0 -1 159 96 0
-5 2.5 0 0 0 -1 64 191 0
-3.75 3.75 0 0 0 -1 0 191 64
-3.75 2.5 0 0 0 -1 32 159 64
-5 1.25 0 0 0 -1 96 159 0
-5 3.75 0 0 0 -1 32 223 0
-1.25 1.25 0 0 0 -1 0 64 191
-1.25 -1.25 0 0 0 -1 64 0 191
-1.25 0 0 0 -0 -1 32 32 191
5 5 0 0 0 -1 255 0 0
0 5 0 0 0 -1 128 128 0
2.5 2.5 0 0 0 -1 128 0 128
1.25 3.75 0 0 -0 -1 128 64 64
0 2.5 0 0 -0 -1 64 64 128
-1.25 3.75 0 0 -0 -1 64 128 64
0 3.75 0 -0 0 -1 96 96 64
1.25 2.5 0 0 -0 -1 96 32 128
-1.25 2.5 0 0 0 -1 32 96 128
-2.5 5 0 0 0 -1 64 191 0
-2.5 3.75 0 0 -0 -1 32 159 64
-3.75 5 0 0 0 -1 32 223 0
-1.25 5 0 0 0 -1 96 159 0
2.5 5 0 0 0 -1 191 64 0
3.75 3.75 0 0 0 -1 191 0 64
2.5 3.75 0 0 -0 -1 159 32 64
1.25 5 0 0 0 -1 159 96 0
3.75 5 0 0 0 -1 223 32 0
1.25 1.25 0 -0 0 -1 64 0 191
0 1.25 0 0 0 -1 32 32 191
5 -5 0 0 -0 -1 0 255 0
5 0 0 0 -0 -1 128 128 0
2.5 -2.5 0 0 -0 -1 0 128 128
3.75 -1.25 0 -0 0 -1 64 128 64
2.5 0 0 -0 0 -1 64 64 128
3.75 1.25 0 -0 0 -1 128 64 64
3.75 0 0 0 0 -1 96 96 64
2.5 -1.25 0 -0 0 -1 32 96 128
2.5 1.25 0 0 0 -1 96 32 128
5 2.5 0 0 -0 -1 191 64 0
3.75 2.5 0 -0 0 -1 159 32 64
5 3.75 0 0 -0 -1 223 32 0
5 1.25 0 0 -0 -1 159 96 0
5 -2.5 0 0 -0 -1 64 191 0
3.75 -3.75 0 0 -0 -1 0 191 64
3.75 -2.5 0 -0 0 -1 32 159 64
5 -1.25 0 0 -0 -1 96 159 0
5 -3.75 0 0 -0 -1 32 223 0
1.25 -1.25 0 0 0 -1 0 64 191
1.25 0 0 0 0 -1 32 32 191
0 -5 0 0 0 -1 128 128 0
-1.25 -3.75 0 0 0 -1 128 64 64
0 -2.5 0 0 0 -1 64 64 128
1.25 -3.75 0 0 0 -1 64 128 64
0 -3.75 0 0 0 -1 96 96 64
-1.25 -2.5 0 0 0 -1 96 32 128
1.25 -2.5 0 0 0 -1 32 96 128
2.5 -5 0 0 0 -1 64 191 0
2.5 -3.75 0 0 0 -1 32 159 64
3.75 -5 0 0 0 -1 32 223 0
1.25 -5 0 0 0 -1 96 159 0
-2.5 -5 0 0 0 -1 191 64 0
-2.5 -3.75 0 0 0 -1 159 32 64
-1.25 -5 0 0 0 -1 159 96 0
-3.75 -5 0 0 0 -1 223 32 0
0 -1.25 0 0 0 -1 32 32 191
