ply
format ascii 1.0
comment Generated by InterDigital model processor
element vertex 116
property float x
property float y
property float z
property float nx
property float ny
property float nz
property uchar red
property uchar green
property uchar blue
end_header
-5 -5 0 0 0 -1 0 162 232
-5 -3.88889 0 0 0 -1 0 162 232
-5 -2.77778 0 0 0 -1 0 162 232
-5 -1.66667 0 0 0 -1 158 73 101
-5 -0.555555 0 0 0 -1 211 43 58
-5 0.555556 0 0 0 -1 26 147 210
-5 1.66667 0 0 0 -1 79 117 167
-5 2.77778 0 0 0 -1 237 28 36
-5 3.88889 0 0 0 -1 237 28 36
-5 5 0 0 0 -1 237 28 36
-3.88889 -3.88889 0 0 0 -1 0 162 232
-3.88889 -2.77778 0 0 0 -1 0 162 232
-3.88889 -1.66667 0 0 0 -1 158 73 101
-3.88889 -0.555555 0 0 0 -1 211 43 58
-3.88889 0.555556 0 0 0 -1 26 147 210
-3.88889 1.66667 0 0 0 -1 79 117 167
-3.88889 2.77778 0 0 0 -1 237 28 36
-3.88889 3.88889 0 0 0 -1 237 28 36
-2.77778 -2.77778 0 0 0 -1 0 162 232
-2.77778 -1.66667 0 0 0 -1 158 73 101
-2.77778 -0.555555 0 0 0 -1 211 43 58
-2.77778 0.555556 0 0 0 -1 26 147 210
-2.77778 1.66667 0 0 0 -1 79 117 167
-2.77778 2.77778 0 0 0 -1 237 28 36
-1.66667 -1.66667 0 0 0 -1 124 160 124
-1.66667 -0.555555 0 0 0 -1 109 138 83
-1.66667 0.555556 0 0 0 -1 162 213 227
-1.66667 1.66667 0 0 0 -1 147 192 186
-0.555555 -0.555555 0 0 0 -1 75 170 92
-0.555555 0.555556 0 0 0 -1 208 235 232
-5 5 0 0 0 -1 237 28 36
-3.88889 3.88889 0 0 0 -1 237 28 36
-3.88889 5 0 0 0 -1 237 28 36
-2.77778 2.77778 0 0 0 -1 237 28 36
-2.77778 3.88889 0 0 0 -1 237 28 36
-2.77778 5 0 0 0 -1 237 28 36
-1.66667 1.66667 0 0 0 -1 147 192 186
-1.66667 2.77778 0 0 0 -1 102 127 63
-1.66667 3.88889 0 0 0 -1 102 127 63
-1.66667 5 0 0 0 -1 102 127 63
-0.555555 0.555556 0 0 0 -1 208 235 232
-0.555555 1.66667 0 0 0 -1 170 217 192
-0.555555 2.77778 0 0 0 -1 57 160 72
-0.555555 3.88889 0 0 0 -1 57 160 72
-0.555555 5 0 0 0 -1 57 160 72
0.555556 0.555556 0 0 0 -1 49 158 213
0.555556 1.66667 0 0 0 -1 90 130 170
0.555556 2.77778 0 0 0 -1 214 45 40
0.555556 3.88889 0 0 0 -1 214 45 40
0.555556 5 0 0 0 -1 214 45 40
1.66667 1.66667 0 0 0 -1 113 155 176
1.66667 2.77778 0 0 0 -1 169 78 49
1.66667 3.88889 0 0 0 -1 169 78 49
1.66667 5 0 0 0 -1 169 78 49
2.77778 2.77778 0 0 0 -1 34 177 76
2.77778 3.88889 0 0 0 -1 34 177 76
2.77778 5 0 0 0 -1 34 177 76
3.88889 3.88889 0 0 0 -1 34 177 76
3.88889 5 0 0 0 -1 34 177 76
5 5 0 0 0 -1 34 177 76
0.555556 -0.555555 0 0 -0 -1 194 59 62
0.555556 0.555556 0 0 -0 -1 49 158 213
1.66667 -1.66667 0 0 -0 -1 141 116 113
1.66667 -0.555555 0 0 -0 -1 160 90 70
1.66667 0.555556 0 0 -0 -1 94 180 219
1.66667 1.66667 0 0 -0 -1 113 155 176
2.77778 -2.77778 0 0 -0 -1 255 255 255
2.77778 -1.66667 0 0 -0 -1 108 203 136
2.77778 -0.555555 0 0 -0 -1 59 186 96
2.77778 0.555556 0 0 -0 -1 230 246 235
2.77778 1.66667 0 0 -0 -1 181 229 195
2.77778 2.77778 0 0 -0 -1 34 177 76
3.88889 -3.88889 0 0 -0 -1 255 255 255
3.88889 -2.77778 0 0 -0 -1 255 255 255
3.88889 -1.66667 0 0 -0 -1 108 203 136
3.88889 -0.555555 0 0 -0 -1 59 186 96
3.88889 0.555556 0 0 -0 -1 230 246 235
3.88889 1.66667 0 0 -0 -1 181 229 195
3.88889 2.77778 0 0 -0 -1 34 177 76
3.88889 3.88889 0 0 -0 -1 34 177 76
5 -5 0 0 -0 -1 255 255 255
5 -3.88889 0 0 -0 -1 255 255 255
5 -2.77778 0 0 -0 -1 255 255 255
5 -1.66667 0 0 -0 -1 108 203 136
5 -0.555555 0 0 -0 -1 59 186 96
5 0.555556 0 0 -0 -1 230 246 235
5 1.66667 0 0 -0 -1 181 229 195
5 2.77778 0 0 -0 -1 34 177 76
5 3.88889 0 0 -0 -1 34 177 76
5 5 0 0 -0 -1 34 177 76
-5 -5 0 0 0 -1 0 162 232
-3.88889 -5 0 0 0 -1 0 162 232
-3.88889 -3.88889 0 0 0 -1 0 162 232
-2.77778 -5 0 0 0 -1 0 162 232
-2.77778 -3.88889 0 0 0 -1 0 162 232
-2.77778 -2.77778 0 0 0 -1 0 162 232
-1.66667 -5 0 0 0 -1 170 224 247
-1.66667 -3.88889 0 0 0 -1 170 224 247
-1.66667 -2.77778 0 0 0 -1 170 224 247
-1.66667 -1.66667 0 0 0 -1 124 160 124
-0.555555 -5 0 0 0 -1 227 245 252
-0.555555 -3.88889 0 0 0 -1 227 245 252
-0.555555 -2.77778 0 0 0 -1 227 245 252
-0.555555 -1.66667 0 0 0 -1 113 189 132
-0.555555 -0.555555 0 0 0 -1 75 170 92
0.555556 -5 0 0 0 -1 28 172 235
0.555556 -3.88889 0 0 0 -1 28 172 235
0.555556 -2.77778 0 0 0 -1 28 172 235
0.555556 -1.66667 0 0 0 -1 152 87 105
1.66667 -5 0 0 0 -1 85 193 240
1.66667 -3.88889 0 0 0 -1 85 193 240
1.66667 -2.77778 0 0 0 -1 85 193 240
2.77778 -5 0 0 0 -1 255 255 255
2.77778 -3.88889 0 0 0 -1 255 255 255
3.88889 -5 0 0 0 -1 255 255 255
5 -5 0 0 0 -1 255 255 255
