ply
format ascii 1.0
comment Generated by InterDigital model processor
element vertex 103
property float x
property float y
property float z
property float nx
property float ny
property float nz
property uchar red
property uchar green
property uchar blue
end_header
-5 -5 0 0 0 -1 0 162 232
-5 -3.88888884 0 0 0 -1 0 162 232
-5 -2.77777767 0 0 0 -1 0 162 232
-5 -1.66666651 0 0 0 -1 40 140 199
-5 -0.555555344 0 0 0 -1 92 110 156
-5 0.55555582 0 0 0 -1 145 80 112
-5 1.66666698 0 0 0 -1 198 50 69
-5 2.77777815 0 0 0 -1 237 28 36
-5 3.88888931 0 0 0 -1 237 28 36
-5 5 0 0 0 -1 237 28 36
-3.88888884 -3.88888884 0 0 0 -1 0 162 232
-3.88888884 -2.77777767 0 0 0 -1 0 162 232
-3.88888884 -1.66666651 0 0 0 -1 40 140 199
-3.88888884 -0.555555344 0 0 0 -1 92 110 156
-3.88888884 0.55555582 0 0 0 -1 145 80 112
-3.88888884 1.66666698 0 0 0 -1 198 50 69
-3.88888884 2.77777815 0 0 0 -1 237 28 36
-3.88888884 3.88888931 0 0 0 -1 237 28 36
-2.77777767 -2.77777767 0 0 0 -1 0 162 232
-2.77777767 -1.66666651 0 0 0 -1 40 140 199
-2.77777767 -0.555555344 0 0 0 -1 92 110 156
-2.77777767 0.55555582 0 0 0 -1 145 80 112
-2.77777767 1.66666698 0 0 0 -1 198 50 69
-2.77777767 2.77777815 0 0 0 -1 237 28 36
-1.66666651 -1.66666651 0 0 0 -1 69 157 204
-1.66666651 -0.555555344 0 0 0 -1 105 129 161
-1.66666651 0.55555582 0 0 0 -1 141 101 118
-1.66666651 1.66666698 0 0 0 -1 176 74 75
-0.555555344 -0.555555344 0 0 0 -1 122 155 167
-0.555555344 0.55555582 0 0 0 -1 135 130 125
-3.88888884 5 0 0 0 -1 237 28 36
-2.77777767 3.88888931 0 0 0 -1 237 28 36
-2.77777767 5 0 0 0 -1 237 28 36
-1.66666651 1.66666698 0 0 0 -1 176 74 75
-1.66666651 2.77777815 0 0 0 -1 203 53 43
-1.66666651 3.88888931 0 0 0 -1 203 53 43
-1.66666651 5 0 0 0 -1 203 53 43
-0.555555344 1.66666698 0 0 0 -1 148 105 83
-0.555555344 2.77777815 0 0 0 -1 158 86 52
-0.555555344 3.88888931 0 0 0 -1 158 86 52
-0.555555344 5 0 0 0 -1 158 86 52
0.55555582 0.55555582 0 0 0 -1 130 158 133
0.55555582 1.66666698 0 0 0 -1 120 136 91
0.55555582 2.77777815 0 0 0 -1 113 119 60
0.55555582 3.88888931 0 0 0 -1 113 119 60
0.55555582 5 0 0 0 -1 113 119 60
1.66666698 1.66666698 0 0 0 -1 92 167 100
1.66666698 2.77777815 0 0 0 -1 68 152 69
1.66666698 3.88888931 0 0 0 -1 68 152 69
1.66666698 5 0 0 0 -1 68 152 69
2.77777815 2.77777815 0 0 0 -1 34 177 76
2.77777815 3.88888931 0 0 0 -1 34 177 76
2.77777815 5 0 0 0 -1 34 177 76
3.88888931 3.88888931 0 0 0 -1 34 177 76
3.88888931 5 0 0 0 -1 34 177 76
5 5 0 0 0 -1 34 177 76
0.55555582 -0.555555344 0 0 -0 -1 139 180 174
1.66666698 -1.66666651 0 0 -0 -1 188 225 221
1.66666698 -0.555555344 0 0 -0 -1 156 206 180
1.66666698 0.55555582 0 0 -0 -1 124 186 140
2.77777815 -2.77777767 0 0 -0 -1 255 255 255
2.77777815 -1.66666651 0 0 -0 -1 218 242 225
2.77777815 -0.555555344 0 0 -0 -1 169 225 185
2.77777815 0.55555582 0 0 -0 -1 120 207 146
2.77777815 1.66666698 0 0 -0 -1 71 190 106
3.88888931 -3.88888884 0 0 -0 -1 255 255 255
3.88888931 -2.77777767 0 0 -0 -1 255 255 255
3.88888931 -1.66666651 0 0 -0 -1 218 242 225
3.88888931 -0.555555344 0 0 -0 -1 169 225 185
3.88888931 0.55555582 0 0 -0 -1 120 207 146
3.88888931 1.66666698 0 0 -0 -1 71 190 106
3.88888931 2.77777815 0 0 -0 -1 34 177 76
5 -5 0 0 -0 -1 255 255 255
5 -3.88888884 0 0 -0 -1 255 255 255
5 -2.77777767 0 0 -0 -1 255 255 255
5 -1.66666651 0 0 -0 -1 218 242 225
5 -0.555555344 0 0 -0 -1 169 225 185
5 0.55555582 0 0 -0 -1 120 207 146
5 1.66666698 0 0 -0 -1 71 190 106
5 2.77777815 0 0 -0 -1 34 177 76
5 3.88888931 0 0 -0 -1 34 177 76
-3.88888884 -5 0 0 0 -1 0 162 232
-2.77777767 -5 0 0 0 -1 0 162 232
-2.77777767 -3.88888884 0 0 0 -1 0 162 232
-1.66666651 -5 0 0 0 -1 43 178 236
-1.66666651 -3.88888884 0 0 0 -1 43 178 236
-1.66666651 -2.77777767 0 0 0 -1 43 178 236
-1.66666651 -1.66666651 0 0 0 -1 69 157 204
-0.555555344 -5 0 0 0 -1 99 198 241
-0.555555344 -3.88888884 0 0 0 -1 99 198 241
-0.555555344 -2.77777767 0 0 0 -1 99 198 241
-0.555555344 -1.66666651 0 0 0 -1 109 179 209
-0.555555344 -0.555555344 0 0 0 -1 122 155 167
0.55555582 -5 0 0 0 -1 156 219 246
0.55555582 -3.88888884 0 0 0 -1 156 219 246
0.55555582 -2.77777767 0 0 0 -1 156 219 246
0.55555582 -1.66666651 0 0 0 -1 149 202 215
1.66666698 -5 0 0 0 -1 213 240 251
1.66666698 -3.88888884 0 0 0 -1 213 240 251
1.66666698 -2.77777767 0 0 0 -1 213 240 251
2.77777815 -5 0 0 0 -1 255 255 255
2.77777815 -3.88888884 0 0 0 -1 255 255 255
3.88888931 -5 0 0 0 -1 255 255 255
