ply
format ascii 1.0
comment Generated by InterDigital model processor
element vertex 180
property float x
property float y
property float z
property float nx
property float ny
property float nz
property uchar red
property uchar green
property uchar blue
end_header
-5 -5 0 0 0 -1 0 162 232
-5 -4 0 0 0 -1 47 135 193
-5 -3 0 0 0 -1 95 108 154
-4.29289341 -3.70710683 0 0 0 -1 81 143 185
-5 -2 0 0 0 -1 142 82 114
-4.29289341 -2.70710683 0 0 0 -1 115 117 146
-3.58578634 -3.41421366 0 0 0 -1 106 151 178
-5 -1 0 0 0 -1 190 55 75
-4.29289341 -1.70710683 0 0 0 -1 149 92 108
-3.58578634 -2.41421366 0 0 0 -1 128 127 140
-5 0 0 0 0 -1 237 28 36
-4.29289341 -0.707106769 0 0 0 -1 184 67 69
-3.58578634 -1.41421354 0 0 0 -1 149 104 101
-2.87867975 -2.12132025 0 0 0 -1 133 138 133
-5 1 0 0 0 -1 237 28 36
-4.29289341 0.292893231 0 0 0 -1 208 49 42
-3.58578634 -0.414213538 0 0 0 -1 171 80 63
-2.87867975 -1.12132025 0 0 0 -1 141 116 95
-2.17157292 -1.82842708 0 0 0 -1 130 150 127
-5 2 0 0 0 -1 237 28 36
-4.29289341 1.29289317 0 0 0 -1 208 49 42
-3.58578634 0.585786462 0 0 0 -1 180 70 47
-2.87867975 -0.121320248 0 0 0 -1 150 94 58
-2.17157292 -0.828427076 0 0 0 -1 126 129 90
-5 3 0 0 0 -1 237 28 36
-4.29289341 2.29289317 0 0 0 -1 208 49 42
-3.58578634 1.58578646 0 0 0 -1 180 70 47
-2.87867975 0.878679752 0 0 0 -1 151 91 53
-2.17157292 0.171572924 0 0 0 -1 122 112 59
-1.46446609 -0.535533905 0 0 0 -1 103 143 84
-5 4 0 0 0 -1 237 28 36
-4.29289341 3.29289317 0 0 0 -1 208 49 42
-3.58578634 2.58578634 0 0 0 -1 180 70 47
-2.87867975 1.87867975 0 0 0 -1 151 91 53
-2.17157292 1.17157292 0 0 0 -1 122 112 59
-1.46446609 0.464466095 0 0 0 -1 93 133 64
-0.757359505 -0.242640495 0 0 0 -1 72 159 79
-5 5 0 0 0 -1 237 28 36
-4.29289341 4.29289341 0 0 0 -1 208 49 42
-3.58578634 3.58578634 0 0 0 -1 180 70 47
-2.87867975 2.87867975 0 0 0 -1 151 91 53
-2.17157292 2.17157292 0 0 0 -1 122 112 59
-1.46446609 1.46446609 0 0 0 -1 93 133 64
-0.757359505 0.757359505 0 0 0 -1 65 154 70
-0.0502524376 0.0502524376 0 0 0 -1 36 176 76
-5 5 0 0 0 -1 237 28 36
-4 5 0 0 0 -1 196 58 44
-3 5 0 0 0 -1 156 88 52
-3.70710683 4.29289341 0 0 0 -1 185 67 46
-2 5 0 0 0 -1 115 117 60
-2.70710683 4.29289341 0 0 0 -1 144 96 54
-3.41421366 3.58578634 0 0 0 -1 173 75 49
-1 5 0 0 0 -1 75 147 68
-1.70710683 4.29289341 0 0 0 -1 103 126 62
-2.41421366 3.58578634 0 0 0 -1 132 105 57
0 5 0 0 0 -1 34 177 76
-0.707106769 4.29289341 0 0 0 -1 63 156 70
-1.41421354 3.58578634 0 0 0 -1 91 135 65
-2.12132025 2.87867975 0 0 0 -1 120 114 59
1 5 0 0 0 -1 34 177 76
0.292893231 4.29289341 0 0 0 -1 34 177 76
-0.414213538 3.58578634 0 0 0 -1 51 165 73
-1.12132025 2.87867975 0 0 0 -1 80 144 67
-1.82842708 2.17157292 0 0 0 -1 108 123 61
2 5 0 0 0 -1 34 177 76
1.29289317 4.29289341 0 0 0 -1 34 177 76
0.585786462 3.58578634 0 0 0 -1 34 177 76
-0.121320248 2.87867975 0 0 0 -1 39 173 75
-0.828427076 2.17157292 0 0 0 -1 68 152 69
3 5 0 0 0 -1 34 177 76
2.29289317 4.29289341 0 0 0 -1 34 177 76
1.58578646 3.58578634 0 0 0 -1 34 177 76
0.878679752 2.87867975 0 0 0 -1 34 177 76
0.171572924 2.17157292 0 0 0 -1 34 177 76
-0.535533905 1.46446609 0 0 0 -1 56 161 72
4 5 0 0 0 -1 34 177 76
3.29289317 4.29289341 0 0 0 -1 34 177 76
2.58578634 3.58578634 0 0 0 -1 34 177 76
1.87867975 2.87867975 0 0 0 -1 34 177 76
1.17157292 2.17157292 0 0 0 -1 34 177 76
0.464466095 1.46446609 0 0 0 -1 34 177 76
-0.242640495 0.757359505 0 0 0 -1 44 170 74
5 5 0 0 0 -1 34 177 76
4.29289341 4.29289341 0 0 0 -1 34 177 76
3.58578634 3.58578634 0 0 0 -1 34 177 76
2.87867975 2.87867975 0 0 0 -1 34 177 76
2.17157292 2.17157292 0 0 0 -1 34 177 76
1.46446609 1.46446609 0 0 0 -1 34 177 76
0.757359505 0.757359505 0 0 0 -1 34 177 76
0.0502524376 0.0502524376 0 0 0 -1 34 177 76
5 5 0 0 -0 -1 34 177 76
5 4 0 0 -0 -1 34 177 76
5 3 0 0 -0 -1 34 177 76
4.29289341 3.70710683 0 0 -0 -1 34 177 76
5 2 0 0 -0 -1 34 177 76
4.29289341 2.70710683 0 0 -0 -1 34 177 76
3.58578634 3.41421366 0 0 -0 -1 34 177 76
5 1 0 0 -0 -1 34 177 76
4.29289341 1.70710683 0 0 -0 -1 34 177 76
3.58578634 2.41421366 0 0 -0 -1 34 177 76
5 0 0 0 -0 -1 34 177 76
4.29289341 0.707106769 0 0 -0 -1 34 177 76
3.58578634 1.41421354 0 0 -0 -1 34 177 76
2.87867975 2.12132025 0 0 -0 -1 34 177 76
5 -1 0 0 -0 -1 78 193 112
4.29289341 -0.292893231 0 0 -0 -1 47 182 86
3.58578634 0.414213538 0 0 -0 -1 34 177 76
2.87867975 1.12132025 0 0 -0 -1 34 177 76
2.17157292 1.82842708 0 0 -0 -1 34 177 76
5 -2 0 0 -0 -1 122 208 148
4.29289341 -1.29289317 0 0 -0 -1 91 197 122
3.58578634 -0.585786462 0 0 -0 -1 60 186 97
2.87867975 0.121320248 0 0 -0 -1 34 177 76
2.17157292 0.828427076 0 0 -0 -1 34 177 76
5 -3 0 0 -0 -1 167 224 183
4.29289341 -2.29289317 0 0 -0 -1 135 213 158
3.58578634 -1.58578646 0 0 -0 -1 104 202 133
2.87867975 -0.878679752 0 0 -0 -1 73 191 107
2.17157292 -0.171572924 0 0 -0 -1 42 180 82
1.46446609 0.535533905 0 0 -0 -1 34 177 76
5 -4 0 0 -0 -1 211 239 219
4.29289341 -3.29289317 0 0 -0 -1 180 228 194
3.58578634 -2.58578634 0 0 -0 -1 148 217 169
2.87867975 -1.87867975 0 0 -0 -1 117 206 143
2.17157292 -1.17157292 0 0 -0 -1 86 195 118
1.46446609 -0.464466095 0 0 -0 -1 55 184 93
0.757359505 0.242640495 0 0 -0 -1 34 177 76
5 -5 0 0 -0 -1 255 255 255
4.29289341 -4.29289341 0 0 -0 -1 224 244 230
3.58578634 -3.58578634 0 0 -0 -1 192 233 204
2.87867975 -2.87867975 0 0 -0 -1 161 222 179
2.17157292 -2.17157292 0 0 -0 -1 130 211 154
1.46446609 -1.46446609 0 0 -0 -1 99 200 128
0.757359505 -0.757359505 0 0 -0 -1 67 189 103
0.0502524376 -0.0502524376 0 0 -0 -1 36 178 78
5 -5 0 0 0 -1 255 255 255
4 -5 0 0 0 -1 255 255 255
3 -5 0 0 0 -1 255 255 255
3.70710683 -4.29289341 0 0 0 -1 224 244 230
2 -5 0 0 0 -1 255 255 255
2.70710683 -4.29289341 0 0 0 -1 224 244 230
3.41421366 -3.58578634 0 0 0 -1 192 233 204
1 -5 0 0 0 -1 255 255 255
1.70710683 -4.29289341 0 0 0 -1 224 244 230
2.41421366 -3.58578634 0 0 0 -1 192 233 204
0 -5 0 0 0 -1 255 255 255
0.707106769 -4.29289341 0 0 0 -1 224 244 230
1.41421354 -3.58578634 0 0 0 -1 192 233 204
2.12132025 -2.87867975 0 0 0 -1 161 222 179
-1 -5 0 0 0 -1 204 236 250
-0.292893231 -4.29289341 0 0 0 -1 213 238 228
0.414213538 -3.58578634 0 0 0 -1 192 233 204
1.12132025 -2.87867975 0 0 0 -1 161 222 179
1.82842708 -2.17157292 0 0 0 -1 130 211 154
-2 -5 0 0 0 -1 153 218 246
-1.29289317 -4.29289341 0 0 0 -1 175 218 223
-0.585786462 -3.58578634 0 0 0 -1 178 220 201
0.121320248 -2.87867975 0 0 0 -1 161 222 179
0.828427076 -2.17157292 0 0 0 -1 130 211 154
-3 -5 0 0 0 -1 102 199 241
-2.29289317 -4.29289341 0 0 0 -1 137 198 218
-1.58578646 -3.58578634 0 0 0 -1 153 198 196
-0.878679752 -2.87867975 0 0 0 -1 151 201 174
-0.171572924 -2.17157292 0 0 0 -1 130 207 153
0.535533905 -1.46446609 0 0 0 -1 99 200 128
-4 -5 0 0 0 -1 51 181 237
-3.29289317 -4.29289341 0 0 0 -1 98 178 213
-2.58578634 -3.58578634 0 0 0 -1 128 177 190
-1.87867975 -2.87867975 0 0 0 -1 138 178 168
-1.17157292 -2.17157292 0 0 0 -1 131 182 146
-0.464466095 -1.46446609 0 0 0 -1 105 188 125
0.242640495 -0.757359505 0 0 0 -1 67 189 103
-5 -5 0 0 0 -1 0 162 232
-4.29289341 -4.29289341 0 0 0 -1 60 157 208
-3.58578634 -3.58578634 0 0 0 -1 103 155 184
-2.87867975 -2.87867975 0 0 0 -1 126 155 162
-2.17157292 -2.17157292 0 0 0 -1 132 157 140
-1.46446609 -1.46446609 0 0 0 -1 119 161 118
-0.757359505 -0.757359505 0 0 0 -1 88 168 97
-0.0502524376 -0.0502524376 0 0 0 -1 38 176 77
