ply
format ascii 1.0
comment Generated by InterDigital model processor
element vertex 180
property float x
property float y
property float z
property float nx
property float ny
property float nz
property uchar red
property uchar green
property uchar blue
end_header
-5 -5 0 0 0 -1 255 0 0
-5 -4 0 0 0 -1 230 26 0
-5 -3 0 0 0 -1 204 51 0
-4.29289 -3.70711 0 0 0 -1 204 15 36
-5 -2 0 0 0 -1 179 77 0
-4.29289 -2.70711 0 0 0 -1 179 40 36
-3.58579 -3.41421 0 0 0 -1 179 4 72
-5 -1 0 0 0 -1 153 102 0
-4.29289 -1.70711 0 0 0 -1 153 66 36
-3.58579 -2.41421 0 0 0 -1 153 30 72
-5 0 0 0 0 -1 128 128 0
-4.29289 -0.707107 0 0 0 -1 128 91 36
-3.58579 -1.41421 0 0 0 -1 128 55 72
-2.87868 -2.12132 0 0 0 -1 128 19 108
-5 1 0 0 0 -1 102 153 0
-4.29289 0.292893 0 0 0 -1 102 117 36
-3.58579 -0.414214 0 0 0 -1 102 81 72
-2.87868 -1.12132 0 0 0 -1 102 45 108
-2.17157 -1.82843 0 0 0 -1 102 9 144
-5 2 0 0 0 -1 77 179 0
-4.29289 1.29289 0 0 0 -1 77 142 36
-3.58579 0.585786 0 0 0 -1 77 106 72
-2.87868 -0.12132 0 0 0 -1 77 70 108
-2.17157 -0.828427 0 0 0 -1 77 34 144
-5 3 0 0 0 -1 51 204 0
-4.29289 2.29289 0 0 0 -1 51 168 36
-3.58579 1.58579 0 0 0 -1 51 132 72
-2.87868 0.87868 0 0 0 -1 51 96 108
-2.17157 0.171573 0 0 0 -1 51 60 144
-1.46447 -0.535534 0 0 0 -1 51 24 180
-5 4 0 0 0 -1 26 230 0
-4.29289 3.29289 0 0 0 -1 26 193 36
-3.58579 2.58579 0 0 0 -1 26 157 72
-2.87868 1.87868 0 0 0 -1 26 121 108
-2.17157 1.17157 0 0 0 -1 26 85 144
-1.46447 0.464466 0 0 0 -1 26 49 180
-0.75736 -0.24264 0 0 0 -1 26 13 216
-5 5 0 0 0 -1 0 255 0
-4.29289 4.29289 0 0 0 -1 0 219 36
-3.58579 3.58579 0 0 0 -1 0 183 72
-2.87868 2.87868 0 0 0 -1 0 147 108
-2.17157 2.17157 0 0 0 -1 0 111 144
-1.46447 1.46447 0 0 0 -1 0 75 180
-0.75736 0.75736 0 0 0 -1 0 39 216
-0.0502524 0.0502524 0 0 0 -1 0 3 252
-5 5 0 0 0 -1 0 255 0
-4 5 0 0 0 -1 26 230 0
-3 5 0 0 0 -1 51 204 0
-3.70711 4.29289 0 0 0 -1 15 204 36
-2 5 0 0 0 -1 77 179 0
-2.70711 4.29289 0 0 0 -1 40 179 36
-3.41421 3.58579 0 0 0 -1 4 179 72
-1 5 0 0 0 -1 102 153 0
-1.70711 4.29289 0 0 0 -1 66 153 36
-2.41421 3.58579 0 0 0 -1 30 153 72
0 5 0 0 0 -1 128 128 0
-0.707107 4.29289 0 0 0 -1 91 128 36
-1.41421 3.58579 0 0 0 -1 55 128 72
-2.12132 2.87868 0 0 0 -1 19 128 108
1 5 0 0 0 -1 153 102 0
0.292893 4.29289 0 0 0 -1 117 102 36
-0.414214 3.58579 0 0 0 -1 81 102 72
-1.12132 2.87868 0 0 0 -1 45 102 108
-1.82843 2.17157 0 0 0 -1 9 102 144
2 5 0 0 0 -1 179 77 0
1.29289 4.29289 0 0 0 -1 142 77 36
0.585786 3.58579 0 0 0 -1 106 77 72
-0.12132 2.87868 0 0 0 -1 70 77 108
-0.828427 2.17157 0 0 0 -1 34 77 144
3 5 0 0 0 -1 204 51 0
2.29289 4.29289 0 0 0 -1 168 51 36
1.58579 3.58579 0 0 0 -1 132 51 72
0.87868 2.87868 0 0 0 -1 96 51 108
0.171573 2.17157 0 0 0 -1 60 51 144
-0.535534 1.46447 0 0 0 -1 24 51 180
4 5 0 0 0 -1 230 26 0
3.29289 4.29289 0 0 0 -1 193 26 36
2.58579 3.58579 0 0 0 -1 157 26 72
1.87868 2.87868 0 0 0 -1 121 26 108
1.17157 2.17157 0 0 0 -1 85 26 144
0.464466 1.46447 0 0 0 -1 49 26 180
-0.24264 0.75736 0 0 0 -1 13 26 216
5 5 0 0 0 -1 255 0 0
4.29289 4.29289 0 0 0 -1 219 0 36
3.58579 3.58579 0 0 0 -1 183 0 72
2.87868 2.87868 0 0 0 -1 147 0 108
2.17157 2.17157 0 0 0 -1 111 0 144
1.46447 1.46447 0 0 0 -1 75 0 180
0.75736 0.75736 0 0 0 -1 39 0 216
0.0502524 0.0502524 0 0 0 -1 3 0 252
5 5 0 0 -0 -1 255 0 0
5 4 0 0 -0 -1 230 26 0
5 3 0 0 -0 -1 204 51 0
4.29289 3.70711 0 0 -0 -1 204 15 36
5 2 0 0 -0 -1 179 77 0
4.29289 2.70711 0 0 -0 -1 179 40 36
3.58579 3.41421 0 0 -0 -1 179 4 72
5 1 0 0 -0 -1 153 102 0
4.29289 1.70711 0 0 -0 -1 153 66 36
3.58579 2.41421 0 0 -0 -1 153 30 72
5 0 0 0 -0 -1 128 128 0
4.29289 0.707107 0 0 -0 -1 128 91 36
3.58579 1.41421 0 0 -0 -1 128 55 72
2.87868 2.12132 0 0 -0 -1 128 19 108
5 -1 0 0 -0 -1 102 153 0
4.29289 -0.292893 0 0 -0 -1 102 117 36
3.58579 0.414214 0 0 -0 -1 102 81 72
2.87868 1.12132 0 0 -0 -1 102 45 108
2.17157 1.82843 0 0 -0 -1 102 9 144
5 -2 0 0 -0 -1 77 179 0
4.29289 -1.29289 0 0 -0 -1 77 142 36
3.58579 -0.585786 0 0 -0 -1 77 106 72
2.87868 0.12132 0 0 -0 -1 77 70 108
2.17157 0.828427 0 0 -0 -1 77 34 144
5 -3 0 0 -0 -1 51 204 0
4.29289 -2.29289 0 0 -0 -1 51 168 36
3.58579 -1.58579 0 0 -0 -1 51 132 72
2.87868 -0.87868 0 0 -0 -1 51 96 108
2.17157 -0.171573 0 0 -0 -1 51 60 144
1.46447 0.535534 0 0 -0 -1 51 24 180
5 -4 0 0 -0 -1 26 230 0
4.29289 -3.29289 0 0 -0 -1 26 193 36
3.58579 -2.58579 0 0 -0 -1 26 157 72
2.87868 -1.87868 0 0 -0 -1 26 121 108
2.17157 -1.17157 0 0 -0 -1 26 85 144
1.46447 -0.464466 0 0 -0 -1 26 49 180
0.75736 0.24264 0 0 -0 -1 26 13 216
5 -5 0 0 -0 -1 0 255 0
4.29289 -4.29289 0 0 -0 -1 0 219 36
3.58579 -3.58579 0 0 -0 -1 0 183 72
2.87868 -2.87868 0 0 -0 -1 0 147 108
2.17157 -2.17157 0 0 -0 -1 0 111 144
1.46447 -1.46447 0 0 -0 -1 0 75 180
0.75736 -0.75736 0 0 -0 -1 0 39 216
0.0502524 -0.0502524 0 0 -0 -1 0 3 252
5 -5 0 0 0 -1 0 255 0
4 -5 0 0 0 -1 26 230 0
3 -5 0 0 0 -1 51 204 0
3.70711 -4.29289 0 0 0 -1 15 204 36
2 -5 0 0 0 -1 77 179 0
2.70711 -4.29289 0 0 0 -1 40 179 36
3.41421 -3.58579 0 0 0 -1 4 179 72
1 -5 0 0 0 -1 102 153 0
1.70711 -4.29289 0 0 0 -1 66 153 36
2.41421 -3.58579 0 0 0 -1 30 153 72
0 -5 0 0 0 -1 128 128 0
0.707107 -4.29289 0 0 0 -1 91 128 36
1.41421 -3.58579 0 0 0 -1 55 128 72
2.12132 -2.87868 0 0 0 -1 19 128 108
-1 -5 0 0 0 -1 153 102 0
-0.292893 -4.29289 0 0 0 -1 117 102 36
0.414214 -3.58579 0 0 0 -1 81 102 72
1.12132 -2.87868 0 0 0 -1 45 102 108
1.82843 -2.17157 0 0 0 -1 9 102 144
-2 -5 0 0 0 -1 179 77 0
-1.29289 -4.29289 0 0 0 -1 142 77 36
-0.585786 -3.58579 0 0 0 -1 106 77 72
0.12132 -2.87868 0 0 0 -1 70 77 108
0.828427 -2.17157 0 0 0 -1 34 77 144
-3 -5 0 0 0 -1 204 51 0
-2.29289 -4.29289 0 0 0 -1 168 51 36
-1.58579 -3.58579 0 0 0 -1 132 51 72
-0.87868 -2.87868 0 0 0 -1 96 51 108
-0.171573 -2.17157 0 0 0 -1 60 51 144
0.535534 -1.46447 0 0 0 -1 24 51 180
-4 -5 0 0 0 -1 230 26 0
-3.29289 -4.29289 0 0 0 -1 193 26 36
-2.58579 -3.58579 0 0 0 -1 157 26 72
-1.87868 -2.87868 0 0 0 -1 121 26 108
-1.17157 -2.17157 0 0 0 -1 85 26 144
-0.464466 -1.46447 0 0 0 -1 49 26 180
0.24264 -0.75736 0 0 0 -1 13 26 216
-5 -5 0 0 0 -1 255 0 0
-4.29289 -4.29289 0 0 0 -1 219 0 36
-3.58579 -3.58579 0 0 0 -1 183 0 72
-2.87868 -2.87868 0 0 0 -1 147 0 108
-2.17157 -2.17157 0 0 0 -1 111 0 144
-1.46447 -1.46447 0 0 0 -1 75 0 180
-0.75736 -0.75736 0 0 0 -1 39 0 216
-0.0502524 -0.0502524 0 0 0 -1 3 0 252
