ply
format ascii 1.0
comment Generated by InterDigital model processor
element vertex 53
property float x
property float y
property float z
property float nx
property float ny
property float nz
property uchar red
property uchar green
property uchar blue
end_header
-5 -5 0 0 0 -1 0 162 232
-5 5 0 0 0 -1 237 28 36
0 0 0 0 0 -1 132 156 150
-3.37641072 0.925186872 0 0 0 -1 162 70 98
-3.24717855 -1.85037363 0 0 0 -1 31 145 207
-4.87076855 2.22443938 0 0 0 -1 224 35 47
-1.49435759 1.29925251 0 0 0 -1 161 87 90
-1.88205361 -0.374065638 0 0 0 -1 108 119 152
-4.74153757 -0.551121235 0 0 0 -1 92 110 156
-3.63487363 -3.52369189 0 0 0 -1 0 162 232
-2.98871517 2.59850502 0 0 0 -1 237 28 36
-4.61230516 -3.32668066 0 0 0 -1 0 162 232
-3.76410723 -0.748131275 0 0 0 -1 83 115 163
-2.85948277 -0.177054405 0 0 0 -1 110 100 141
-4.48307514 3.89775753 0 0 0 -1 237 28 36
5 5 0 0 0 -1 34 177 76
0.925186872 3.37641072 0 0 0 -1 98 130 63
-1.85037363 3.24717855 0 0 0 -1 211 47 41
2.22443938 4.87076855 0 0 0 -1 45 169 74
1.29925251 1.49435759 0 0 0 -1 105 160 103
-0.374065638 1.88205361 0 0 0 -1 145 105 76
-0.551121235 4.74153757 0 0 0 -1 158 86 52
-3.52369189 3.63487363 0 0 0 -1 237 28 36
2.59850502 2.98871517 0 0 0 -1 34 177 76
-3.32668066 4.61230516 0 0 0 -1 237 28 36
-0.748131275 3.76410723 0 0 0 -1 166 80 50
-0.177054405 2.85948277 0 0 0 -1 143 97 55
3.89775753 4.48307514 0 0 0 -1 34 177 76
5 -5 0 0 -0 -1 255 255 255
3.37641072 -0.925186872 0 0 -0 -1 185 230 199
3.24717855 1.85037363 0 0 -0 -1 63 187 99
4.87076855 -2.22443938 0 0 -0 -1 243 251 245
1.49435759 -1.29925251 0 0 -0 -1 173 215 207
1.88205361 0.374065638 0 0 -0 -1 129 195 148
4.74153757 0.551121235 0 0 -0 -1 120 207 146
3.63487363 3.52369189 0 0 -0 -1 34 177 76
2.98871517 -2.59850502 0 0 -0 -1 255 255 255
4.61230516 3.32668066 0 0 -0 -1 34 177 76
3.76410723 0.748131275 0 0 -0 -1 111 204 139
2.85948277 0.177054405 0 0 -0 -1 137 213 159
4.48307514 -3.89775753 0 0 -0 -1 255 255 255
-0.925186872 -3.37641072 0 0 0 -1 80 191 239
1.85037363 -3.24717855 0 0 0 -1 222 243 252
-2.22443938 -4.87076855 0 0 0 -1 14 167 233
-1.29925251 -1.49435759 0 0 0 -1 87 160 199
0.374065638 -1.88205361 0 0 0 -1 143 203 222
0.551121235 -4.74153757 0 0 0 -1 156 219 246
3.52369189 -3.63487363 0 0 0 -1 255 255 255
-2.59850502 -2.98871517 0 0 0 -1 0 162 232
3.32668066 -4.61230516 0 0 0 -1 255 255 255
0.748131275 -3.76410723 0 0 0 -1 166 222 247
0.177054405 -2.85948277 0 0 0 -1 137 212 244
-3.89775753 -4.48307514 0 0 0 -1 0 162 232
