ply
format ascii 1.0
comment Generated by InterDigital model processor
element vertex 145
property float x
property float y
property float z
property float nx
property float ny
property float nz
property uchar red
property uchar green
property uchar blue
end_header
-5 -5 0 0 0 -1 0 162 232
-5 5 0 0 0 -1 237 28 36
0 0 0 0 0 -1 132 156 150
-5 0 0 0 0 -1 119 95 134
-2.5 2.5 0 0 0 -1 237 28 36
-2.5 -2.5 0 0 0 -1 0 162 232
-3.75 1.25 0 0 0 -1 178 62 85
-2.5 0 0 0 0 -1 119 95 134
-3.75 -1.25 0 0 0 -1 59 129 183
-3.125 0.625 0 0 0 -1 148 78 110
-3.125 -0.625 0 0 0 -1 89 112 159
-3.75 0 0 0 0 -1 119 95 134
-4.375 0.625 0 0 0 -1 148 78 110
-4.375 -0.625 0 0 0 -1 89 112 159
-3.125 1.875 0 0 0 -1 207 45 61
-2.5 1.25 0 0 0 -1 178 62 85
-2.5 -1.25 0 0 -0 -1 59 129 183
-3.125 -1.875 0 0 -0 -1 30 145 208
-5 -2.5 0 0 0 -1 0 162 232
-3.75 -3.75 0 0 0 -1 0 162 232
-4.375 -1.875 0 0 0 -1 30 145 208
-3.75 -2.5 0 0 0 -1 0 162 232
-4.375 -3.125 0 0 0 -1 0 162 232
-5 -3.75 0 0 0 -1 0 162 232
-4.375 -4.375 0 0 0 -1 0 162 232
-5 -1.25 0 0 0 -1 59 129 183
-3.125 -3.125 0 0 0 -1 0 162 232
-5 2.5 0 0 0 -1 237 28 36
-3.75 3.75 0 0 0 -1 237 28 36
-4.375 3.125 0 0 0 -1 237 28 36
-3.75 2.5 0 0 0 -1 237 28 36
-4.375 1.875 0 0 0 -1 207 45 61
-5 1.25 0 0 0 -1 178 62 85
-5 3.75 0 0 0 -1 237 28 36
-4.375 4.375 0 0 0 -1 237 28 36
-3.125 3.125 0 0 0 -1 237 28 36
-1.25 1.25 0 0 0 -1 156 95 94
-1.25 -1.25 0 0 0 -1 94 155 190
-1.25 0 0 0 -0 -1 125 125 142
-1.875 -0.625 0 0 -0 -1 99 126 162
-1.875 0.625 0 0 -0 -1 144 94 114
-1.875 1.875 0 0 0 -1 189 63 65
-0.625 0.625 0 0 0 -1 136 126 122
-0.625 -0.625 0 0 0 -1 120 155 170
-1.875 -1.875 0 -0 0 -1 54 158 211
5 5 0 0 0 -1 34 177 76
0 5 0 0 0 -1 136 103 56
2.5 2.5 0 0 0 -1 34 177 76
1.25 3.75 0 0 -0 -1 85 140 66
0 2.5 0 0 -0 -1 136 103 56
-1.25 3.75 0 0 -0 -1 186 65 46
0.625 3.125 0 -0 0 -1 110 121 61
-0.625 3.125 0 -0 0 -1 161 84 51
0 3.75 0 -0 0 -1 136 103 56
0.625 4.375 0 0 -0 -1 110 121 61
-0.625 4.375 0 0 -0 -1 161 84 51
1.875 3.125 0 0 -0 -1 59 158 71
1.25 2.5 0 0 -0 -1 85 140 66
-1.25 2.5 0 0 0 -1 186 65 46
-1.875 3.125 0 0 0 -1 212 47 41
-2.5 5 0 0 0 -1 237 28 36
-1.875 4.375 0 0 -0 -1 212 47 41
-2.5 3.75 0 0 -0 -1 237 28 36
-3.125 4.375 0 0 -0 -1 237 28 36
-3.75 5 0 0 0 -1 237 28 36
-1.25 5 0 0 0 -1 186 65 46
2.5 5 0 0 0 -1 34 177 76
3.75 3.75 0 0 0 -1 34 177 76
3.125 4.375 0 0 -0 -1 34 177 76
2.5 3.75 0 0 -0 -1 34 177 76
1.875 4.375 0 0 -0 -1 59 158 71
1.25 5 0 0 0 -1 85 140 66
3.75 5 0 0 0 -1 34 177 76
4.375 4.375 0 0 0 -1 34 177 76
3.125 3.125 0 -0 0 -1 34 177 76
1.25 1.25 0 -0 0 -1 111 163 112
0 1.25 0 0 0 -1 134 129 103
-0.625 1.875 0 0 0 -1 153 98 75
0.625 1.875 0 0 0 -1 116 134 84
1.875 1.875 0 -0 0 -1 80 169 94
0.625 0.625 0 -0 0 -1 129 158 131
5 -5 0 0 -0 -1 255 255 255
5 0 0 0 -0 -1 145 216 166
2.5 -2.5 0 0 -0 -1 255 255 255
3.75 -1.25 0 -0 0 -1 200 236 210
2.5 0 0 -0 0 -1 145 216 166
3.75 1.25 0 -0 0 -1 89 197 121
3.125 -0.625 0 0 0 -1 172 226 188
3.125 0.625 0 0 0 -1 117 206 143
3.75 0 0 0 0 -1 145 216 166
4.375 -0.625 0 -0 0 -1 172 226 188
4.375 0.625 0 -0 0 -1 117 206 143
3.125 -1.875 0 -0 0 -1 227 245 233
2.5 -1.25 0 -0 0 -1 200 236 210
2.5 1.25 0 0 0 -1 89 197 121
3.125 1.875 0 0 0 -1 62 187 98
5 2.5 0 0 -0 -1 34 177 76
4.375 1.875 0 -0 0 -1 62 187 98
3.75 2.5 0 -0 0 -1 34 177 76
4.375 3.125 0 -0 0 -1 34 177 76
5 3.75 0 0 -0 -1 34 177 76
5 1.25 0 0 -0 -1 89 197 121
5 -2.5 0 0 -0 -1 255 255 255
3.75 -3.75 0 0 -0 -1 255 255 255
4.375 -3.125 0 -0 0 -1 255 255 255
3.75 -2.5 0 -0 0 -1 255 255 255
4.375 -1.875 0 -0 0 -1 227 245 233
5 -1.25 0 0 -0 -1 200 236 210
5 -3.75 0 0 -0 -1 255 255 255
4.375 -4.375 0 0 -0 -1 255 255 255
3.125 -3.125 0 0 0 -1 255 255 255
1.25 -1.25 0 0 0 -1 165 209 203
1.25 0 0 0 0 -1 138 186 158
1.875 0.625 0 0 0 -1 121 190 139
1.875 -0.625 0 0 0 -1 162 212 184
1.875 -1.875 0 0 0 -1 203 233 229
0.625 -0.625 0 0 0 -1 141 183 177
0 -5 0 0 0 -1 128 209 244
-1.25 -3.75 0 0 0 -1 64 185 238
0 -2.5 0 0 0 -1 128 209 244
1.25 -3.75 0 0 0 -1 191 232 249
-0.625 -3.125 0 0 0 -1 96 197 241
0.625 -3.125 0 0 0 -1 159 220 246
0 -3.75 0 0 0 -1 128 209 244
-0.625 -4.375 0 0 0 -1 96 197 241
0.625 -4.375 0 0 0 -1 159 220 246
-1.875 -3.125 0 0 0 -1 32 174 235
-1.25 -2.5 0 0 0 -1 64 185 238
1.25 -2.5 0 0 0 -1 191 232 249
1.875 -3.125 0 0 0 -1 223 243 252
2.5 -5 0 0 0 -1 255 255 255
1.875 -4.375 0 0 0 -1 223 243 252
2.5 -3.75 0 0 0 -1 255 255 255
3.125 -4.375 0 0 0 -1 255 255 255
3.75 -5 0 0 0 -1 255 255 255
1.25 -5 0 0 0 -1 191 232 249
-2.5 -5 0 0 0 -1 0 162 232
-3.125 -4.375 0 0 0 -1 0 162 232
-2.5 -3.75 0 0 0 -1 0 162 232
-1.875 -4.375 0 0 0 -1 32 174 235
-1.25 -5 0 0 0 -1 64 185 238
-3.75 -5 0 0 0 -1 0 162 232
0 -1.25 0 0 0 -1 130 182 197
0.625 -1.875 0 0 0 -1 153 208 223
-0.625 -1.875 0 0 0 -1 104 183 217
