ply
format ascii 1.0
comment Generated by InterDigital model processor
element vertex 111
property float x
property float y
property float z
property float nx
property float ny
property float nz
property uchar red
property uchar green
property uchar blue
end_header
-5 -5 0 0 0 -1 255 0 0
-5 -3.88888884 0 0 0 -1 227 28 0
-5 -2.77777767 0 0 0 -1 198 57 0
-5 -1.66666651 0 0 0 -1 170 85 0
-5 -0.555555344 0 0 0 -1 142 113 0
-5 0.55555582 0 0 0 -1 113 142 0
-5 1.66666698 0 0 0 -1 85 170 0
-5 2.77777815 0 0 0 -1 57 198 0
-5 3.88888931 0 0 0 -1 28 227 0
-5 5 0 0 0 -1 0 255 0
-3.88888884 -3.88888884 0 0 0 -1 198 0 57
-3.88888884 -2.77777767 0 0 0 -1 170 28 57
-3.88888884 -1.66666651 0 0 0 -1 142 57 57
-3.88888884 -0.555555344 0 0 0 -1 113 85 57
-3.88888884 0.55555582 0 0 0 -1 85 113 57
-3.88888884 1.66666698 0 0 0 -1 57 142 57
-3.88888884 2.77777815 0 0 0 -1 28 170 57
-3.88888884 3.88888931 0 0 0 -1 0 198 57
-2.77777767 -2.77777767 0 0 0 -1 142 0 113
-2.77777767 -1.66666651 0 0 0 -1 113 28 113
-2.77777767 -0.555555344 0 0 0 -1 85 57 113
-2.77777767 0.55555582 0 0 0 -1 57 85 113
-2.77777767 1.66666698 0 0 0 -1 28 113 113
-2.77777767 2.77777815 0 0 0 -1 0 142 113
-1.66666651 -1.66666651 0 0 0 -1 85 0 170
-1.66666651 -0.555555344 0 0 0 -1 57 28 170
-1.66666651 0.55555582 0 0 0 -1 28 57 170
-1.66666651 1.66666698 0 0 0 -1 0 85 170
-0.555555344 -0.555555344 0 0 0 -1 28 0 227
-0.555555344 0.55555582 0 0 0 -1 0 28 227
-3.88888884 3.88888931 0 0 0 -1 0 198 57
-3.88888884 5 0 0 0 -1 28 227 0
-2.77777767 2.77777815 0 0 0 -1 0 142 113
-2.77777767 3.88888931 0 0 0 -1 28 170 57
-2.77777767 5 0 0 0 -1 57 198 0
-1.66666651 1.66666698 0 0 0 -1 0 85 170
-1.66666651 2.77777815 0 0 0 -1 28 113 113
-1.66666651 3.88888931 0 0 0 -1 57 142 57
-1.66666651 5 0 0 0 -1 85 170 0
-0.555555344 0.55555582 0 0 0 -1 0 28 227
-0.555555344 1.66666698 0 0 0 -1 28 57 170
-0.555555344 2.77777815 0 0 0 -1 57 85 113
-0.555555344 3.88888931 0 0 0 -1 85 113 57
-0.555555344 5 0 0 0 -1 113 142 0
0.55555582 0.55555582 0 0 0 -1 28 0 227
0.55555582 1.66666698 0 0 0 -1 57 28 170
0.55555582 2.77777815 0 0 0 -1 85 57 113
0.55555582 3.88888931 0 0 0 -1 113 85 57
0.55555582 5 0 0 0 -1 142 113 0
1.66666698 1.66666698 0 0 0 -1 85 0 170
1.66666698 2.77777815 0 0 0 -1 113 28 113
1.66666698 3.88888931 0 0 0 -1 142 57 57
1.66666698 5 0 0 0 -1 170 85 0
2.77777815 2.77777815 0 0 0 -1 142 0 113
2.77777815 3.88888931 0 0 0 -1 170 28 57
2.77777815 5 0 0 0 -1 198 57 0
3.88888931 3.88888931 0 0 0 -1 198 0 57
3.88888931 5 0 0 0 -1 227 28 0
5 5 0 0 0 -1 255 0 0
0.55555582 -0.555555344 0 0 -0 -1 0 28 227
0.55555582 0.55555582 0 0 -0 -1 28 0 227
1.66666698 -1.66666651 0 0 -0 -1 0 85 170
1.66666698 -0.555555344 0 0 -0 -1 28 57 170
1.66666698 0.55555582 0 0 -0 -1 57 28 170
2.77777815 -2.77777767 0 0 -0 -1 0 142 113
2.77777815 -1.66666651 0 0 -0 -1 28 113 113
2.77777815 -0.555555344 0 0 -0 -1 57 85 113
2.77777815 0.55555582 0 0 -0 -1 85 57 113
2.77777815 1.66666698 0 0 -0 -1 113 28 113
2.77777815 2.77777815 0 0 -0 -1 142 0 113
3.88888931 -3.88888884 0 0 -0 -1 0 198 57
3.88888931 -2.77777767 0 0 -0 -1 28 170 57
3.88888931 -1.66666651 0 0 -0 -1 57 142 57
3.88888931 -0.555555344 0 0 -0 -1 85 113 57
3.88888931 0.55555582 0 0 -0 -1 113 85 57
3.88888931 1.66666698 0 0 -0 -1 142 57 57
3.88888931 2.77777815 0 0 -0 -1 170 28 57
3.88888931 3.88888931 0 0 -0 -1 198 0 57
5 -5 0 0 -0 -1 0 255 0
5 -3.88888884 0 0 -0 -1 28 227 0
5 -2.77777767 0 0 -0 -1 57 198 0
5 -1.66666651 0 0 -0 -1 85 170 0
5 -0.555555344 0 0 -0 -1 113 142 0
5 0.55555582 0 0 -0 -1 142 113 0
5 1.66666698 0 0 -0 -1 170 85 0
5 2.77777815 0 0 -0 -1 198 57 0
5 3.88888931 0 0 -0 -1 227 28 0
-3.88888884 -5 0 0 0 -1 227 28 0
-3.88888884 -3.88888884 0 0 0 -1 198 0 57
-2.77777767 -5 0 0 0 -1 198 57 0
-2.77777767 -3.88888884 0 0 0 -1 170 28 57
-2.77777767 -2.77777767 0 0 0 -1 142 0 113
-1.66666651 -5 0 0 0 -1 170 85 0
-1.66666651 -3.88888884 0 0 0 -1 142 57 57
-1.66666651 -2.77777767 0 0 0 -1 113 28 113
-1.66666651 -1.66666651 0 0 0 -1 85 0 170
-0.555555344 -5 0 0 0 -1 142 113 0
-0.555555344 -3.88888884 0 0 0 -1 113 85 57
-0.555555344 -2.77777767 0 0 0 -1 85 57 113
-0.555555344 -1.66666651 0 0 0 -1 57 28 170
-0.555555344 -0.555555344 0 0 0 -1 28 0 227
0.55555582 -5 0 0 0 -1 113 142 0
0.55555582 -3.88888884 0 0 0 -1 85 113 57
0.55555582 -2.77777767 0 0 0 -1 57 85 113
0.55555582 -1.66666651 0 0 0 -1 28 57 170
1.66666698 -5 0 0 0 -1 85 170 0
1.66666698 -3.88888884 0 0 0 -1 57 142 57
1.66666698 -2.77777767 0 0 0 -1 28 113 113
2.77777815 -5 0 0 0 -1 57 198 0
2.77777815 -3.88888884 0 0 0 -1 28 170 57
3.88888931 -5 0 0 0 -1 28 227 0
