ply
format ascii 1.0
comment Generated by InterDigital model processor
element vertex 16
property float x
property float y
property float z
property float nx
property float ny
property float nz
property uchar red
property uchar green
property uchar blue
end_header
-5 -5 -1.1920929e-07 0 0 -1 0 162 232
-5 -1.66666651 -1.1920929e-07 0 0 -1 0 162 232
-5 1.66666698 -1.1920929e-07 0 0 -1 237 28 36
-5 5 -1.1920929e-07 0 0 -1 237 28 36
-1.66666651 -1.66666651 -1.1920929e-07 0 0 -1 0 162 232
-1.66666651 1.66666698 -1.1920929e-07 0 0 -1 237 28 36
-1.66666651 5 -1.1920929e-07 0 0 -1 237 28 36
1.66666698 1.66666698 -1.1920929e-07 0 0 -1 34 177 76
1.66666698 5 -1.1920929e-07 0 0 -1 34 177 76
5 5 -1.1920929e-07 0 0 -1 34 177 76
1.66666698 -1.66666651 -1.1920929e-07 0 -0 -1 255 255 255
5 -5 -1.1920929e-07 0 -0 -1 255 255 255
5 -1.66666651 -1.1920929e-07 0 -0 -1 255 255 255
5 1.66666698 -1.1920929e-07 0 -0 -1 34 177 76
-1.66666651 -5 -1.1920929e-07 0 0 -1 0 162 232
1.66666698 -5 -1.1920929e-07 0 0 -1 255 255 255
