ply
format ascii 1.0
comment Generated by InterDigital model processor
element vertex 176
property float x
property float y
property float z
property float nx
property float ny
property float nz
property uchar red
property uchar green
property uchar blue
end_header
-5 -5 0 0 0 -1 0 162 232
-5 -4 0 0 0 -1 0 162 232
-5 -3 0 0 0 -1 0 162 232
-4.29289341 -3.70710683 0 0 0 -1 0 162 232
-5 -2 0 0 0 -1 0 162 232
-4.29289341 -2.70710683 0 0 0 -1 0 162 232
-3.58578634 -3.41421366 0 0 0 -1 0 162 232
-5 -1 0 0 0 -1 0 162 232
-4.29289341 -1.70710683 0 0 0 -1 0 162 232
-3.58578634 -2.41421366 0 0 0 -1 0 162 232
-5 0 0 0 0 -1 237 28 36
-4.29289341 -0.707106769 0 0 0 -1 0 162 232
-3.58578634 -1.41421354 0 0 0 -1 0 162 232
-2.87867975 -2.12132025 0 0 0 -1 0 162 232
-5 1 0 0 0 -1 237 28 36
-4.29289341 0.292893231 0 0 0 -1 237 28 36
-3.58578634 -0.414213538 0 0 0 -1 0 162 232
-2.87867975 -1.12132025 0 0 0 -1 0 162 232
-2.17157292 -1.82842708 0 0 0 -1 0 162 232
-5 2 0 0 0 -1 237 28 36
-4.29289341 1.29289317 0 0 0 -1 237 28 36
-3.58578634 0.585786462 0 0 0 -1 237 28 36
-2.87867975 -0.121320248 0 0 0 -1 0 162 232
-2.17157292 -0.828427076 0 0 0 -1 0 162 232
-5 3 0 0 0 -1 237 28 36
-4.29289341 2.29289317 0 0 0 -1 237 28 36
-3.58578634 1.58578646 0 0 0 -1 237 28 36
-2.87867975 0.878679752 0 0 0 -1 237 28 36
-2.17157292 0.171572924 0 0 0 -1 237 28 36
-1.46446609 -0.535533905 0 0 0 -1 0 162 232
-5 4 0 0 0 -1 237 28 36
-4.29289341 3.29289317 0 0 0 -1 237 28 36
-3.58578634 2.58578634 0 0 0 -1 237 28 36
-2.87867975 1.87867975 0 0 0 -1 237 28 36
-2.17157292 1.17157292 0 0 0 -1 237 28 36
-1.46446609 0.464466095 0 0 0 -1 237 28 36
-0.757359505 -0.242640495 0 0 0 -1 0 162 232
-5 5 0 0 0 -1 237 28 36
-4.29289341 4.29289341 0 0 0 -1 237 28 36
-3.58578634 3.58578634 0 0 0 -1 237 28 36
-2.87867975 2.87867975 0 0 0 -1 237 28 36
-2.17157292 2.17157292 0 0 0 -1 237 28 36
-1.46446609 1.46446609 0 0 0 -1 237 28 36
-0.757359505 0.757359505 0 0 0 -1 237 28 36
-0.0502524376 0.0502524376 0 0 0 -1 237 28 36
-4 5 0 0 0 -1 237 28 36
-3 5 0 0 0 -1 237 28 36
-3.70710683 4.29289341 0 0 0 -1 237 28 36
-2 5 0 0 0 -1 237 28 36
-2.70710683 4.29289341 0 0 0 -1 237 28 36
-3.41421366 3.58578634 0 0 0 -1 237 28 36
-1 5 0 0 0 -1 237 28 36
-1.70710683 4.29289341 0 0 0 -1 237 28 36
-2.41421366 3.58578634 0 0 0 -1 237 28 36
0 5 0 0 0 -1 34 177 76
-0.707106769 4.29289341 0 0 0 -1 237 28 36
-1.41421354 3.58578634 0 0 0 -1 237 28 36
-2.12132025 2.87867975 0 0 0 -1 237 28 36
1 5 0 0 0 -1 34 177 76
0.292893231 4.29289341 0 0 0 -1 34 177 76
-0.414213538 3.58578634 0 0 0 -1 237 28 36
-1.12132025 2.87867975 0 0 0 -1 237 28 36
-1.82842708 2.17157292 0 0 0 -1 237 28 36
2 5 0 0 0 -1 34 177 76
1.29289317 4.29289341 0 0 0 -1 34 177 76
0.585786462 3.58578634 0 0 0 -1 34 177 76
-0.121320248 2.87867975 0 0 0 -1 237 28 36
-0.828427076 2.17157292 0 0 0 -1 237 28 36
3 5 0 0 0 -1 34 177 76
2.29289317 4.29289341 0 0 0 -1 34 177 76
1.58578646 3.58578634 0 0 0 -1 34 177 76
0.878679752 2.87867975 0 0 0 -1 34 177 76
0.171572924 2.17157292 0 0 0 -1 34 177 76
-0.535533905 1.46446609 0 0 0 -1 237 28 36
4 5 0 0 0 -1 34 177 76
3.29289317 4.29289341 0 0 0 -1 34 177 76
2.58578634 3.58578634 0 0 0 -1 34 177 76
1.87867975 2.87867975 0 0 0 -1 34 177 76
1.17157292 2.17157292 0 0 0 -1 34 177 76
0.464466095 1.46446609 0 0 0 -1 34 177 76
-0.242640495 0.757359505 0 0 0 -1 237 28 36
5 5 0 0 0 -1 34 177 76
4.29289341 4.29289341 0 0 0 -1 34 177 76
3.58578634 3.58578634 0 0 0 -1 34 177 76
2.87867975 2.87867975 0 0 0 -1 34 177 76
2.17157292 2.17157292 0 0 0 -1 34 177 76
1.46446609 1.46446609 0 0 0 -1 34 177 76
0.757359505 0.757359505 0 0 0 -1 34 177 76
0.0502524376 0.0502524376 0 0 0 -1 34 177 76
5 4 0 0 -0 -1 34 177 76
5 3 0 0 -0 -1 34 177 76
4.29289341 3.70710683 0 0 -0 -1 34 177 76
5 2 0 0 -0 -1 34 177 76
4.29289341 2.70710683 0 0 -0 -1 34 177 76
3.58578634 3.41421366 0 0 -0 -1 34 177 76
5 1 0 0 -0 -1 34 177 76
4.29289341 1.70710683 0 0 -0 -1 34 177 76
3.58578634 2.41421366 0 0 -0 -1 34 177 76
5 0 0 0 -0 -1 34 177 76
4.29289341 0.707106769 0 0 -0 -1 34 177 76
3.58578634 1.41421354 0 0 -0 -1 34 177 76
2.87867975 2.12132025 0 0 -0 -1 34 177 76
5 -1 0 0 -0 -1 255 255 255
4.29289341 -0.292893231 0 0 -0 -1 255 255 255
3.58578634 0.414213538 0 0 -0 -1 34 177 76
2.87867975 1.12132025 0 0 -0 -1 34 177 76
2.17157292 1.82842708 0 0 -0 -1 34 177 76
5 -2 0 0 -0 -1 255 255 255
4.29289341 -1.29289317 0 0 -0 -1 255 255 255
3.58578634 -0.585786462 0 0 -0 -1 255 255 255
2.87867975 0.121320248 0 0 -0 -1 34 177 76
2.17157292 0.828427076 0 0 -0 -1 34 177 76
5 -3 0 0 -0 -1 255 255 255
4.29289341 -2.29289317 0 0 -0 -1 255 255 255
3.58578634 -1.58578646 0 0 -0 -1 255 255 255
2.87867975 -0.878679752 0 0 -0 -1 255 255 255
2.17157292 -0.171572924 0 0 -0 -1 255 255 255
1.46446609 0.535533905 0 0 -0 -1 34 177 76
5 -4 0 0 -0 -1 255 255 255
4.29289341 -3.29289317 0 0 -0 -1 255 255 255
3.58578634 -2.58578634 0 0 -0 -1 255 255 255
2.87867975 -1.87867975 0 0 -0 -1 255 255 255
2.17157292 -1.17157292 0 0 -0 -1 255 255 255
1.46446609 -0.464466095 0 0 -0 -1 255 255 255
0.757359505 0.242640495 0 0 -0 -1 34 177 76
5 -5 0 0 -0 -1 255 255 255
4.29289341 -4.29289341 0 0 -0 -1 255 255 255
3.58578634 -3.58578634 0 0 -0 -1 255 255 255
2.87867975 -2.87867975 0 0 -0 -1 255 255 255
2.17157292 -2.17157292 0 0 -0 -1 255 255 255
1.46446609 -1.46446609 0 0 -0 -1 255 255 255
0.757359505 -0.757359505 0 0 -0 -1 255 255 255
0.0502524376 -0.0502524376 0 0 -0 -1 255 255 255
4 -5 0 0 0 -1 255 255 255
3 -5 0 0 0 -1 255 255 255
3.70710683 -4.29289341 0 0 0 -1 255 255 255
2 -5 0 0 0 -1 255 255 255
2.70710683 -4.29289341 0 0 0 -1 255 255 255
3.41421366 -3.58578634 0 0 0 -1 255 255 255
1 -5 0 0 0 -1 255 255 255
1.70710683 -4.29289341 0 0 0 -1 255 255 255
2.41421366 -3.58578634 0 0 0 -1 255 255 255
0 -5 0 0 0 -1 255 255 255
0.707106769 -4.29289341 0 0 0 -1 255 255 255
1.41421354 -3.58578634 0 0 0 -1 255 255 255
2.12132025 -2.87867975 0 0 0 -1 255 255 255
-1 -5 0 0 0 -1 0 162 232
-0.292893231 -4.29289341 0 0 0 -1 0 162 232
0.414213538 -3.58578634 0 0 0 -1 255 255 255
1.12132025 -2.87867975 0 0 0 -1 255 255 255
1.82842708 -2.17157292 0 0 0 -1 255 255 255
-2 -5 0 0 0 -1 0 162 232
-1.29289317 -4.29289341 0 0 0 -1 0 162 232
-0.585786462 -3.58578634 0 0 0 -1 0 162 232
0.121320248 -2.87867975 0 0 0 -1 255 255 255
0.828427076 -2.17157292 0 0 0 -1 255 255 255
-3 -5 0 0 0 -1 0 162 232
-2.29289317 -4.29289341 0 0 0 -1 0 162 232
-1.58578646 -3.58578634 0 0 0 -1 0 162 232
-0.878679752 -2.87867975 0 0 0 -1 0 162 232
-0.171572924 -2.17157292 0 0 0 -1 0 162 232
0.535533905 -1.46446609 0 0 0 -1 255 255 255
-4 -5 0 0 0 -1 0 162 232
-3.29289317 -4.29289341 0 0 0 -1 0 162 232
-2.58578634 -3.58578634 0 0 0 -1 0 162 232
-1.87867975 -2.87867975 0 0 0 -1 0 162 232
-1.17157292 -2.17157292 0 0 0 -1 0 162 232
-0.464466095 -1.46446609 0 0 0 -1 0 162 232
0.242640495 -0.757359505 0 0 0 -1 255 255 255
-4.29289341 -4.29289341 0 0 0 -1 0 162 232
-3.58578634 -3.58578634 0 0 0 -1 0 162 232
-2.87867975 -2.87867975 0 0 0 -1 0 162 232
-2.17157292 -2.17157292 0 0 0 -1 0 162 232
-1.46446609 -1.46446609 0 0 0 -1 0 162 232
-0.757359505 -0.757359505 0 0 0 -1 0 162 232
-0.0502524376 -0.0502524376 0 0 0 -1 0 162 232
