ply
format ascii 1.0
comment Generated by InterDigital model processor
element vertex 180
property float x
property float y
property float z
property float nx
property float ny
property float nz
property uchar red
property uchar green
property uchar blue
end_header
-5 -5 0 0 0 -1 0 162 232
-5 -4 0 0 0 -1 0 162 232
-5 -3 0 0 0 -1 0 162 232
-4.29289 -3.70711 0 0 0 -1 0 162 232
-5 -2 0 0 0 -1 0 162 232
-4.29289 -2.70711 0 0 0 -1 0 162 232
-3.58579 -3.41421 0 0 0 -1 0 162 232
-5 -1 0 0 0 -1 0 162 232
-4.29289 -1.70711 0 0 0 -1 0 162 232
-3.58579 -2.41421 0 0 0 -1 0 162 232
-5 0 0 0 0 -1 0 162 232
-4.29289 -0.707107 0 0 0 -1 0 162 232
-3.58579 -1.41421 0 0 0 -1 0 162 232
-2.87868 -2.12132 0 0 0 -1 0 162 232
-5 1 0 0 0 -1 0 162 232
-4.29289 0.292893 0 0 0 -1 0 162 232
-3.58579 -0.414214 0 0 0 -1 0 162 232
-2.87868 -1.12132 0 0 0 -1 0 162 232
-2.17157 -1.82843 0 0 0 -1 0 162 232
-5 2 0 0 0 -1 0 162 232
-4.29289 1.29289 0 0 0 -1 0 162 232
-3.58579 0.585786 0 0 0 -1 0 162 232
-2.87868 -0.12132 0 0 0 -1 0 162 232
-2.17157 -0.828427 0 0 0 -1 0 162 232
-5 3 0 0 0 -1 237 28 36
-4.29289 2.29289 0 0 0 -1 0 162 232
-3.58579 1.58579 0 0 0 -1 0 162 232
-2.87868 0.87868 0 0 0 -1 0 162 232
-2.17157 0.171573 0 0 0 -1 0 162 232
-1.46447 -0.535534 0 0 0 -1 0 162 232
-5 4 0 0 0 -1 237 28 36
-4.29289 3.29289 0 0 0 -1 237 28 36
-3.58579 2.58579 0 0 0 -1 237 28 36
-2.87868 1.87868 0 0 0 -1 0 162 232
-2.17157 1.17157 0 0 0 -1 0 162 232
-1.46447 0.464466 0 0 0 -1 0 162 232
-0.75736 -0.24264 0 0 0 -1 0 162 232
-5 5 0 0 0 -1 237 28 36
-4.29289 4.29289 0 0 0 -1 237 28 36
-3.58579 3.58579 0 0 0 -1 237 28 36
-2.87868 2.87868 0 0 0 -1 237 28 36
-2.17157 2.17157 0 0 0 -1 0 162 232
-1.46447 1.46447 0 0 0 -1 0 162 232
-0.75736 0.75736 0 0 0 -1 0 162 232
-0.0502524 0.0502524 0 0 0 -1 0 162 232
-5 5 0 0 0 -1 237 28 36
-4 5 0 0 0 -1 237 28 36
-3 5 0 0 0 -1 237 28 36
-3.70711 4.29289 0 0 0 -1 237 28 36
-2 5 0 0 0 -1 237 28 36
-2.70711 4.29289 0 0 0 -1 237 28 36
-3.41421 3.58579 0 0 0 -1 237 28 36
-1 5 0 0 0 -1 237 28 36
-1.70711 4.29289 0 0 0 -1 237 28 36
-2.41421 3.58579 0 0 0 -1 237 28 36
0 5 0 0 0 -1 237 28 36
-0.707107 4.29289 0 0 0 -1 237 28 36
-1.41421 3.58579 0 0 0 -1 237 28 36
-2.12132 2.87868 0 0 0 -1 237 28 36
1 5 0 0 0 -1 237 28 36
0.292893 4.29289 0 0 0 -1 237 28 36
-0.414214 3.58579 0 0 0 -1 237 28 36
-1.12132 2.87868 0 0 0 -1 237 28 36
-1.82843 2.17157 0 0 0 -1 0 162 232
2 5 0 0 0 -1 237 28 36
1.29289 4.29289 0 0 0 -1 237 28 36
0.585786 3.58579 0 0 0 -1 237 28 36
-0.12132 2.87868 0 0 0 -1 237 28 36
-0.828427 2.17157 0 0 0 -1 0 162 232
3 5 0 0 0 -1 34 177 76
2.29289 4.29289 0 0 0 -1 237 28 36
1.58579 3.58579 0 0 0 -1 237 28 36
0.87868 2.87868 0 0 0 -1 237 28 36
0.171573 2.17157 0 0 0 -1 0 162 232
-0.535534 1.46447 0 0 0 -1 0 162 232
4 5 0 0 0 -1 34 177 76
3.29289 4.29289 0 0 0 -1 34 177 76
2.58579 3.58579 0 0 0 -1 34 177 76
1.87868 2.87868 0 0 0 -1 237 28 36
1.17157 2.17157 0 0 0 -1 0 162 232
0.464466 1.46447 0 0 0 -1 0 162 232
-0.24264 0.75736 0 0 0 -1 0 162 232
5 5 0 0 0 -1 34 177 76
4.29289 4.29289 0 0 0 -1 34 177 76
3.58579 3.58579 0 0 0 -1 34 177 76
2.87868 2.87868 0 0 0 -1 34 177 76
2.17157 2.17157 0 0 0 -1 0 162 232
1.46447 1.46447 0 0 0 -1 0 162 232
0.75736 0.75736 0 0 0 -1 0 162 232
0.0502524 0.0502524 0 0 0 -1 0 162 232
5 5 0 0 -0 -1 34 177 76
5 4 0 0 -0 -1 34 177 76
5 3 0 0 -0 -1 34 177 76
4.29289 3.70711 0 0 -0 -1 34 177 76
5 2 0 0 -0 -1 255 255 255
4.29289 2.70711 0 0 -0 -1 34 177 76
3.58579 3.41421 0 0 -0 -1 34 177 76
5 1 0 0 -0 -1 255 255 255
4.29289 1.70711 0 0 -0 -1 255 255 255
3.58579 2.41421 0 0 -0 -1 255 255 255
5 0 0 0 -0 -1 255 255 255
4.29289 0.707107 0 0 -0 -1 255 255 255
3.58579 1.41421 0 0 -0 -1 255 255 255
2.87868 2.12132 0 0 -0 -1 255 255 255
5 -1 0 0 -0 -1 255 255 255
4.29289 -0.292893 0 0 -0 -1 255 255 255
3.58579 0.414214 0 0 -0 -1 255 255 255
2.87868 1.12132 0 0 -0 -1 255 255 255
2.17157 1.82843 0 0 -0 -1 0 162 232
5 -2 0 0 -0 -1 255 255 255
4.29289 -1.29289 0 0 -0 -1 255 255 255
3.58579 -0.585786 0 0 -0 -1 255 255 255
2.87868 0.12132 0 0 -0 -1 255 255 255
2.17157 0.828427 0 0 -0 -1 0 162 232
5 -3 0 0 -0 -1 255 255 255
4.29289 -2.29289 0 0 -0 -1 255 255 255
3.58579 -1.58579 0 0 -0 -1 255 255 255
2.87868 -0.87868 0 0 -0 -1 255 255 255
2.17157 -0.171573 0 0 -0 -1 0 162 232
1.46447 0.535534 0 0 -0 -1 0 162 232
5 -4 0 0 -0 -1 255 255 255
4.29289 -3.29289 0 0 -0 -1 255 255 255
3.58579 -2.58579 0 0 -0 -1 255 255 255
2.87868 -1.87868 0 0 -0 -1 255 255 255
2.17157 -1.17157 0 0 -0 -1 0 162 232
1.46447 -0.464466 0 0 -0 -1 0 162 232
0.75736 0.24264 0 0 -0 -1 0 162 232
5 -5 0 0 -0 -1 255 255 255
4.29289 -4.29289 0 0 -0 -1 255 255 255
3.58579 -3.58579 0 0 -0 -1 255 255 255
2.87868 -2.87868 0 0 -0 -1 255 255 255
2.17157 -2.17157 0 0 -0 -1 0 162 232
1.46447 -1.46447 0 0 -0 -1 0 162 232
0.75736 -0.75736 0 0 -0 -1 0 162 232
0.0502524 -0.0502524 0 0 -0 -1 0 162 232
5 -5 0 0 0 -1 255 255 255
4 -5 0 0 0 -1 255 255 255
3 -5 0 0 0 -1 255 255 255
3.70711 -4.29289 0 0 0 -1 255 255 255
2 -5 0 0 0 -1 0 162 232
2.70711 -4.29289 0 0 0 -1 255 255 255
3.41421 -3.58579 0 0 0 -1 255 255 255
1 -5 0 0 0 -1 0 162 232
1.70711 -4.29289 0 0 0 -1 0 162 232
2.41421 -3.58579 0 0 0 -1 0 162 232
0 -5 0 0 0 -1 0 162 232
0.707107 -4.29289 0 0 0 -1 0 162 232
1.41421 -3.58579 0 0 0 -1 0 162 232
2.12132 -2.87868 0 0 0 -1 0 162 232
-1 -5 0 0 0 -1 0 162 232
-0.292893 -4.29289 0 0 0 -1 0 162 232
0.414214 -3.58579 0 0 0 -1 0 162 232
1.12132 -2.87868 0 0 0 -1 0 162 232
1.82843 -2.17157 0 0 0 -1 0 162 232
-2 -5 0 0 0 -1 0 162 232
-1.29289 -4.29289 0 0 0 -1 0 162 232
-0.585786 -3.58579 0 0 0 -1 0 162 232
0.12132 -2.87868 0 0 0 -1 0 162 232
0.828427 -2.17157 0 0 0 -1 0 162 232
-3 -5 0 0 0 -1 0 162 232
-2.29289 -4.29289 0 0 0 -1 0 162 232
-1.58579 -3.58579 0 0 0 -1 0 162 232
-0.87868 -2.87868 0 0 0 -1 0 162 232
-0.171573 -2.17157 0 0 0 -1 0 162 232
0.535534 -1.46447 0 0 0 -1 0 162 232
-4 -5 0 0 0 -1 0 162 232
-3.29289 -4.29289 0 0 0 -1 0 162 232
-2.58579 -3.58579 0 0 0 -1 0 162 232
-1.87868 -2.87868 0 0 0 -1 0 162 232
-1.17157 -2.17157 0 0 0 -1 0 162 232
-0.464466 -1.46447 0 0 0 -1 0 162 232
0.24264 -0.75736 0 0 0 -1 0 162 232
-5 -5 0 0 0 -1 0 162 232
-4.29289 -4.29289 0 0 0 -1 0 162 232
-3.58579 -3.58579 0 0 0 -1 0 162 232
-2.87868 -2.87868 0 0 0 -1 0 162 232
-2.17157 -2.17157 0 0 0 -1 0 162 232
-1.46447 -1.46447 0 0 0 -1 0 162 232
-0.75736 -0.75736 0 0 0 -1 0 162 232
-0.0502524 -0.0502524 0 0 0 -1 0 162 232
