ply
format ascii 1.0
comment Generated by InterDigital model processor
element vertex 110
property float x
property float y
property float z
property float nx
property float ny
property float nz
property uchar red
property uchar green
property uchar blue
end_header
-4.49853 -4.49853 0 0 0 -1 0 162 232
-3.49853 -4.49853 0 0 0 -1 0 162 232
-3.49559 -3.49559 0 0 0 -1 0 162 232
-2.49853 -4.49853 0 0 0 -1 0 162 232
-2.49559 -3.49559 0 0 0 -1 0 162 232
-2.49265 -2.49265 0 0 0 -1 0 162 232
-1.49853 -4.49853 0 0 0 -1 0 162 232
-1.49559 -3.49559 0 0 0 -1 0 162 232
-1.49265 -2.49265 0 0 0 -1 0 162 232
-1.48971 -1.48971 0 0 0 -1 0 162 232
-0.49853 -4.49853 0 0 0 -1 0 162 232
-0.495589 -3.49559 0 0 0 -1 0 162 232
-0.492648 -2.49265 0 0 0 -1 0 162 232
-0.489708 -1.48971 0 0 0 -1 0 162 232
-0.486767 -0.486767 0 0 0 -1 0 162 232
0.50147 -4.49853 0 0 0 -1 255 255 255
0.504411 -3.49559 0 0 0 -1 255 255 255
0.507352 -2.49265 0 0 0 -1 255 255 255
0.510293 -1.48971 0 0 0 -1 255 255 255
0.513233 -0.486767 0 0 0 -1 255 255 255
1.50147 -4.49853 0 0 0 -1 255 255 255
1.50441 -3.49559 0 0 0 -1 255 255 255
1.50735 -2.49265 0 0 0 -1 255 255 255
1.51029 -1.48971 0 0 0 -1 255 255 255
2.50147 -4.49853 0 0 0 -1 255 255 255
2.50441 -3.49559 0 0 0 -1 255 255 255
2.50735 -2.49265 0 0 0 -1 255 255 255
3.50147 -4.49853 0 0 0 -1 255 255 255
3.50441 -3.49559 0 0 0 -1 255 255 255
4.50147 -4.49853 0 0 0 -1 255 255 255
0.513259 0.51326 0 0 0 -1 34 177 76
1.51031 -0.489687 0 0 0 -1 255 255 255
1.51031 0.510313 0 0 0 -1 34 177 76
1.51031 1.51031 0 0 0 -1 34 177 76
2.50737 -1.49263 0 0 0 -1 255 255 255
2.50737 -0.492634 0 0 0 -1 255 255 255
2.50737 0.507367 0 0 0 -1 34 177 76
2.50737 1.50737 0 0 0 -1 34 177 76
2.50737 2.50737 0 0 0 -1 34 177 76
3.50442 -2.49558 0 0 0 -1 255 255 255
3.50442 -1.49558 0 0 0 -1 255 255 255
3.50442 -0.495581 0 0 0 -1 255 255 255
3.50442 0.50442 0 0 0 -1 34 177 76
3.50442 1.50442 0 0 0 -1 34 177 76
3.50442 2.50442 0 0 0 -1 34 177 76
3.50442 3.50442 0 0 0 -1 34 177 76
4.50147 -3.49853 0 0 0 -1 255 255 255
4.50147 -2.49853 0 0 0 -1 255 255 255
4.50147 -1.49853 0 0 0 -1 255 255 255
4.50147 -0.498527 0 0 0 -1 255 255 255
4.50147 0.501474 0 0 0 -1 34 177 76
4.50147 1.50147 0 0 0 -1 34 177 76
4.50147 2.50147 0 0 0 -1 34 177 76
4.50147 3.50147 0 0 0 -1 34 177 76
4.50147 4.50147 0 0 0 -1 34 177 76
-3.49853 4.50147 0 -0 0 -1 237 28 36
-2.49558 3.50442 0 -0 0 -1 237 28 36
-2.49853 4.50147 0 -0 0 -1 237 28 36
-1.49263 2.50737 0 -0 0 -1 237 28 36
-1.49558 3.50442 0 -0 0 -1 237 28 36
-1.49853 4.50147 0 -0 0 -1 237 28 36
-0.489688 1.51031 0 -0 0 -1 237 28 36
-0.492634 2.50737 0 -0 0 -1 237 28 36
-0.49558 3.50442 0 -0 0 -1 237 28 36
-0.498527 4.50147 0 -0 0 -1 237 28 36
0.513259 0.513259 0 -0 0 -1 34 177 76
0.510313 1.51031 0 -0 0 -1 34 177 76
0.507366 2.50737 0 -0 0 -1 34 177 76
0.50442 3.50442 0 -0 0 -1 34 177 76
0.501474 4.50147 0 -0 0 -1 34 177 76
1.51031 1.51031 0 -0 0 -1 34 177 76
1.50737 2.50737 0 -0 0 -1 34 177 76
1.50442 3.50442 0 -0 0 -1 34 177 76
1.50147 4.50147 0 -0 0 -1 34 177 76
2.50737 2.50737 0 -0 0 -1 34 177 76
2.50442 3.50442 0 -0 0 -1 34 177 76
2.50147 4.50147 0 -0 0 -1 34 177 76
3.50442 3.50442 0 -0 0 -1 34 177 76
3.50147 4.50147 0 -0 0 -1 34 177 76
4.50147 4.50147 0 -0 0 -1 34 177 76
-4.49853 -4.49853 0 -0 0 -1 0 162 232
-4.49853 -3.49853 0 -0 0 -1 0 162 232
-4.49853 -2.49853 0 -0 0 -1 0 162 232
-4.49853 -1.49853 0 -0 0 -1 0 162 232
-4.49853 -0.49853 0 -0 0 -1 0 162 232
-4.49853 0.501471 0 -0 0 -1 237 28 36
-4.49853 1.50147 0 -0 0 -1 237 28 36
-4.49853 2.50147 0 -0 0 -1 237 28 36
-4.49853 3.50147 0 -0 0 -1 237 28 36
-4.49853 4.50147 0 -0 0 -1 237 28 36
-3.49559 -3.49559 0 -0 0 -1 0 162 232
-3.49559 -2.49559 0 -0 0 -1 0 162 232
-3.49559 -1.49559 0 -0 0 -1 0 162 232
-3.49559 -0.495589 0 -0 0 -1 0 162 232
-3.49559 0.504411 0 -0 0 -1 237 28 36
-3.49559 1.50441 0 -0 0 -1 237 28 36
-3.49559 2.50441 0 -0 0 -1 237 28 36
-3.49559 3.50441 0 -0 0 -1 237 28 36
-2.49265 -2.49265 0 -0 0 -1 0 162 232
-2.49265 -1.49265 0 -0 0 -1 0 162 232
-2.49265 -0.492648 0 -0 0 -1 0 162 232
-2.49265 0.507352 0 -0 0 -1 237 28 36
-2.49265 1.50735 0 -0 0 -1 237 28 36
-2.49265 2.50735 0 -0 0 -1 237 28 36
-1.48971 -1.48971 0 -0 0 -1 0 162 232
-1.48971 -0.489708 0 -0 0 -1 0 162 232
-1.48971 0.510293 0 -0 0 -1 237 28 36
-1.48971 1.51029 0 -0 0 -1 237 28 36
-0.486767 -0.486767 0 -0 0 -1 0 162 232
-0.486767 0.513233 0 -0 0 -1 237 28 36
